<?xml version="1.0"?>
<svg version="1.1" id="topsvg"
xmlns="http://www.w3.org/2000/svg" xmlns:xlink="http://www.w3.org/1999/xlink"
xmlns:cml="http://www.xml-cml.org/schema" x="0" y="0" width="200px" height="200px" viewBox="0 0 100 100">
<title> - Open Babel Depiction</title>
<rect x="0" y="0" width="100" height="100" fill="transparent"/>
<g transform="translate(0,0)">
<svg width="100" height="100" x="0" y="0" viewBox="0 0 560.699 471.607"
font-family="sans-serif" stroke="rgb(0,0,0)" stroke-width="2"  stroke-linecap="round">
<line x1="280.4" y1="194.1" x2="248.8" y2="212.3" opacity="1.0" stroke="rgb(0,0,0)"  stroke-width="4.0"/>
<line x1="194.8" y1="194.1" x2="226.3" y2="212.3" opacity="1.0" stroke="rgb(0,0,0)"  stroke-width="4.0"/>
<line x1="323.1" y1="218.8" x2="323.1" y2="255.1" opacity="1.0" stroke="rgb(0,0,0)"  stroke-width="4.0"/>
<line x1="365.9" y1="292.8" x2="334.4" y2="274.6" opacity="1.0" stroke="rgb(0,0,0)"  stroke-width="4.0"/>
<line x1="365.9" y1="194.1" x2="397.4" y2="212.3" opacity="1.0" stroke="rgb(0,0,0)"  stroke-width="4.0"/>
<line x1="419.9" y1="212.3" x2="423.9" y2="210.0" opacity="1.0" stroke="rgb(0,0,0)"  stroke-width="4.0"/>
<line x1="365.9" y1="144.7" x2="397.4" y2="126.5" opacity="1.0" stroke="rgb(0,0,0)"  stroke-width="4.0"/>
<line x1="408.6" y1="107.0" x2="408.6" y2="102.4" opacity="1.0" stroke="rgb(0,0,0)"  stroke-width="4.0"/>
<line x1="152.0" y1="218.8" x2="152.0" y2="255.1" opacity="1.0" stroke="rgb(0,0,0)"  stroke-width="4.0"/>
<line x1="140.8" y1="274.6" x2="136.8" y2="277.0" opacity="1.0" stroke="rgb(0,0,0)"  stroke-width="4.0"/>
<line x1="194.8" y1="144.7" x2="226.3" y2="126.5" opacity="1.0" stroke="rgb(0,0,0)"  stroke-width="4.0"/>
<line x1="237.6" y1="107.0" x2="237.6" y2="70.6" opacity="1.0" stroke="rgb(0,0,0)"  stroke-width="4.0"/>
<line x1="365.9" y1="342.2" x2="334.4" y2="360.4" opacity="1.0" stroke="rgb(0,0,0)"  stroke-width="4.0"/>
<line x1="323.1" y1="379.9" x2="323.1" y2="384.5" opacity="1.0" stroke="rgb(0,0,0)"  stroke-width="4.0"/>
<line x1="109.3" y1="194.1" x2="77.8" y2="212.3" opacity="1.0" stroke="rgb(0,0,0)"  stroke-width="4.0"/>
<line x1="55.3" y1="212.3" x2="51.3" y2="210.0" opacity="1.0" stroke="rgb(0,0,0)"  stroke-width="4.0"/>
<line x1="408.6" y1="366.9" x2="408.6" y2="403.3" opacity="1.0" stroke="rgb(0,0,0)"  stroke-width="4.0"/>
<line x1="419.9" y1="422.8" x2="423.9" y2="425.1" opacity="1.0" stroke="rgb(0,0,0)"  stroke-width="4.0"/>
<line x1="451.4" y1="342.2" x2="482.9" y2="360.4" opacity="1.0" stroke="rgb(0,0,0)"  stroke-width="4.0"/>
<line x1="505.4" y1="360.4" x2="509.4" y2="358.1" opacity="1.0" stroke="rgb(0,0,0)"  stroke-width="4.0"/>
<line x1="327.1" y1="220.1" x2="326.3" y2="221.5" opacity="1.0" stroke="rgb(0,0,0)"  stroke-width="1.0"/>
<line x1="330.2" y1="221.2" x2="328.8" y2="223.7" opacity="1.0" stroke="rgb(0,0,0)"  stroke-width="1.0"/>
<line x1="333.4" y1="222.3" x2="331.3" y2="225.9" opacity="1.0" stroke="rgb(0,0,0)"  stroke-width="1.0"/>
<line x1="336.6" y1="223.4" x2="333.8" y2="228.1" opacity="1.0" stroke="rgb(0,0,0)"  stroke-width="1.0"/>
<line x1="339.7" y1="224.5" x2="336.4" y2="230.3" opacity="1.0" stroke="rgb(0,0,0)"  stroke-width="1.0"/>
<line x1="342.9" y1="225.6" x2="338.9" y2="232.5" opacity="1.0" stroke="rgb(0,0,0)"  stroke-width="1.0"/>
<polygon points="280.351721 194.074782 284.351721 214.588456 276.351721 214.588456 " stroke-width="2.000000" fill="rgb(0,0,0)"  stroke="rgb(0,0,0)" />
<line x1="369.0" y1="191.3" x2="369.8" y2="192.7" opacity="1.0" stroke="rgb(0,0,0)"  stroke-width="1.0"/>
<line x1="371.6" y1="189.1" x2="373.0" y2="191.6" opacity="1.0" stroke="rgb(0,0,0)"  stroke-width="1.0"/>
<line x1="374.1" y1="186.9" x2="376.2" y2="190.5" opacity="1.0" stroke="rgb(0,0,0)"  stroke-width="1.0"/>
<line x1="376.6" y1="184.7" x2="379.3" y2="189.5" opacity="1.0" stroke="rgb(0,0,0)"  stroke-width="1.0"/>
<line x1="379.1" y1="182.5" x2="382.5" y2="188.4" opacity="1.0" stroke="rgb(0,0,0)"  stroke-width="1.0"/>
<line x1="381.6" y1="180.4" x2="385.6" y2="187.3" opacity="1.0" stroke="rgb(0,0,0)"  stroke-width="1.0"/>
<polygon points="365.882978 144.691839 361.882978 124.178164 369.882978 124.178164 " stroke-width="2.000000" fill="rgb(0,0,0)"  stroke="rgb(0,0,0)" />
<polygon points="194.815526 194.074782 198.815526 214.588456 190.815526 214.588456 " stroke-width="2.000000" fill="rgb(0,0,0)"  stroke="rgb(0,0,0)" />
<line x1="323.1" y1="120.0" x2="323.1" y2="70.6" opacity="1.0" stroke="rgb(0,0,0)"  stroke-width="4.0"/>
<line x1="319.2" y1="118.6" x2="320.0" y2="117.3" opacity="1.0" stroke="rgb(0,0,0)"  stroke-width="1.0"/>
<line x1="316.0" y1="117.6" x2="317.4" y2="115.1" opacity="1.0" stroke="rgb(0,0,0)"  stroke-width="1.0"/>
<line x1="312.8" y1="116.5" x2="314.9" y2="112.9" opacity="1.0" stroke="rgb(0,0,0)"  stroke-width="1.0"/>
<line x1="309.7" y1="115.4" x2="312.4" y2="110.7" opacity="1.0" stroke="rgb(0,0,0)"  stroke-width="1.0"/>
<line x1="306.5" y1="114.3" x2="309.9" y2="108.5" opacity="1.0" stroke="rgb(0,0,0)"  stroke-width="1.0"/>
<line x1="303.4" y1="113.2" x2="307.4" y2="106.3" opacity="1.0" stroke="rgb(0,0,0)"  stroke-width="1.0"/>
<polygon points="152.049897 218.766253 136.282229 232.487295 132.282588 225.558885 " stroke-width="2.000000" fill="rgb(0,0,0)"  stroke="rgb(0,0,0)" />
<polygon points="365.882978 292.840667 350.118897 306.561548 346.118698 299.633460 " stroke-width="2.000000" fill="rgb(0,0,0)"  stroke="rgb(0,0,0)" />
<line x1="366.7" y1="346.3" x2="365.1" y2="346.3" opacity="1.0" stroke="rgb(0,0,0)"  stroke-width="1.0"/>
<line x1="367.3" y1="349.6" x2="364.4" y2="349.6" opacity="1.0" stroke="rgb(0,0,0)"  stroke-width="1.0"/>
<line x1="368.0" y1="352.9" x2="363.8" y2="352.9" opacity="1.0" stroke="rgb(0,0,0)"  stroke-width="1.0"/>
<line x1="368.6" y1="356.2" x2="363.2" y2="356.2" opacity="1.0" stroke="rgb(0,0,0)"  stroke-width="1.0"/>
<line x1="369.2" y1="359.5" x2="362.5" y2="359.5" opacity="1.0" stroke="rgb(0,0,0)"  stroke-width="1.0"/>
<line x1="369.9" y1="362.7" x2="361.9" y2="362.7" opacity="1.0" stroke="rgb(0,0,0)"  stroke-width="1.0"/>
<line x1="110.1" y1="198.2" x2="108.5" y2="198.2" opacity="1.0" stroke="rgb(0,0,0)"  stroke-width="1.0"/>
<line x1="110.7" y1="201.5" x2="107.8" y2="201.5" opacity="1.0" stroke="rgb(0,0,0)"  stroke-width="1.0"/>
<line x1="111.4" y1="204.7" x2="107.2" y2="204.7" opacity="1.0" stroke="rgb(0,0,0)"  stroke-width="1.0"/>
<line x1="112.0" y1="208.0" x2="106.6" y2="208.0" opacity="1.0" stroke="rgb(0,0,0)"  stroke-width="1.0"/>
<line x1="112.6" y1="211.3" x2="105.9" y2="211.3" opacity="1.0" stroke="rgb(0,0,0)"  stroke-width="1.0"/>
<line x1="113.3" y1="214.6" x2="105.3" y2="214.6" opacity="1.0" stroke="rgb(0,0,0)"  stroke-width="1.0"/>
<line x1="194.0" y1="140.6" x2="195.6" y2="140.6" opacity="1.0" stroke="rgb(0,0,0)"  stroke-width="1.0"/>
<line x1="193.4" y1="137.3" x2="196.3" y2="137.3" opacity="1.0" stroke="rgb(0,0,0)"  stroke-width="1.0"/>
<line x1="192.7" y1="134.0" x2="196.9" y2="134.0" opacity="1.0" stroke="rgb(0,0,0)"  stroke-width="1.0"/>
<line x1="192.1" y1="130.7" x2="197.5" y2="130.7" opacity="1.0" stroke="rgb(0,0,0)"  stroke-width="1.0"/>
<line x1="191.5" y1="127.5" x2="198.2" y2="127.5" opacity="1.0" stroke="rgb(0,0,0)"  stroke-width="1.0"/>
<line x1="190.8" y1="124.2" x2="198.8" y2="124.2" opacity="1.0" stroke="rgb(0,0,0)"  stroke-width="1.0"/>
<line x1="405.5" y1="369.7" x2="404.7" y2="368.3" opacity="1.0" stroke="rgb(0,0,0)"  stroke-width="1.0"/>
<line x1="403.0" y1="371.9" x2="401.5" y2="369.4" opacity="1.0" stroke="rgb(0,0,0)"  stroke-width="1.0"/>
<line x1="400.5" y1="374.0" x2="398.4" y2="370.4" opacity="1.0" stroke="rgb(0,0,0)"  stroke-width="1.0"/>
<line x1="397.9" y1="376.2" x2="395.2" y2="371.5" opacity="1.0" stroke="rgb(0,0,0)"  stroke-width="1.0"/>
<line x1="395.4" y1="378.4" x2="392.0" y2="372.6" opacity="1.0" stroke="rgb(0,0,0)"  stroke-width="1.0"/>
<line x1="392.9" y1="380.6" x2="388.9" y2="373.7" opacity="1.0" stroke="rgb(0,0,0)"  stroke-width="1.0"/>
<polygon points="451.419173 342.223610 455.419173 362.737284 447.419173 362.737284 " stroke-width="2.000000" fill="rgb(0,0,0)"  stroke="rgb(0,0,0)" />
<line x1="109.3" y1="144.7" x2="66.5" y2="120.0" opacity="1.0" stroke="rgb(0,0,0)"  stroke-width="4.0"/>
<polygon points="109.284269 144.691839 105.284269 124.178164 113.284269 124.178164 " stroke-width="2.000000" fill="rgb(0,0,0)"  stroke="rgb(0,0,0)" />
<line x1="451.4" y1="292.8" x2="494.2" y2="268.1" opacity="1.0" stroke="rgb(0,0,0)"  stroke-width="4.0"/>
<line x1="450.6" y1="288.7" x2="452.2" y2="288.7" opacity="1.0" stroke="rgb(0,0,0)"  stroke-width="1.0"/>
<line x1="450.0" y1="285.5" x2="452.9" y2="285.5" opacity="1.0" stroke="rgb(0,0,0)"  stroke-width="1.0"/>
<line x1="449.3" y1="282.2" x2="453.5" y2="282.2" opacity="1.0" stroke="rgb(0,0,0)"  stroke-width="1.0"/>
<line x1="448.7" y1="278.9" x2="454.1" y2="278.9" opacity="1.0" stroke="rgb(0,0,0)"  stroke-width="1.0"/>
<line x1="448.1" y1="275.6" x2="454.8" y2="275.6" opacity="1.0" stroke="rgb(0,0,0)"  stroke-width="1.0"/>
<line x1="447.4" y1="272.3" x2="455.4" y2="272.3" opacity="1.0" stroke="rgb(0,0,0)"  stroke-width="1.0"/>
<line x1="323.1" y1="70.6" x2="340.7" y2="70.6" opacity="1.0" stroke="rgb(0,0,0)"  stroke-width="4.0"/>
<line x1="323.1" y1="70.6" x2="323.1" y2="53.0" opacity="1.0" stroke="rgb(0,0,0)"  stroke-width="4.0"/>
<line x1="323.1" y1="70.6" x2="305.5" y2="70.6" opacity="1.0" stroke="rgb(0,0,0)"  stroke-width="4.0"/>
<line x1="66.5" y1="120.0" x2="75.3" y2="104.7" opacity="1.0" stroke="rgb(0,0,0)"  stroke-width="4.0"/>
<line x1="66.5" y1="120.0" x2="51.3" y2="111.2" opacity="1.0" stroke="rgb(0,0,0)"  stroke-width="4.0"/>
<line x1="66.5" y1="120.0" x2="57.7" y2="135.3" opacity="1.0" stroke="rgb(0,0,0)"  stroke-width="4.0"/>
<line x1="494.2" y1="268.1" x2="503.0" y2="283.4" opacity="1.0" stroke="rgb(0,0,0)"  stroke-width="4.0"/>
<line x1="494.2" y1="268.1" x2="509.4" y2="259.3" opacity="1.0" stroke="rgb(0,0,0)"  stroke-width="4.0"/>
<line x1="494.2" y1="268.1" x2="485.4" y2="252.9" opacity="1.0" stroke="rgb(0,0,0)"  stroke-width="4.0"/>
<line x1="237.6" y1="70.6" x2="255.2" y2="70.6" opacity="1.0" stroke="rgb(0,0,0)"  stroke-width="4.0"/>
<line x1="237.6" y1="70.6" x2="237.6" y2="53.0" opacity="1.0" stroke="rgb(0,0,0)"  stroke-width="4.0"/>
<line x1="237.6" y1="70.6" x2="220.0" y2="70.6" opacity="1.0" stroke="rgb(0,0,0)"  stroke-width="4.0"/>
<line x1="291.6" y1="138.2" x2="323.1" y2="120.0" opacity="1.0" stroke="rgb(0,0,0)"  stroke-width="4.0"/>
<line x1="323.1" y1="120.0" x2="365.9" y2="144.7" opacity="1.0" stroke="rgb(0,0,0)"  stroke-width="4.0"/>
<line x1="365.9" y1="144.7" x2="365.9" y2="194.1" opacity="1.0" stroke="rgb(0,0,0)"  stroke-width="4.0"/>
<line x1="365.9" y1="194.1" x2="323.1" y2="218.8" opacity="1.0" stroke="rgb(0,0,0)"  stroke-width="4.0"/>
<line x1="323.1" y1="218.8" x2="280.4" y2="194.1" opacity="1.0" stroke="rgb(0,0,0)"  stroke-width="4.0"/>
<line x1="280.4" y1="194.1" x2="280.4" y2="157.7" opacity="1.0" stroke="rgb(0,0,0)"  stroke-width="4.0"/>
<line x1="140.8" y1="126.5" x2="109.3" y2="144.7" opacity="1.0" stroke="rgb(0,0,0)"  stroke-width="4.0"/>
<line x1="109.3" y1="144.7" x2="109.3" y2="194.1" opacity="1.0" stroke="rgb(0,0,0)"  stroke-width="4.0"/>
<line x1="109.3" y1="194.1" x2="152.0" y2="218.8" opacity="1.0" stroke="rgb(0,0,0)"  stroke-width="4.0"/>
<line x1="152.0" y1="218.8" x2="194.8" y2="194.1" opacity="1.0" stroke="rgb(0,0,0)"  stroke-width="4.0"/>
<line x1="194.8" y1="194.1" x2="194.8" y2="144.7" opacity="1.0" stroke="rgb(0,0,0)"  stroke-width="4.0"/>
<line x1="194.8" y1="144.7" x2="163.3" y2="126.5" opacity="1.0" stroke="rgb(0,0,0)"  stroke-width="4.0"/>
<line x1="397.4" y1="274.6" x2="365.9" y2="292.8" opacity="1.0" stroke="rgb(0,0,0)"  stroke-width="4.0"/>
<line x1="365.9" y1="292.8" x2="365.9" y2="342.2" opacity="1.0" stroke="rgb(0,0,0)"  stroke-width="4.0"/>
<line x1="365.9" y1="342.2" x2="408.6" y2="366.9" opacity="1.0" stroke="rgb(0,0,0)"  stroke-width="4.0"/>
<line x1="408.6" y1="366.9" x2="451.4" y2="342.2" opacity="1.0" stroke="rgb(0,0,0)"  stroke-width="4.0"/>
<line x1="451.4" y1="342.2" x2="451.4" y2="292.8" opacity="1.0" stroke="rgb(0,0,0)"  stroke-width="4.0"/>
<line x1="451.4" y1="292.8" x2="419.9" y2="274.6" opacity="1.0" stroke="rgb(0,0,0)"  stroke-width="4.0"/>
<text x="103.284269" y="232.692206" fill="rgb(191,191,191)" stroke-width="0" font-weight="bold" font-size="16" >H</text>
<text x="286.499925" y="78.617425" fill="rgb(191,191,191)" stroke-width="0" font-weight="bold" font-size="16" >H</text>
<text x="317.117349" y="48.000000" fill="rgb(191,191,191)" stroke-width="0" font-weight="bold" font-size="16" >H</text>
<text x="347.734774" y="78.617425" fill="rgb(191,191,191)" stroke-width="0" font-weight="bold" font-size="16" >H</text>
<text x="445.419173" y="270.223243" fill="rgb(191,191,191)" stroke-width="0" font-weight="bold" font-size="16" >H</text>
<text x="103.284269" y="122.074414" fill="rgb(191,191,191)" stroke-width="0" font-weight="bold" font-size="16" >H</text>
<text x="445.419173" y="380.841034" fill="rgb(191,191,191)" stroke-width="0" font-weight="bold" font-size="16" >H</text>
<text x="376.134904" y="390.223794" fill="rgb(191,191,191)" stroke-width="0" font-weight="bold" font-size="16" >H</text>
<text x="188.815526" y="122.074414" fill="rgb(191,191,191)" stroke-width="0" font-weight="bold" font-size="16" >H</text>
<text x="429.167247" y="211.457541" fill="rgb(191,191,191)" stroke-width="0" font-weight="bold" font-size="16" >H</text>
<text x="359.882978" y="380.841034" fill="rgb(191,191,191)" stroke-width="0" font-weight="bold" font-size="16" >H</text>
<text x="333.369276" y="316.149379" fill="rgb(191,191,191)" stroke-width="0" font-weight="bold" font-size="16" >H</text>
<text x="119.531257" y="242.074965" fill="rgb(191,191,191)" stroke-width="0" font-weight="bold" font-size="16" >H</text>
<text x="290.603647" y="112.691655" fill="rgb(191,191,191)" stroke-width="0" font-weight="bold" font-size="16" >H</text>
<text x="188.815526" y="232.692206" fill="rgb(191,191,191)" stroke-width="0" font-weight="bold" font-size="16" >H</text>
<text x="359.882978" y="122.074414" fill="rgb(191,191,191)" stroke-width="0" font-weight="bold" font-size="16" >H</text>
<text x="386.396680" y="186.766069" fill="rgb(191,191,191)" stroke-width="0" font-weight="bold" font-size="16" >H</text>
<text x="274.351721" y="232.692206" fill="rgb(191,191,191)" stroke-width="0" font-weight="bold" font-size="16" >H</text>
<text x="75.822414" y="101.486665" fill="rgb(191,191,191)" stroke-width="0" font-weight="bold" font-size="16" >H</text>
<text x="34.000000" y="112.691655" fill="rgb(191,191,191)" stroke-width="0" font-weight="bold" font-size="16" >H</text>
<text x="45.204990" y="154.514069" fill="rgb(191,191,191)" stroke-width="0" font-weight="bold" font-size="16" >H</text>
<text x="503.493514" y="302.662898" fill="rgb(191,191,191)" stroke-width="0" font-weight="bold" font-size="16" >H</text>
<text x="514.698503" y="260.840483" fill="rgb(191,191,191)" stroke-width="0" font-weight="bold" font-size="16" >H</text>
<text x="472.876089" y="249.635494" fill="rgb(191,191,191)" stroke-width="0" font-weight="bold" font-size="16" >H</text>
<text x="402.648606" y="97.382943" fill="rgb(191,191,191)" stroke-width="0" font-weight="bold" font-size="16" >H</text>
<text x="119.531257" y="291.457908" fill="rgb(191,191,191)" stroke-width="0" font-weight="bold" font-size="16" >H</text>
<text x="317.117349" y="405.532506" fill="rgb(191,191,191)" stroke-width="0" font-weight="bold" font-size="16" >H</text>
<text x="34.000000" y="211.457541" fill="rgb(191,191,191)" stroke-width="0" font-weight="bold" font-size="16" >H</text>
<text x="429.167247" y="439.606736" fill="rgb(191,191,191)" stroke-width="0" font-weight="bold" font-size="16" >H</text>
<text x="514.698503" y="359.606369" fill="rgb(191,191,191)" stroke-width="0" font-weight="bold" font-size="16" >H</text>
<text x="262.198579" y="78.617425" fill="rgb(191,191,191)" stroke-width="0" font-weight="bold" font-size="16" >H</text>
<text x="231.581154" y="48.000000" fill="rgb(191,191,191)" stroke-width="0" font-weight="bold" font-size="16" >H</text>
<text x="200.963730" y="78.617425" fill="rgb(191,191,191)" stroke-width="0" font-weight="bold" font-size="16" >H</text>
<text x="231.581154" y="128.000367" fill="rgb(255,12,12)" stroke-width="0" font-weight="bold" font-size="16" >O</text>
<text x="488.184801" y="374.915081" fill="rgb(255,12,12)" stroke-width="0" font-weight="bold" font-size="16" >O</text>
<text x="402.648606" y="424.298024" fill="rgb(255,12,12)" stroke-width="0" font-weight="bold" font-size="16" >O</text>
<text x="60.513702" y="226.766253" fill="rgb(255,12,12)" stroke-width="0" font-weight="bold" font-size="16" >O</text>
<text x="317.117349" y="374.915081" fill="rgb(255,12,12)" stroke-width="0" font-weight="bold" font-size="16" >O</text>
<text x="146.049897" y="276.149196" fill="rgb(255,12,12)" stroke-width="0" font-weight="bold" font-size="16" >O</text>
<text x="402.648606" y="128.000367" fill="rgb(255,12,12)" stroke-width="0" font-weight="bold" font-size="16" >O</text>
<text x="402.648606" y="226.766253" fill="rgb(255,12,12)" stroke-width="0" font-weight="bold" font-size="16" >O</text>
<text x="146.049897" y="128.000367" fill="rgb(255,12,12)" stroke-width="0" font-weight="bold" font-size="16" >O</text>
<text x="402.648606" y="276.149196" fill="rgb(255,12,12)" stroke-width="0" font-weight="bold" font-size="16" >O</text>
<text x="274.351721" y="152.691839" fill="rgb(255,12,12)" stroke-width="0" font-weight="bold" font-size="16" >O</text>
<text x="317.117349" y="276.149196" fill="rgb(255,12,12)" stroke-width="0" font-weight="bold" font-size="16" >O</text>
<text x="231.581154" y="226.766253" fill="rgb(255,12,12)" stroke-width="0" font-weight="bold" font-size="16" >O</text>
<text x="343.631051" y="242.074965" fill="rgb(191,191,191)" stroke-width="0" font-weight="bold" font-size="16" >H</text>
</svg>
</g>
<text font-size="18.000000" fill ="black" font-family="sans-serif"
x="10.000000" y="20.000000" ></text>
</svg>
