<?xml version="1.0"?>
<svg version="1.1" id="topsvg"
xmlns="http://www.w3.org/2000/svg" xmlns:xlink="http://www.w3.org/1999/xlink"
xmlns:cml="http://www.xml-cml.org/schema" x="0" y="0" width="200px" height="200px" viewBox="0 0 100 100">
<title> - Open Babel Depiction</title>
<rect x="0" y="0" width="100" height="100" fill="transparent"/>
<g transform="translate(0,0)">
<svg width="100" height="100" x="0" y="0" viewBox="0 0 705.311 206.764"
font-family="sans-serif" stroke="rgb(0,0,0)" stroke-width="2"  stroke-linecap="round">
<line x1="371.6" y1="153.8" x2="371.6" y2="116.1" opacity="1.0" stroke="rgb(0,0,0)"  stroke-width="4.0"/>
<line x1="377.6" y1="153.8" x2="377.6" y2="116.1" opacity="1.0" stroke="rgb(0,0,0)"  stroke-width="4.0"/>
<line x1="78.5" y1="97.2" x2="111.1" y2="116.1" opacity="1.0" stroke="rgb(0,0,0)"  stroke-width="4.0"/>
<line x1="56.0" y1="97.2" x2="51.3" y2="99.9" opacity="1.0" stroke="rgb(0,0,0)"  stroke-width="4.0"/>
<line x1="626.8" y1="109.6" x2="594.2" y2="90.7" opacity="1.0" stroke="rgb(0,0,0)"  stroke-width="4.0"/>
<line x1="649.3" y1="109.6" x2="654.1" y2="106.8" opacity="1.0" stroke="rgb(0,0,0)"  stroke-width="4.0"/>
<line x1="108.1" y1="153.8" x2="108.1" y2="116.1" opacity="1.0" stroke="rgb(0,0,0)"  stroke-width="4.0"/>
<line x1="114.1" y1="153.8" x2="114.1" y2="116.1" opacity="1.0" stroke="rgb(0,0,0)"  stroke-width="4.0"/>
<line x1="597.2" y1="53.0" x2="597.2" y2="90.7" opacity="1.0" stroke="rgb(0,0,0)"  stroke-width="4.0"/>
<line x1="591.2" y1="53.0" x2="591.2" y2="90.7" opacity="1.0" stroke="rgb(0,0,0)"  stroke-width="4.0"/>
<line x1="286.8" y1="116.1" x2="242.9" y2="90.7" opacity="1.0" stroke="rgb(0,0,0)"  stroke-width="4.0"/>
<line x1="286.8" y1="116.1" x2="330.7" y2="90.7" opacity="1.0" stroke="rgb(0,0,0)"  stroke-width="4.0"/>
<line x1="286.8" y1="116.1" x2="274.9" y2="130.2" opacity="1.0" stroke="rgb(0,0,0)"  stroke-width="4.0"/>
<line x1="286.8" y1="116.1" x2="298.6" y2="130.2" opacity="1.0" stroke="rgb(0,0,0)"  stroke-width="4.0"/>
<line x1="242.9" y1="90.7" x2="199.0" y2="116.1" opacity="1.0" stroke="rgb(0,0,0)"  stroke-width="4.0"/>
<line x1="242.9" y1="90.7" x2="254.7" y2="76.6" opacity="1.0" stroke="rgb(0,0,0)"  stroke-width="4.0"/>
<line x1="242.9" y1="90.7" x2="231.0" y2="76.6" opacity="1.0" stroke="rgb(0,0,0)"  stroke-width="4.0"/>
<line x1="330.7" y1="90.7" x2="374.6" y2="116.1" opacity="1.0" stroke="rgb(0,0,0)"  stroke-width="4.0"/>
<line x1="330.7" y1="90.7" x2="342.5" y2="76.6" opacity="1.0" stroke="rgb(0,0,0)"  stroke-width="4.0"/>
<line x1="330.7" y1="90.7" x2="318.9" y2="76.6" opacity="1.0" stroke="rgb(0,0,0)"  stroke-width="4.0"/>
<line x1="418.5" y1="90.7" x2="462.4" y2="116.1" opacity="1.0" stroke="rgb(0,0,0)"  stroke-width="4.0"/>
<line x1="418.5" y1="90.7" x2="374.6" y2="116.1" opacity="1.0" stroke="rgb(0,0,0)"  stroke-width="4.0"/>
<line x1="418.5" y1="90.7" x2="430.4" y2="76.6" opacity="1.0" stroke="rgb(0,0,0)"  stroke-width="4.0"/>
<line x1="418.5" y1="90.7" x2="406.7" y2="76.6" opacity="1.0" stroke="rgb(0,0,0)"  stroke-width="4.0"/>
<line x1="462.4" y1="116.1" x2="506.3" y2="90.7" opacity="1.0" stroke="rgb(0,0,0)"  stroke-width="4.0"/>
<line x1="462.4" y1="116.1" x2="450.6" y2="130.2" opacity="1.0" stroke="rgb(0,0,0)"  stroke-width="4.0"/>
<line x1="462.4" y1="116.1" x2="474.3" y2="130.2" opacity="1.0" stroke="rgb(0,0,0)"  stroke-width="4.0"/>
<line x1="199.0" y1="116.1" x2="155.1" y2="90.7" opacity="1.0" stroke="rgb(0,0,0)"  stroke-width="4.0"/>
<line x1="199.0" y1="116.1" x2="187.1" y2="130.2" opacity="1.0" stroke="rgb(0,0,0)"  stroke-width="4.0"/>
<line x1="199.0" y1="116.1" x2="210.8" y2="130.2" opacity="1.0" stroke="rgb(0,0,0)"  stroke-width="4.0"/>
<line x1="506.3" y1="90.7" x2="550.3" y2="116.1" opacity="1.0" stroke="rgb(0,0,0)"  stroke-width="4.0"/>
<line x1="506.3" y1="90.7" x2="518.2" y2="76.6" opacity="1.0" stroke="rgb(0,0,0)"  stroke-width="4.0"/>
<line x1="506.3" y1="90.7" x2="494.5" y2="76.6" opacity="1.0" stroke="rgb(0,0,0)"  stroke-width="4.0"/>
<line x1="155.1" y1="90.7" x2="111.1" y2="116.1" opacity="1.0" stroke="rgb(0,0,0)"  stroke-width="4.0"/>
<line x1="155.1" y1="90.7" x2="166.9" y2="76.6" opacity="1.0" stroke="rgb(0,0,0)"  stroke-width="4.0"/>
<line x1="155.1" y1="90.7" x2="143.2" y2="76.6" opacity="1.0" stroke="rgb(0,0,0)"  stroke-width="4.0"/>
<line x1="550.3" y1="116.1" x2="594.2" y2="90.7" opacity="1.0" stroke="rgb(0,0,0)"  stroke-width="4.0"/>
<line x1="550.3" y1="116.1" x2="538.4" y2="130.2" opacity="1.0" stroke="rgb(0,0,0)"  stroke-width="4.0"/>
<line x1="550.3" y1="116.1" x2="562.1" y2="130.2" opacity="1.0" stroke="rgb(0,0,0)"  stroke-width="4.0"/>
<text x="213.167971" y="148.138341" fill="rgb(191,191,191)" stroke-width="0" font-weight="bold" font-size="16" >H</text>
<text x="257.084026" y="74.625471" fill="rgb(191,191,191)" stroke-width="0" font-weight="bold" font-size="16" >H</text>
<text x="216.666653" y="74.625471" fill="rgb(191,191,191)" stroke-width="0" font-weight="bold" font-size="16" >H</text>
<text x="344.905995" y="74.625471" fill="rgb(191,191,191)" stroke-width="0" font-weight="bold" font-size="16" >H</text>
<text x="304.493692" y="74.625471" fill="rgb(191,191,191)" stroke-width="0" font-weight="bold" font-size="16" >H</text>
<text x="432.733034" y="74.625471" fill="rgb(191,191,191)" stroke-width="0" font-weight="bold" font-size="16" >H</text>
<text x="392.315661" y="74.625471" fill="rgb(191,191,191)" stroke-width="0" font-weight="bold" font-size="16" >H</text>
<text x="436.226645" y="148.138341" fill="rgb(191,191,191)" stroke-width="0" font-weight="bold" font-size="16" >H</text>
<text x="476.644019" y="148.138341" fill="rgb(191,191,191)" stroke-width="0" font-weight="bold" font-size="16" >H</text>
<text x="172.755668" y="148.138341" fill="rgb(191,191,191)" stroke-width="0" font-weight="bold" font-size="16" >H</text>
<text x="300.995011" y="148.138341" fill="rgb(191,191,191)" stroke-width="0" font-weight="bold" font-size="16" >H</text>
<text x="520.555003" y="74.625471" fill="rgb(191,191,191)" stroke-width="0" font-weight="bold" font-size="16" >H</text>
<text x="480.142700" y="74.625471" fill="rgb(191,191,191)" stroke-width="0" font-weight="bold" font-size="16" >H</text>
<text x="169.256987" y="74.625471" fill="rgb(191,191,191)" stroke-width="0" font-weight="bold" font-size="16" >H</text>
<text x="128.844684" y="74.625471" fill="rgb(191,191,191)" stroke-width="0" font-weight="bold" font-size="16" >H</text>
<text x="524.053684" y="148.138341" fill="rgb(191,191,191)" stroke-width="0" font-weight="bold" font-size="16" >H</text>
<text x="564.465987" y="148.138341" fill="rgb(191,191,191)" stroke-width="0" font-weight="bold" font-size="16" >H</text>
<text x="34.000000" y="114.424237" fill="rgb(191,191,191)" stroke-width="0" font-weight="bold" font-size="16" >H</text>
<text x="659.310671" y="108.339574" fill="rgb(191,191,191)" stroke-width="0" font-weight="bold" font-size="16" >H</text>
<text x="61.223796" y="98.705525" fill="rgb(255,12,12)" stroke-width="0" font-weight="bold" font-size="16" >O</text>
<text x="632.086875" y="124.058287" fill="rgb(255,12,12)" stroke-width="0" font-weight="bold" font-size="16" >O</text>
<text x="105.139851" y="174.763812" fill="rgb(255,12,12)" stroke-width="0" font-weight="bold" font-size="16" >O</text>
<text x="588.170820" y="48.000000" fill="rgb(255,12,12)" stroke-width="0" font-weight="bold" font-size="16" >O</text>
<text x="368.610828" y="174.763812" fill="rgb(255,12,12)" stroke-width="0" font-weight="bold" font-size="16" >O</text>
<text x="260.577637" y="148.138341" fill="rgb(191,191,191)" stroke-width="0" font-weight="bold" font-size="16" >H</text>
</svg>
</g>
<text font-size="18.000000" fill ="black" font-family="sans-serif"
x="10.000000" y="20.000000" ></text>
</svg>
