<?xml version="1.0"?>
<svg version="1.1" id="topsvg"
xmlns="http://www.w3.org/2000/svg" xmlns:xlink="http://www.w3.org/1999/xlink"
xmlns:cml="http://www.xml-cml.org/schema" x="0" y="0" width="200px" height="200px" viewBox="0 0 100 100">
<title> - Open Babel Depiction</title>
<rect x="0" y="0" width="100" height="100" fill="transparent"/>
<g transform="translate(0,0)">
<svg width="100" height="100" x="0" y="0" viewBox="0 0 547.525 341.319"
font-family="sans-serif" stroke="rgb(0,0,0)" stroke-width="2"  stroke-linecap="round">
<line x1="273.8" y1="69.6" x2="273.8" y2="104.0" opacity="1.0" stroke="rgb(0,0,0)"  stroke-width="4.0"/>
<line x1="285.0" y1="50.1" x2="287.9" y2="48.4" opacity="1.0" stroke="rgb(0,0,0)"  stroke-width="4.0"/>
<line x1="190.8" y1="68.0" x2="190.4" y2="102.4" opacity="1.0" stroke="rgb(0,0,0)"  stroke-width="4.0"/>
<line x1="179.7" y1="48.4" x2="176.8" y2="46.6" opacity="1.0" stroke="rgb(0,0,0)"  stroke-width="4.0"/>
<line x1="356.8" y1="68.0" x2="357.2" y2="102.4" opacity="1.0" stroke="rgb(0,0,0)"  stroke-width="4.0"/>
<line x1="367.8" y1="48.4" x2="370.7" y2="46.6" opacity="1.0" stroke="rgb(0,0,0)"  stroke-width="4.0"/>
<line x1="386.2" y1="265.3" x2="356.6" y2="247.8" opacity="1.0" stroke="rgb(0,0,0)"  stroke-width="4.0"/>
<line x1="397.2" y1="284.9" x2="397.2" y2="288.3" opacity="1.0" stroke="rgb(0,0,0)"  stroke-width="4.0"/>
<line x1="161.3" y1="265.3" x2="190.9" y2="247.8" opacity="1.0" stroke="rgb(0,0,0)"  stroke-width="4.0"/>
<line x1="150.3" y1="284.9" x2="150.4" y2="288.3" opacity="1.0" stroke="rgb(0,0,0)"  stroke-width="4.0"/>
<line x1="76.7" y1="119.9" x2="106.5" y2="102.9" opacity="1.0" stroke="rgb(0,0,0)"  stroke-width="4.0"/>
<line x1="54.1" y1="119.8" x2="51.2" y2="118.1" opacity="1.0" stroke="rgb(0,0,0)"  stroke-width="4.0"/>
<line x1="470.9" y1="119.9" x2="441.0" y2="102.9" opacity="1.0" stroke="rgb(0,0,0)"  stroke-width="4.0"/>
<line x1="493.4" y1="119.8" x2="496.3" y2="118.1" opacity="1.0" stroke="rgb(0,0,0)"  stroke-width="4.0"/>
<line x1="273.8" y1="198.8" x2="273.8" y2="246.1" opacity="1.0" stroke="rgb(0,0,0)"  stroke-width="4.0"/>
<line x1="357.2" y1="200.4" x2="356.6" y2="247.8" opacity="1.0" stroke="rgb(0,0,0)"  stroke-width="4.0"/>
<line x1="190.4" y1="200.4" x2="190.9" y2="247.8" opacity="1.0" stroke="rgb(0,0,0)"  stroke-width="4.0"/>
<line x1="273.8" y1="246.1" x2="232.7" y2="269.8" opacity="1.0" stroke="rgb(0,0,0)"  stroke-width="4.0"/>
<line x1="273.8" y1="246.1" x2="279.4" y2="261.5" opacity="1.0" stroke="rgb(0,0,0)"  stroke-width="4.0"/>
<line x1="273.8" y1="246.1" x2="289.9" y2="243.3" opacity="1.0" stroke="rgb(0,0,0)"  stroke-width="4.0"/>
<line x1="147.4" y1="126.7" x2="106.5" y2="102.9" opacity="1.0" stroke="rgb(0,0,0)"  stroke-width="4.0"/>
<line x1="400.1" y1="126.7" x2="441.0" y2="102.9" opacity="1.0" stroke="rgb(0,0,0)"  stroke-width="4.0"/>
<line x1="400.1" y1="176.1" x2="414.2" y2="184.3" opacity="1.0" stroke="rgb(0,0,0)"  stroke-width="4.0"/>
<line x1="147.4" y1="176.1" x2="133.3" y2="184.3" opacity="1.0" stroke="rgb(0,0,0)"  stroke-width="4.0"/>
<line x1="356.6" y1="247.8" x2="340.5" y2="244.8" opacity="1.0" stroke="rgb(0,0,0)"  stroke-width="4.0"/>
<line x1="356.6" y1="247.8" x2="350.8" y2="263.1" opacity="1.0" stroke="rgb(0,0,0)"  stroke-width="4.0"/>
<line x1="190.9" y1="247.8" x2="196.7" y2="263.1" opacity="1.0" stroke="rgb(0,0,0)"  stroke-width="4.0"/>
<line x1="190.9" y1="247.8" x2="207.0" y2="244.8" opacity="1.0" stroke="rgb(0,0,0)"  stroke-width="4.0"/>
<line x1="232.7" y1="269.8" x2="224.5" y2="255.6" opacity="1.0" stroke="rgb(0,0,0)"  stroke-width="4.0"/>
<line x1="232.7" y1="269.8" x2="218.5" y2="278.0" opacity="1.0" stroke="rgb(0,0,0)"  stroke-width="4.0"/>
<line x1="232.7" y1="269.8" x2="240.9" y2="284.0" opacity="1.0" stroke="rgb(0,0,0)"  stroke-width="4.0"/>
<line x1="106.5" y1="102.9" x2="117.1" y2="90.4" opacity="1.0" stroke="rgb(0,0,0)"  stroke-width="4.0"/>
<line x1="106.5" y1="102.9" x2="96.0" y2="90.3" opacity="1.0" stroke="rgb(0,0,0)"  stroke-width="4.0"/>
<line x1="441.0" y1="102.9" x2="451.5" y2="90.3" opacity="1.0" stroke="rgb(0,0,0)"  stroke-width="4.0"/>
<line x1="441.0" y1="102.9" x2="430.4" y2="90.4" opacity="1.0" stroke="rgb(0,0,0)"  stroke-width="4.0"/>
<line x1="273.8" y1="198.8" x2="232.7" y2="175.1" opacity="1.0" stroke="rgb(0,0,0)"  stroke-width="4.0"/>
<line x1="232.7" y1="175.1" x2="232.7" y2="127.7" opacity="1.0" stroke="rgb(0,0,0)"  stroke-width="4.0"/>
<line x1="239.9" y1="169.1" x2="239.9" y2="133.7" opacity="1.0" stroke="rgb(0,0,0)"  stroke-width="4.0"/>
<line x1="232.7" y1="127.7" x2="273.8" y2="104.0" opacity="1.0" stroke="rgb(0,0,0)"  stroke-width="4.0"/>
<line x1="273.8" y1="104.0" x2="314.8" y2="127.7" opacity="1.0" stroke="rgb(0,0,0)"  stroke-width="4.0"/>
<line x1="275.4" y1="113.2" x2="306.0" y2="130.9" opacity="1.0" stroke="rgb(0,0,0)"  stroke-width="4.0"/>
<line x1="314.8" y1="127.7" x2="314.8" y2="175.1" opacity="1.0" stroke="rgb(0,0,0)"  stroke-width="4.0"/>
<line x1="314.8" y1="175.1" x2="273.8" y2="198.8" opacity="1.0" stroke="rgb(0,0,0)"  stroke-width="4.0"/>
<line x1="306.0" y1="171.8" x2="275.4" y2="189.5" opacity="1.0" stroke="rgb(0,0,0)"  stroke-width="4.0"/>
<line x1="232.7" y1="175.1" x2="190.4" y2="200.4" opacity="1.0" stroke="rgb(0,0,0)"  stroke-width="4.0"/>
<line x1="190.4" y1="200.4" x2="147.4" y2="176.1" opacity="1.0" stroke="rgb(0,0,0)"  stroke-width="4.0"/>
<line x1="188.7" y1="191.2" x2="156.2" y2="172.8" opacity="1.0" stroke="rgb(0,0,0)"  stroke-width="4.0"/>
<line x1="147.4" y1="176.1" x2="147.4" y2="126.7" opacity="1.0" stroke="rgb(0,0,0)"  stroke-width="4.0"/>
<line x1="147.4" y1="126.7" x2="190.4" y2="102.4" opacity="1.0" stroke="rgb(0,0,0)"  stroke-width="4.0"/>
<line x1="156.2" y1="130.0" x2="188.7" y2="111.6" opacity="1.0" stroke="rgb(0,0,0)"  stroke-width="4.0"/>
<line x1="190.4" y1="102.4" x2="232.7" y2="127.7" opacity="1.0" stroke="rgb(0,0,0)"  stroke-width="4.0"/>
<line x1="314.8" y1="127.7" x2="357.2" y2="102.4" opacity="1.0" stroke="rgb(0,0,0)"  stroke-width="4.0"/>
<line x1="357.2" y1="102.4" x2="400.1" y2="126.7" opacity="1.0" stroke="rgb(0,0,0)"  stroke-width="4.0"/>
<line x1="358.8" y1="111.6" x2="391.3" y2="130.0" opacity="1.0" stroke="rgb(0,0,0)"  stroke-width="4.0"/>
<line x1="400.1" y1="126.7" x2="400.1" y2="176.1" opacity="1.0" stroke="rgb(0,0,0)"  stroke-width="4.0"/>
<line x1="400.1" y1="176.1" x2="357.2" y2="200.4" opacity="1.0" stroke="rgb(0,0,0)"  stroke-width="4.0"/>
<line x1="391.3" y1="172.8" x2="358.8" y2="191.2" opacity="1.0" stroke="rgb(0,0,0)"  stroke-width="4.0"/>
<line x1="357.2" y1="200.4" x2="314.8" y2="175.1" opacity="1.0" stroke="rgb(0,0,0)"  stroke-width="4.0"/>
<text x="241.419393" y="303.273015" fill="rgb(191,191,191)" stroke-width="0" font-weight="bold" font-size="16" >H</text>
<text x="277.811835" y="281.743623" fill="rgb(191,191,191)" stroke-width="0" font-weight="bold" font-size="16" >H</text>
<text x="296.692695" y="249.042068" fill="rgb(191,191,191)" stroke-width="0" font-weight="bold" font-size="16" >H</text>
<text x="419.463295" y="198.843145" fill="rgb(191,191,191)" stroke-width="0" font-weight="bold" font-size="16" >H</text>
<text x="116.061855" y="198.843145" fill="rgb(191,191,191)" stroke-width="0" font-weight="bold" font-size="16" >H</text>
<text x="321.732932" y="250.345014" fill="rgb(191,191,191)" stroke-width="0" font-weight="bold" font-size="16" >H</text>
<text x="340.234753" y="283.264515" fill="rgb(191,191,191)" stroke-width="0" font-weight="bold" font-size="16" >H</text>
<text x="195.290396" y="283.264515" fill="rgb(191,191,191)" stroke-width="0" font-weight="bold" font-size="16" >H</text>
<text x="213.792217" y="250.345014" fill="rgb(191,191,191)" stroke-width="0" font-weight="bold" font-size="16" >H</text>
<text x="212.043902" y="252.391822" fill="rgb(191,191,191)" stroke-width="0" font-weight="bold" font-size="16" >H</text>
<text x="201.288682" y="292.517795" fill="rgb(191,191,191)" stroke-width="0" font-weight="bold" font-size="16" >H</text>
<text x="119.473202" y="88.429204" fill="rgb(191,191,191)" stroke-width="0" font-weight="bold" font-size="16" >H</text>
<text x="81.711483" y="88.282326" fill="rgb(191,191,191)" stroke-width="0" font-weight="bold" font-size="16" >H</text>
<text x="453.813667" y="88.282326" fill="rgb(191,191,191)" stroke-width="0" font-weight="bold" font-size="16" >H</text>
<text x="416.051947" y="88.429204" fill="rgb(191,191,191)" stroke-width="0" font-weight="bold" font-size="16" >H</text>
<text x="293.200802" y="49.933097" fill="rgb(191,191,191)" stroke-width="0" font-weight="bold" font-size="16" >H</text>
<text x="159.656031" y="48.000000" fill="rgb(191,191,191)" stroke-width="0" font-weight="bold" font-size="16" >H</text>
<text x="375.869119" y="48.000000" fill="rgb(191,191,191)" stroke-width="0" font-weight="bold" font-size="16" >H</text>
<text x="391.016449" y="309.318680" fill="rgb(191,191,191)" stroke-width="0" font-weight="bold" font-size="16" >H</text>
<text x="144.508701" y="309.318680" fill="rgb(191,191,191)" stroke-width="0" font-weight="bold" font-size="16" >H</text>
<text x="34.000000" y="119.605128" fill="rgb(191,191,191)" stroke-width="0" font-weight="bold" font-size="16" >H</text>
<text x="501.525150" y="119.605128" fill="rgb(191,191,191)" stroke-width="0" font-weight="bold" font-size="16" >H</text>
<text x="184.923691" y="62.981500" fill="rgb(255,12,12)" stroke-width="0" font-weight="bold" font-size="16" >O</text>
<text x="350.601459" y="62.981500" fill="rgb(255,12,12)" stroke-width="0" font-weight="bold" font-size="16" >O</text>
<text x="391.357583" y="279.943190" fill="rgb(255,12,12)" stroke-width="0" font-weight="bold" font-size="16" >O</text>
<text x="144.167566" y="279.943190" fill="rgb(255,12,12)" stroke-width="0" font-weight="bold" font-size="16" >O</text>
<text x="59.381372" y="134.387633" fill="rgb(255,12,12)" stroke-width="0" font-weight="bold" font-size="16" >O</text>
<text x="476.143778" y="134.387633" fill="rgb(255,12,12)" stroke-width="0" font-weight="bold" font-size="16" >O</text>
<text x="267.762575" y="64.620842" fill="rgb(255,12,12)" stroke-width="0" font-weight="bold" font-size="16" >O</text>
</svg>
</g>
<text font-size="18.000000" fill ="black" font-family="sans-serif"
x="10.000000" y="20.000000" ></text>
</svg>
