<?xml version="1.0"?>
<svg version="1.1" id="topsvg"
xmlns="http://www.w3.org/2000/svg" xmlns:xlink="http://www.w3.org/1999/xlink"
xmlns:cml="http://www.xml-cml.org/schema" x="0" y="0" width="200px" height="200px" viewBox="0 0 100 100">
<title> - Open Babel Depiction</title>
<rect x="0" y="0" width="100" height="100" fill="transparent"/>
<g transform="translate(0,0)">
<svg width="100" height="100" x="0" y="0" viewBox="0 0 521.352 495.425"
font-family="sans-serif" stroke="rgb(0,0,0)" stroke-width="2"  stroke-linecap="round">
<line x1="315.1" y1="161.7" x2="315.1" y2="196.7" opacity="1.0" stroke="rgb(0,0,0)"  stroke-width="4.0"/>
<line x1="273.6" y1="233.7" x2="303.9" y2="216.2" opacity="1.0" stroke="rgb(0,0,0)"  stroke-width="4.0"/>
<line x1="356.7" y1="137.7" x2="387.0" y2="155.2" opacity="1.0" stroke="rgb(0,0,0)"  stroke-width="4.0"/>
<line x1="409.5" y1="155.2" x2="439.8" y2="137.7" opacity="1.0" stroke="rgb(0,0,0)"  stroke-width="4.0"/>
<line x1="273.6" y1="281.7" x2="303.9" y2="299.2" opacity="1.0" stroke="rgb(0,0,0)"  stroke-width="4.0"/>
<line x1="315.1" y1="318.7" x2="315.1" y2="353.7" opacity="1.0" stroke="rgb(0,0,0)"  stroke-width="4.0"/>
<line x1="232.0" y1="305.7" x2="232.0" y2="340.7" opacity="1.0" stroke="rgb(0,0,0)"  stroke-width="4.0"/>
<line x1="220.7" y1="360.2" x2="190.4" y2="377.7" opacity="1.0" stroke="rgb(0,0,0)"  stroke-width="4.0"/>
<line x1="190.4" y1="281.7" x2="160.1" y2="299.2" opacity="1.0" stroke="rgb(0,0,0)"  stroke-width="4.0"/>
<line x1="137.6" y1="299.2" x2="107.3" y2="281.7" opacity="1.0" stroke="rgb(0,0,0)"  stroke-width="4.0"/>
<line x1="148.9" y1="174.7" x2="148.9" y2="209.7" opacity="1.0" stroke="rgb(0,0,0)"  stroke-width="4.0"/>
<line x1="137.6" y1="155.2" x2="107.3" y2="137.7" opacity="1.0" stroke="rgb(0,0,0)"  stroke-width="4.0"/>
<line x1="468.6" y1="157.8" x2="438.3" y2="140.3" opacity="1.0" stroke="rgb(0,0,0)"  stroke-width="4.0"/>
<line x1="471.6" y1="152.6" x2="441.3" y2="135.1" opacity="1.0" stroke="rgb(0,0,0)"  stroke-width="4.0"/>
<line x1="283.3" y1="368.6" x2="313.6" y2="351.1" opacity="1.0" stroke="rgb(0,0,0)"  stroke-width="4.0"/>
<line x1="286.3" y1="373.8" x2="316.6" y2="356.3" opacity="1.0" stroke="rgb(0,0,0)"  stroke-width="4.0"/>
<line x1="161.6" y1="357.6" x2="191.9" y2="375.1" opacity="1.0" stroke="rgb(0,0,0)"  stroke-width="4.0"/>
<line x1="158.6" y1="362.8" x2="188.9" y2="380.3" opacity="1.0" stroke="rgb(0,0,0)"  stroke-width="4.0"/>
<line x1="110.3" y1="246.7" x2="110.3" y2="281.7" opacity="1.0" stroke="rgb(0,0,0)"  stroke-width="4.0"/>
<line x1="104.3" y1="246.7" x2="104.3" y2="281.7" opacity="1.0" stroke="rgb(0,0,0)"  stroke-width="4.0"/>
<line x1="75.5" y1="152.6" x2="105.8" y2="135.1" opacity="1.0" stroke="rgb(0,0,0)"  stroke-width="4.0"/>
<line x1="78.5" y1="157.8" x2="108.8" y2="140.3" opacity="1.0" stroke="rgb(0,0,0)"  stroke-width="4.0"/>
<line x1="312.1" y1="164.4" x2="311.3" y2="163.0" opacity="1.0" stroke="rgb(0,0,0)"  stroke-width="1.0"/>
<line x1="309.6" y1="166.6" x2="308.2" y2="164.1" opacity="1.0" stroke="rgb(0,0,0)"  stroke-width="1.0"/>
<line x1="307.2" y1="168.7" x2="305.1" y2="165.1" opacity="1.0" stroke="rgb(0,0,0)"  stroke-width="1.0"/>
<line x1="304.7" y1="170.9" x2="302.0" y2="166.2" opacity="1.0" stroke="rgb(0,0,0)"  stroke-width="1.0"/>
<line x1="302.3" y1="173.0" x2="298.9" y2="167.2" opacity="1.0" stroke="rgb(0,0,0)"  stroke-width="1.0"/>
<line x1="299.9" y1="175.2" x2="295.9" y2="168.2" opacity="1.0" stroke="rgb(0,0,0)"  stroke-width="1.0"/>
<line x1="273.8" y1="143.3" x2="272.2" y2="143.1" opacity="1.0" stroke="rgb(0,0,0)"  stroke-width="1.0"/>
<line x1="273.9" y1="147.7" x2="271.1" y2="147.4" opacity="1.0" stroke="rgb(0,0,0)"  stroke-width="1.0"/>
<line x1="274.1" y1="152.1" x2="270.0" y2="151.7" opacity="1.0" stroke="rgb(0,0,0)"  stroke-width="1.0"/>
<line x1="274.3" y1="156.5" x2="268.9" y2="155.9" opacity="1.0" stroke="rgb(0,0,0)"  stroke-width="1.0"/>
<line x1="274.5" y1="160.9" x2="267.8" y2="160.2" opacity="1.0" stroke="rgb(0,0,0)"  stroke-width="1.0"/>
<line x1="274.6" y1="165.3" x2="266.7" y2="164.5" opacity="1.0" stroke="rgb(0,0,0)"  stroke-width="1.0"/>
<polygon points="356.675620 137.746143 360.675620 157.680233 352.675620 157.680233 " stroke-width="2.000000" fill="rgb(0,0,0)"  stroke="rgb(0,0,0)" />
<line x1="272.2" y1="84.4" x2="273.8" y2="84.2" opacity="1.0" stroke="rgb(0,0,0)"  stroke-width="1.0"/>
<line x1="271.1" y1="80.1" x2="273.9" y2="79.8" opacity="1.0" stroke="rgb(0,0,0)"  stroke-width="1.0"/>
<line x1="270.0" y1="75.8" x2="274.1" y2="75.4" opacity="1.0" stroke="rgb(0,0,0)"  stroke-width="1.0"/>
<line x1="268.9" y1="71.6" x2="274.3" y2="71.0" opacity="1.0" stroke="rgb(0,0,0)"  stroke-width="1.0"/>
<line x1="267.8" y1="67.3" x2="274.5" y2="66.6" opacity="1.0" stroke="rgb(0,0,0)"  stroke-width="1.0"/>
<line x1="266.7" y1="63.0" x2="274.6" y2="62.2" opacity="1.0" stroke="rgb(0,0,0)"  stroke-width="1.0"/>
<line x1="356.7" y1="89.8" x2="398.2" y2="65.8" opacity="1.0" stroke="rgb(0,0,0)"  stroke-width="4.0"/>
<line x1="355.9" y1="85.8" x2="357.5" y2="85.8" opacity="1.0" stroke="rgb(0,0,0)"  stroke-width="1.0"/>
<line x1="355.2" y1="82.6" x2="358.1" y2="82.6" opacity="1.0" stroke="rgb(0,0,0)"  stroke-width="1.0"/>
<line x1="354.6" y1="79.4" x2="358.8" y2="79.4" opacity="1.0" stroke="rgb(0,0,0)"  stroke-width="1.0"/>
<line x1="354.0" y1="76.2" x2="359.4" y2="76.2" opacity="1.0" stroke="rgb(0,0,0)"  stroke-width="1.0"/>
<line x1="353.3" y1="73.0" x2="360.0" y2="73.0" opacity="1.0" stroke="rgb(0,0,0)"  stroke-width="1.0"/>
<line x1="352.7" y1="69.8" x2="360.7" y2="69.8" opacity="1.0" stroke="rgb(0,0,0)"  stroke-width="1.0"/>
<line x1="272.8" y1="229.7" x2="274.4" y2="229.7" opacity="1.0" stroke="rgb(0,0,0)"  stroke-width="1.0"/>
<line x1="272.1" y1="226.5" x2="275.0" y2="226.5" opacity="1.0" stroke="rgb(0,0,0)"  stroke-width="1.0"/>
<line x1="271.5" y1="223.4" x2="275.6" y2="223.4" opacity="1.0" stroke="rgb(0,0,0)"  stroke-width="1.0"/>
<line x1="270.8" y1="220.2" x2="276.3" y2="220.2" opacity="1.0" stroke="rgb(0,0,0)"  stroke-width="1.0"/>
<line x1="270.2" y1="217.0" x2="276.9" y2="217.0" opacity="1.0" stroke="rgb(0,0,0)"  stroke-width="1.0"/>
<line x1="269.6" y1="213.8" x2="277.6" y2="213.8" opacity="1.0" stroke="rgb(0,0,0)"  stroke-width="1.0"/>
<polygon points="273.556128 281.709238 277.556128 301.643328 269.556128 301.643328 " stroke-width="2.000000" fill="rgb(0,0,0)"  stroke="rgb(0,0,0)" />
<line x1="228.9" y1="308.4" x2="228.1" y2="307.0" opacity="1.0" stroke="rgb(0,0,0)"  stroke-width="1.0"/>
<line x1="226.5" y1="310.5" x2="225.1" y2="308.0" opacity="1.0" stroke="rgb(0,0,0)"  stroke-width="1.0"/>
<line x1="224.1" y1="312.7" x2="222.0" y2="309.1" opacity="1.0" stroke="rgb(0,0,0)"  stroke-width="1.0"/>
<line x1="221.6" y1="314.8" x2="218.9" y2="310.1" opacity="1.0" stroke="rgb(0,0,0)"  stroke-width="1.0"/>
<line x1="219.2" y1="317.0" x2="215.8" y2="311.2" opacity="1.0" stroke="rgb(0,0,0)"  stroke-width="1.0"/>
<line x1="216.7" y1="319.1" x2="212.7" y2="312.2" opacity="1.0" stroke="rgb(0,0,0)"  stroke-width="1.0"/>
<polygon points="190.441434 281.709238 194.441434 301.643328 186.441434 301.643328 " stroke-width="2.000000" fill="rgb(0,0,0)"  stroke="rgb(0,0,0)" />
<line x1="190.4" y1="233.7" x2="148.9" y2="209.7" opacity="1.0" stroke="rgb(0,0,0)"  stroke-width="4.0"/>
<line x1="189.6" y1="229.7" x2="191.2" y2="229.7" opacity="1.0" stroke="rgb(0,0,0)"  stroke-width="1.0"/>
<line x1="189.0" y1="226.5" x2="191.9" y2="226.5" opacity="1.0" stroke="rgb(0,0,0)"  stroke-width="1.0"/>
<line x1="188.4" y1="223.4" x2="192.5" y2="223.4" opacity="1.0" stroke="rgb(0,0,0)"  stroke-width="1.0"/>
<line x1="187.7" y1="220.2" x2="193.2" y2="220.2" opacity="1.0" stroke="rgb(0,0,0)"  stroke-width="1.0"/>
<line x1="187.1" y1="217.0" x2="193.8" y2="217.0" opacity="1.0" stroke="rgb(0,0,0)"  stroke-width="1.0"/>
<line x1="186.4" y1="213.8" x2="194.4" y2="213.8" opacity="1.0" stroke="rgb(0,0,0)"  stroke-width="1.0"/>
<line x1="200.1" y1="113.8" x2="152.2" y2="113.8" opacity="1.0" stroke="rgb(0,0,0)"  stroke-width="4.0"/>
<polygon points="200.144547 113.752294 194.650668 133.327152 187.524125 129.692267 " stroke-width="2.000000" fill="rgb(0,0,0)"  stroke="rgb(0,0,0)" />
<line x1="398.2" y1="65.8" x2="406.6" y2="80.3" opacity="1.0" stroke="rgb(0,0,0)"  stroke-width="4.0"/>
<line x1="398.2" y1="65.8" x2="412.7" y2="57.4" opacity="1.0" stroke="rgb(0,0,0)"  stroke-width="4.0"/>
<line x1="398.2" y1="65.8" x2="389.9" y2="51.3" opacity="1.0" stroke="rgb(0,0,0)"  stroke-width="4.0"/>
<line x1="148.9" y1="209.7" x2="132.4" y2="206.8" opacity="1.0" stroke="rgb(0,0,0)"  stroke-width="4.0"/>
<line x1="148.9" y1="209.7" x2="143.2" y2="225.5" opacity="1.0" stroke="rgb(0,0,0)"  stroke-width="4.0"/>
<line x1="152.2" y1="113.8" x2="152.2" y2="97.0" opacity="1.0" stroke="rgb(0,0,0)"  stroke-width="4.0"/>
<line x1="152.2" y1="113.8" x2="135.4" y2="113.8" opacity="1.0" stroke="rgb(0,0,0)"  stroke-width="4.0"/>
<line x1="152.2" y1="113.8" x2="152.2" y2="130.5" opacity="1.0" stroke="rgb(0,0,0)"  stroke-width="4.0"/>
<line x1="439.8" y1="137.7" x2="439.8" y2="89.8" opacity="1.0" stroke="rgb(0,0,0)"  stroke-width="4.0"/>
<line x1="315.1" y1="353.7" x2="356.7" y2="377.7" opacity="1.0" stroke="rgb(0,0,0)"  stroke-width="4.0"/>
<line x1="190.4" y1="377.7" x2="190.4" y2="425.7" opacity="1.0" stroke="rgb(0,0,0)"  stroke-width="4.0"/>
<line x1="107.3" y1="281.7" x2="65.8" y2="305.7" opacity="1.0" stroke="rgb(0,0,0)"  stroke-width="4.0"/>
<line x1="439.8" y1="89.8" x2="456.5" y2="89.8" opacity="1.0" stroke="rgb(0,0,0)"  stroke-width="4.0"/>
<line x1="439.8" y1="89.8" x2="439.8" y2="73.0" opacity="1.0" stroke="rgb(0,0,0)"  stroke-width="4.0"/>
<line x1="439.8" y1="89.8" x2="423.0" y2="89.8" opacity="1.0" stroke="rgb(0,0,0)"  stroke-width="4.0"/>
<line x1="356.7" y1="377.7" x2="348.3" y2="392.2" opacity="1.0" stroke="rgb(0,0,0)"  stroke-width="4.0"/>
<line x1="356.7" y1="377.7" x2="371.2" y2="386.1" opacity="1.0" stroke="rgb(0,0,0)"  stroke-width="4.0"/>
<line x1="356.7" y1="377.7" x2="365.1" y2="363.2" opacity="1.0" stroke="rgb(0,0,0)"  stroke-width="4.0"/>
<line x1="190.4" y1="425.7" x2="173.7" y2="425.7" opacity="1.0" stroke="rgb(0,0,0)"  stroke-width="4.0"/>
<line x1="190.4" y1="425.7" x2="190.4" y2="442.4" opacity="1.0" stroke="rgb(0,0,0)"  stroke-width="4.0"/>
<line x1="190.4" y1="425.7" x2="207.2" y2="425.7" opacity="1.0" stroke="rgb(0,0,0)"  stroke-width="4.0"/>
<line x1="107.3" y1="137.7" x2="107.3" y2="89.8" opacity="1.0" stroke="rgb(0,0,0)"  stroke-width="4.0"/>
<line x1="65.8" y1="305.7" x2="57.4" y2="291.2" opacity="1.0" stroke="rgb(0,0,0)"  stroke-width="4.0"/>
<line x1="65.8" y1="305.7" x2="51.3" y2="314.1" opacity="1.0" stroke="rgb(0,0,0)"  stroke-width="4.0"/>
<line x1="65.8" y1="305.7" x2="74.1" y2="320.2" opacity="1.0" stroke="rgb(0,0,0)"  stroke-width="4.0"/>
<line x1="107.3" y1="89.8" x2="124.1" y2="89.8" opacity="1.0" stroke="rgb(0,0,0)"  stroke-width="4.0"/>
<line x1="107.3" y1="89.8" x2="107.3" y2="73.0" opacity="1.0" stroke="rgb(0,0,0)"  stroke-width="4.0"/>
<line x1="107.3" y1="89.8" x2="90.6" y2="89.8" opacity="1.0" stroke="rgb(0,0,0)"  stroke-width="4.0"/>
<line x1="200.1" y1="113.8" x2="220.5" y2="141.8" opacity="1.0" stroke="rgb(0,0,0)"  stroke-width="4.0"/>
<line x1="240.5" y1="148.4" x2="273.6" y2="137.7" opacity="1.0" stroke="rgb(0,0,0)"  stroke-width="4.0"/>
<line x1="273.6" y1="137.7" x2="273.6" y2="89.8" opacity="1.0" stroke="rgb(0,0,0)"  stroke-width="4.0"/>
<line x1="273.6" y1="89.8" x2="240.5" y2="79.1" opacity="1.0" stroke="rgb(0,0,0)"  stroke-width="4.0"/>
<line x1="220.5" y1="85.7" x2="200.1" y2="113.8" opacity="1.0" stroke="rgb(0,0,0)"  stroke-width="4.0"/>
<line x1="303.9" y1="72.3" x2="273.6" y2="89.8" opacity="1.0" stroke="rgb(0,0,0)"  stroke-width="4.0"/>
<line x1="273.6" y1="137.7" x2="315.1" y2="161.7" opacity="1.0" stroke="rgb(0,0,0)"  stroke-width="4.0"/>
<line x1="315.1" y1="161.7" x2="356.7" y2="137.7" opacity="1.0" stroke="rgb(0,0,0)"  stroke-width="4.0"/>
<line x1="356.7" y1="137.7" x2="356.7" y2="89.8" opacity="1.0" stroke="rgb(0,0,0)"  stroke-width="4.0"/>
<line x1="356.7" y1="89.8" x2="326.4" y2="72.3" opacity="1.0" stroke="rgb(0,0,0)"  stroke-width="4.0"/>
<line x1="243.3" y1="216.2" x2="273.6" y2="233.7" opacity="1.0" stroke="rgb(0,0,0)"  stroke-width="4.0"/>
<line x1="273.6" y1="233.7" x2="273.6" y2="281.7" opacity="1.0" stroke="rgb(0,0,0)"  stroke-width="4.0"/>
<line x1="273.6" y1="281.7" x2="232.0" y2="305.7" opacity="1.0" stroke="rgb(0,0,0)"  stroke-width="4.0"/>
<line x1="232.0" y1="305.7" x2="190.4" y2="281.7" opacity="1.0" stroke="rgb(0,0,0)"  stroke-width="4.0"/>
<line x1="190.4" y1="281.7" x2="190.4" y2="233.7" opacity="1.0" stroke="rgb(0,0,0)"  stroke-width="4.0"/>
<line x1="190.4" y1="233.7" x2="220.7" y2="216.2" opacity="1.0" stroke="rgb(0,0,0)"  stroke-width="4.0"/>
<text x="267.556128" y="319.461611" fill="rgb(191,191,191)" stroke-width="0" font-weight="bold" font-size="16" >H</text>
<text x="132.705897" y="245.685323" fill="rgb(191,191,191)" stroke-width="0" font-weight="bold" font-size="16" >H</text>
<text x="113.582799" y="212.559415" fill="rgb(191,191,191)" stroke-width="0" font-weight="bold" font-size="16" >H</text>
<text x="377.356780" y="48.000000" fill="rgb(191,191,191)" stroke-width="0" font-weight="bold" font-size="16" >H</text>
<text x="417.997562" y="58.888409" fill="rgb(191,191,191)" stroke-width="0" font-weight="bold" font-size="16" >H</text>
<text x="407.109153" y="99.529190" fill="rgb(191,191,191)" stroke-width="0" font-weight="bold" font-size="16" >H</text>
<text x="180.626412" y="148.255899" fill="rgb(191,191,191)" stroke-width="0" font-weight="bold" font-size="16" >H</text>
<text x="184.441434" y="211.969166" fill="rgb(191,191,191)" stroke-width="0" font-weight="bold" font-size="16" >H</text>
<text x="184.441434" y="319.461611" fill="rgb(191,191,191)" stroke-width="0" font-weight="bold" font-size="16" >H</text>
<text x="200.234186" y="328.579273" fill="rgb(191,191,191)" stroke-width="0" font-weight="bold" font-size="16" >H</text>
<text x="146.156849" y="91.999921" fill="rgb(191,191,191)" stroke-width="0" font-weight="bold" font-size="16" >H</text>
<text x="267.556128" y="211.969166" fill="rgb(191,191,191)" stroke-width="0" font-weight="bold" font-size="16" >H</text>
<text x="350.675620" y="68.006071" fill="rgb(191,191,191)" stroke-width="0" font-weight="bold" font-size="16" >H</text>
<text x="263.242034" y="57.199242" fill="rgb(191,191,191)" stroke-width="0" font-weight="bold" font-size="16" >H</text>
<text x="350.675620" y="175.498516" fill="rgb(191,191,191)" stroke-width="0" font-weight="bold" font-size="16" >H</text>
<text x="263.242034" y="186.305345" fill="rgb(191,191,191)" stroke-width="0" font-weight="bold" font-size="16" >H</text>
<text x="283.348879" y="184.616178" fill="rgb(191,191,191)" stroke-width="0" font-weight="bold" font-size="16" >H</text>
<text x="154.689061" y="433.672333" fill="rgb(191,191,191)" stroke-width="0" font-weight="bold" font-size="16" >H</text>
<text x="71.569569" y="97.758444" fill="rgb(191,191,191)" stroke-width="0" font-weight="bold" font-size="16" >H</text>
<text x="101.321942" y="68.006071" fill="rgb(191,191,191)" stroke-width="0" font-weight="bold" font-size="16" >H</text>
<text x="131.074315" y="97.758444" fill="rgb(191,191,191)" stroke-width="0" font-weight="bold" font-size="16" >H</text>
<text x="74.640782" y="339.467682" fill="rgb(191,191,191)" stroke-width="0" font-weight="bold" font-size="16" >H</text>
<text x="34.000000" y="328.579273" fill="rgb(191,191,191)" stroke-width="0" font-weight="bold" font-size="16" >H</text>
<text x="44.888409" y="287.938492" fill="rgb(191,191,191)" stroke-width="0" font-weight="bold" font-size="16" >H</text>
<text x="214.193807" y="433.672333" fill="rgb(191,191,191)" stroke-width="0" font-weight="bold" font-size="16" >H</text>
<text x="184.441434" y="463.424706" fill="rgb(191,191,191)" stroke-width="0" font-weight="bold" font-size="16" >H</text>
<text x="365.551807" y="359.920039" fill="rgb(191,191,191)" stroke-width="0" font-weight="bold" font-size="16" >H</text>
<text x="376.440215" y="400.560821" fill="rgb(191,191,191)" stroke-width="0" font-weight="bold" font-size="16" >H</text>
<text x="335.799434" y="411.449230" fill="rgb(191,191,191)" stroke-width="0" font-weight="bold" font-size="16" >H</text>
<text x="404.037941" y="97.758444" fill="rgb(191,191,191)" stroke-width="0" font-weight="bold" font-size="16" >H</text>
<text x="433.790314" y="68.006071" fill="rgb(191,191,191)" stroke-width="0" font-weight="bold" font-size="16" >H</text>
<text x="463.542687" y="97.758444" fill="rgb(191,191,191)" stroke-width="0" font-weight="bold" font-size="16" >H</text>
<text x="146.156849" y="151.504667" fill="rgb(191,191,191)" stroke-width="0" font-weight="bold" font-size="16" >H</text>
<text x="116.404476" y="121.752294" fill="rgb(191,191,191)" stroke-width="0" font-weight="bold" font-size="16" >H</text>
<text x="142.879289" y="169.739992" fill="rgb(255,12,12)" stroke-width="0" font-weight="bold" font-size="16" >O</text>
<text x="59.764595" y="169.739992" fill="rgb(255,12,12)" stroke-width="0" font-weight="bold" font-size="16" >O</text>
<text x="101.321942" y="241.721539" fill="rgb(255,12,12)" stroke-width="0" font-weight="bold" font-size="16" >O</text>
<text x="142.879289" y="361.690785" fill="rgb(255,12,12)" stroke-width="0" font-weight="bold" font-size="16" >O</text>
<text x="267.556128" y="385.684634" fill="rgb(255,12,12)" stroke-width="0" font-weight="bold" font-size="16" >O</text>
<text x="475.352459" y="169.739992" fill="rgb(255,12,12)" stroke-width="0" font-weight="bold" font-size="16" >O</text>
<text x="142.879289" y="313.703087" fill="rgb(255,12,12)" stroke-width="0" font-weight="bold" font-size="16" >O</text>
<text x="225.998781" y="361.690785" fill="rgb(255,12,12)" stroke-width="0" font-weight="bold" font-size="16" >O</text>
<text x="309.118273" y="313.703087" fill="rgb(255,12,12)" stroke-width="0" font-weight="bold" font-size="16" >O</text>
<text x="392.232967" y="169.739992" fill="rgb(255,12,12)" stroke-width="0" font-weight="bold" font-size="16" >O</text>
<text x="225.998781" y="217.727690" fill="rgb(255,12,12)" stroke-width="0" font-weight="bold" font-size="16" >O</text>
<text x="222.150168" y="83.136593" fill="rgb(255,12,12)" stroke-width="0" font-weight="bold" font-size="16" >O</text>
<text x="222.150168" y="160.367994" fill="rgb(255,12,12)" stroke-width="0" font-weight="bold" font-size="16" >O</text>
<text x="309.118273" y="73.764595" fill="rgb(255,12,12)" stroke-width="0" font-weight="bold" font-size="16" >O</text>
<text x="309.118273" y="217.727690" fill="rgb(255,12,12)" stroke-width="0" font-weight="bold" font-size="16" >O</text>
</svg>
</g>
<text font-size="18.000000" fill ="black" font-family="sans-serif"
x="10.000000" y="20.000000" ></text>
</svg>
