<?xml version="1.0"?>
<svg version="1.1" id="topsvg"
xmlns="http://www.w3.org/2000/svg" xmlns:xlink="http://www.w3.org/1999/xlink"
xmlns:cml="http://www.xml-cml.org/schema" x="0" y="0" width="200px" height="200px" viewBox="0 0 100 100">
<title> - Open Babel Depiction</title>
<rect x="0" y="0" width="100" height="100" fill="transparent"/>
<g transform="translate(0,0)">
<svg width="100" height="100" x="0" y="0" viewBox="0 0 319.815 368.679"
font-family="sans-serif" stroke="rgb(0,0,0)" stroke-width="2"  stroke-linecap="round">
<line x1="173.8" y1="188.0" x2="203.4" y2="205.1" opacity="1.0" stroke="rgb(0,0,0)"  stroke-width="4.0"/>
<line x1="162.6" y1="168.5" x2="162.6" y2="134.3" opacity="1.0" stroke="rgb(0,0,0)"  stroke-width="4.0"/>
<line x1="192.1" y1="117.3" x2="162.6" y2="134.3" opacity="1.0" stroke="rgb(0,0,0)"  stroke-width="4.0"/>
<line x1="203.4" y1="97.8" x2="203.4" y2="94.5" opacity="1.0" stroke="rgb(0,0,0)"  stroke-width="4.0"/>
<line x1="92.1" y1="46.5" x2="110.4" y2="57.1" opacity="1.0" stroke="rgb(0,0,0)"  stroke-width="4.0"/>
<line x1="152.8" y1="49.1" x2="134.5" y2="59.7" opacity="1.0" stroke="rgb(0,0,0)"  stroke-width="4.0"/>
<line x1="149.8" y1="43.9" x2="131.5" y2="54.5" opacity="1.0" stroke="rgb(0,0,0)"  stroke-width="4.0"/>
<line x1="121.7" y1="76.6" x2="121.7" y2="110.8" opacity="1.0" stroke="rgb(0,0,0)"  stroke-width="4.0"/>
<line x1="68.1" y1="130.4" x2="49.8" y2="119.9" opacity="1.0" stroke="rgb(0,0,0)"  stroke-width="4.0"/>
<line x1="71.1" y1="125.2" x2="52.8" y2="114.7" opacity="1.0" stroke="rgb(0,0,0)"  stroke-width="4.0"/>
<line x1="92.1" y1="127.8" x2="121.7" y2="110.8" opacity="1.0" stroke="rgb(0,0,0)"  stroke-width="4.0"/>
<line x1="203.4" y1="252.3" x2="203.4" y2="205.1" opacity="1.0" stroke="rgb(0,0,0)"  stroke-width="4.0"/>
<line x1="203.4" y1="252.3" x2="156.2" y2="252.3" opacity="1.0" stroke="rgb(0,0,0)"  stroke-width="4.0"/>
<line x1="250.6" y1="252.3" x2="266.8" y2="252.3" opacity="1.0" stroke="rgb(0,0,0)"  stroke-width="4.0"/>
<line x1="250.6" y1="252.3" x2="250.6" y2="236.0" opacity="1.0" stroke="rgb(0,0,0)"  stroke-width="4.0"/>
<line x1="203.4" y1="299.4" x2="187.2" y2="299.4" opacity="1.0" stroke="rgb(0,0,0)"  stroke-width="4.0"/>
<line x1="203.4" y1="299.4" x2="203.4" y2="315.7" opacity="1.0" stroke="rgb(0,0,0)"  stroke-width="4.0"/>
<line x1="203.4" y1="205.1" x2="219.4" y2="207.9" opacity="1.0" stroke="rgb(0,0,0)"  stroke-width="4.0"/>
<line x1="203.4" y1="205.1" x2="209.0" y2="189.8" opacity="1.0" stroke="rgb(0,0,0)"  stroke-width="4.0"/>
<line x1="156.2" y1="252.3" x2="156.2" y2="236.0" opacity="1.0" stroke="rgb(0,0,0)"  stroke-width="4.0"/>
<line x1="156.2" y1="252.3" x2="140.0" y2="252.3" opacity="1.0" stroke="rgb(0,0,0)"  stroke-width="4.0"/>
<line x1="156.2" y1="252.3" x2="156.2" y2="268.5" opacity="1.0" stroke="rgb(0,0,0)"  stroke-width="4.0"/>
<line x1="161.1" y1="136.9" x2="123.2" y2="108.2" opacity="1.0" stroke="rgb(0,0,0)"  stroke-width="4.0"/>
<line x1="164.1" y1="131.7" x2="120.2" y2="113.4" opacity="1.0" stroke="rgb(0,0,0)"  stroke-width="4.0"/>
<line x1="203.4" y1="252.3" x2="250.6" y2="252.3" opacity="1.0" stroke="rgb(0,0,0)"  stroke-width="4.0"/>
<line x1="250.6" y1="252.3" x2="250.6" y2="286.4" opacity="1.0" stroke="rgb(0,0,0)"  stroke-width="4.0"/>
<line x1="237.6" y1="299.4" x2="203.4" y2="299.4" opacity="1.0" stroke="rgb(0,0,0)"  stroke-width="4.0"/>
<line x1="203.4" y1="299.4" x2="203.4" y2="252.3" opacity="1.0" stroke="rgb(0,0,0)"  stroke-width="4.0"/>
<text x="197.400542" y="89.509332" fill="rgb(191,191,191)" stroke-width="0" font-weight="bold" font-size="16" >H</text>
<text x="150.230846" y="289.508840" fill="rgb(191,191,191)" stroke-width="0" font-weight="bold" font-size="16" >H</text>
<text x="120.985635" y="260.263629" fill="rgb(191,191,191)" stroke-width="0" font-weight="bold" font-size="16" >H</text>
<text x="150.230846" y="231.018418" fill="rgb(191,191,191)" stroke-width="0" font-weight="bold" font-size="16" >H</text>
<text x="207.405234" y="185.612869" fill="rgb(191,191,191)" stroke-width="0" font-weight="bold" font-size="16" >H</text>
<text x="226.202358" y="218.174110" fill="rgb(191,191,191)" stroke-width="0" font-weight="bold" font-size="16" >H</text>
<text x="197.400542" y="336.678536" fill="rgb(191,191,191)" stroke-width="0" font-weight="bold" font-size="16" >H</text>
<text x="168.155331" y="307.433324" fill="rgb(191,191,191)" stroke-width="0" font-weight="bold" font-size="16" >H</text>
<text x="244.570237" y="231.018418" fill="rgb(191,191,191)" stroke-width="0" font-weight="bold" font-size="16" >H</text>
<text x="273.815448" y="260.263629" fill="rgb(191,191,191)" stroke-width="0" font-weight="bold" font-size="16" >H</text>
<text x="244.570237" y="307.433324" fill="rgb(255,12,12)" stroke-width="0" font-weight="bold" font-size="16" >O</text>
<text x="44.800000" y="106.722543" fill="rgb(12,12,255)" stroke-width="0" font-weight="bold" font-size="16" ></text>
<text x="44.800000" y="106.722543" fill="rgb(12,12,255)" stroke-width="0" font-weight="bold" font-size="32" >..</text>
<text x="34.000000" y="118.754543" fill="rgb(12,12,255)" stroke-width="0" font-weight="bold" font-size="16" >N</text>
<text x="74.848956" y="142.339391" fill="rgb(12,12,255)" stroke-width="0" font-weight="bold" font-size="16" >N</text>
<text x="126.497912" y="59.552848" fill="rgb(12,12,255)" stroke-width="0" font-weight="bold" font-size="16" >+</text>
<text x="115.697912" y="71.584848" fill="rgb(12,12,255)" stroke-width="0" font-weight="bold" font-size="16" >N</text>
<text x="156.551585" y="48.000000" fill="rgb(255,12,12)" stroke-width="0" font-weight="bold" font-size="16" >O</text>
<text x="85.648956" y="25.888000" fill="rgb(255,12,12)" stroke-width="0" font-weight="bold" font-size="16" >_</text>
<text x="74.848956" y="48.000000" fill="rgb(255,12,12)" stroke-width="0" font-weight="bold" font-size="16" >O</text>
<text x="197.400542" y="118.754543" fill="rgb(255,12,12)" stroke-width="0" font-weight="bold" font-size="16" >O</text>
<text x="156.551585" y="189.509086" fill="rgb(255,12,12)" stroke-width="0" font-weight="bold" font-size="16" >O</text>
</svg>
</g>
<text font-size="18.000000" fill ="black" font-family="sans-serif"
x="10.000000" y="20.000000" ></text>
</svg>
