<?xml version="1.0"?>
<svg version="1.1" id="topsvg"
xmlns="http://www.w3.org/2000/svg" xmlns:xlink="http://www.w3.org/1999/xlink"
xmlns:cml="http://www.xml-cml.org/schema" x="0" y="0" width="200px" height="200px" viewBox="0 0 100 100">
<title> - Open Babel Depiction</title>
<rect x="0" y="0" width="100" height="100" fill="transparent"/>
<g transform="translate(0,0)">
<svg width="100" height="100" x="0" y="0" viewBox="0 0 352.463 299.563"
font-family="sans-serif" stroke="rgb(0,0,0)" stroke-width="2"  stroke-linecap="round">
<line x1="189.0" y1="67.7" x2="189.0" y2="102.3" opacity="1.0" stroke="rgb(0,0,0)"  stroke-width="4.0"/>
<line x1="177.7" y1="48.2" x2="174.7" y2="46.5" opacity="1.0" stroke="rgb(0,0,0)"  stroke-width="4.0"/>
<line x1="260.0" y1="108.8" x2="230.1" y2="126.0" opacity="1.0" stroke="rgb(0,0,0)"  stroke-width="4.0"/>
<line x1="271.3" y1="89.3" x2="271.3" y2="85.8" opacity="1.0" stroke="rgb(0,0,0)"  stroke-width="4.0"/>
<line x1="271.3" y1="231.8" x2="271.3" y2="197.3" opacity="1.0" stroke="rgb(0,0,0)"  stroke-width="4.0"/>
<line x1="282.6" y1="251.3" x2="285.6" y2="253.1" opacity="1.0" stroke="rgb(0,0,0)"  stroke-width="4.0"/>
<line x1="76.8" y1="180.0" x2="106.7" y2="197.3" opacity="1.0" stroke="rgb(0,0,0)"  stroke-width="4.0"/>
<line x1="54.3" y1="180.0" x2="51.3" y2="181.8" opacity="1.0" stroke="rgb(0,0,0)"  stroke-width="4.0"/>
<line x1="302.7" y1="182.6" x2="272.8" y2="199.9" opacity="1.0" stroke="rgb(0,0,0)"  stroke-width="4.0"/>
<line x1="299.7" y1="177.4" x2="269.8" y2="194.7" opacity="1.0" stroke="rgb(0,0,0)"  stroke-width="4.0"/>
<line x1="103.7" y1="231.8" x2="103.7" y2="197.3" opacity="1.0" stroke="rgb(0,0,0)"  stroke-width="4.0"/>
<line x1="109.7" y1="231.8" x2="109.7" y2="197.3" opacity="1.0" stroke="rgb(0,0,0)"  stroke-width="4.0"/>
<line x1="189.0" y1="102.3" x2="203.3" y2="94.0" opacity="1.0" stroke="rgb(0,0,0)"  stroke-width="4.0"/>
<line x1="230.1" y1="126.0" x2="244.4" y2="134.3" opacity="1.0" stroke="rgb(0,0,0)"  stroke-width="4.0"/>
<line x1="147.8" y1="126.0" x2="142.2" y2="110.5" opacity="1.0" stroke="rgb(0,0,0)"  stroke-width="4.0"/>
<line x1="147.8" y1="126.0" x2="131.6" y2="128.9" opacity="1.0" stroke="rgb(0,0,0)"  stroke-width="4.0"/>
<line x1="230.1" y1="173.5" x2="271.3" y2="197.3" opacity="1.0" stroke="rgb(0,0,0)"  stroke-width="4.0"/>
<line x1="230.1" y1="173.5" x2="230.1" y2="190.0" opacity="1.0" stroke="rgb(0,0,0)"  stroke-width="4.0"/>
<line x1="147.8" y1="173.5" x2="106.7" y2="197.3" opacity="1.0" stroke="rgb(0,0,0)"  stroke-width="4.0"/>
<line x1="147.8" y1="173.5" x2="147.8" y2="190.0" opacity="1.0" stroke="rgb(0,0,0)"  stroke-width="4.0"/>
<line x1="189.0" y1="102.3" x2="230.1" y2="126.0" opacity="1.0" stroke="rgb(0,0,0)"  stroke-width="4.0"/>
<line x1="230.1" y1="126.0" x2="230.1" y2="173.5" opacity="1.0" stroke="rgb(0,0,0)"  stroke-width="4.0"/>
<line x1="230.1" y1="173.5" x2="200.2" y2="190.8" opacity="1.0" stroke="rgb(0,0,0)"  stroke-width="4.0"/>
<line x1="177.7" y1="190.8" x2="147.8" y2="173.5" opacity="1.0" stroke="rgb(0,0,0)"  stroke-width="4.0"/>
<line x1="147.8" y1="173.5" x2="147.8" y2="126.0" opacity="1.0" stroke="rgb(0,0,0)"  stroke-width="4.0"/>
<line x1="147.8" y1="126.0" x2="189.0" y2="102.3" opacity="1.0" stroke="rgb(0,0,0)"  stroke-width="4.0"/>
<text x="34.000000" y="196.276397" fill="rgb(191,191,191)" stroke-width="0" font-weight="bold" font-size="16" >H</text>
<text x="290.822324" y="267.563127" fill="rgb(191,191,191)" stroke-width="0" font-weight="bold" font-size="16" >H</text>
<text x="265.306427" y="80.791896" fill="rgb(191,191,191)" stroke-width="0" font-weight="bold" font-size="16" >H</text>
<text x="157.473368" y="48.000000" fill="rgb(191,191,191)" stroke-width="0" font-weight="bold" font-size="16" >H</text>
<text x="141.833059" y="211.008988" fill="rgb(191,191,191)" stroke-width="0" font-weight="bold" font-size="16" >H</text>
<text x="224.145470" y="211.008988" fill="rgb(191,191,191)" stroke-width="0" font-weight="bold" font-size="16" >H</text>
<text x="112.814608" y="139.137707" fill="rgb(191,191,191)" stroke-width="0" font-weight="bold" font-size="16" >H</text>
<text x="131.753116" y="106.331555" fill="rgb(191,191,191)" stroke-width="0" font-weight="bold" font-size="16" >H</text>
<text x="249.666119" y="148.751911" fill="rgb(191,191,191)" stroke-width="0" font-weight="bold" font-size="16" >H</text>
<text x="208.509914" y="95.524486" fill="rgb(191,191,191)" stroke-width="0" font-weight="bold" font-size="16" >H</text>
<text x="182.989265" y="205.306050" fill="rgb(255,12,12)" stroke-width="0" font-weight="bold" font-size="16" >O</text>
<text x="100.676854" y="252.830536" fill="rgb(255,12,12)" stroke-width="0" font-weight="bold" font-size="16" >O</text>
<text x="306.462632" y="181.543807" fill="rgb(255,12,12)" stroke-width="0" font-weight="bold" font-size="16" >O</text>
<text x="59.515897" y="181.543807" fill="rgb(255,12,12)" stroke-width="0" font-weight="bold" font-size="16" >O</text>
<text x="265.306427" y="252.830536" fill="rgb(255,12,12)" stroke-width="0" font-weight="bold" font-size="16" >O</text>
<text x="265.306427" y="110.257077" fill="rgb(255,12,12)" stroke-width="0" font-weight="bold" font-size="16" >O</text>
<text x="182.989265" y="62.732591" fill="rgb(255,12,12)" stroke-width="0" font-weight="bold" font-size="16" >O</text>
</svg>
</g>
<text font-size="18.000000" fill ="black" font-family="sans-serif"
x="10.000000" y="20.000000" ></text>
</svg>
