<?xml version="1.0"?>
<svg version="1.1" id="topsvg"
xmlns="http://www.w3.org/2000/svg" xmlns:xlink="http://www.w3.org/1999/xlink"
xmlns:cml="http://www.xml-cml.org/schema" x="0" y="0" width="200px" height="200px" viewBox="0 0 100 100">
<title> - Open Babel Depiction</title>
<rect x="0" y="0" width="100" height="100" fill="transparent"/>
<g transform="translate(0,0)">
<svg width="100" height="100" x="0" y="0" viewBox="0 0 558.398 508.741"
font-family="sans-serif" stroke="rgb(0,0,0)" stroke-width="2"  stroke-linecap="round">
<line x1="299.1" y1="376.3" x2="320.4" y2="378.5" opacity="1.0" stroke="rgb(0,0,0)"  stroke-width="4.0"/>
<line x1="284.8" y1="387.9" x2="282.5" y2="409.2" opacity="1.0" stroke="rgb(0,0,0)"  stroke-width="4.0"/>
<line x1="284.5" y1="361.7" x2="286.7" y2="340.3" opacity="1.0" stroke="rgb(0,0,0)"  stroke-width="4.0"/>
<line x1="290.5" y1="362.3" x2="292.7" y2="340.9" opacity="1.0" stroke="rgb(0,0,0)"  stroke-width="4.0"/>
<line x1="273.2" y1="373.6" x2="251.8" y2="371.3" opacity="1.0" stroke="rgb(0,0,0)"  stroke-width="4.0"/>
<line x1="457.6" y1="259.1" x2="457.2" y2="260.6" opacity="1.0" stroke="rgb(0,0,0)"  stroke-width="1.0"/>
<line x1="462.7" y1="260.1" x2="461.8" y2="262.8" opacity="1.0" stroke="rgb(0,0,0)"  stroke-width="1.0"/>
<line x1="467.7" y1="261.0" x2="466.4" y2="265.0" opacity="1.0" stroke="rgb(0,0,0)"  stroke-width="1.0"/>
<line x1="472.8" y1="262.0" x2="471.1" y2="267.2" opacity="1.0" stroke="rgb(0,0,0)"  stroke-width="1.0"/>
<line x1="477.8" y1="262.9" x2="475.7" y2="269.3" opacity="1.0" stroke="rgb(0,0,0)"  stroke-width="1.0"/>
<line x1="482.8" y1="263.9" x2="480.4" y2="271.5" opacity="1.0" stroke="rgb(0,0,0)"  stroke-width="1.0"/>
<line x1="506.2" y1="263.9" x2="508.7" y2="261.6" opacity="1.0" stroke="rgb(0,0,0)"  stroke-width="4.0"/>
<line x1="436.7" y1="303.0" x2="456.9" y2="331.0" opacity="1.0" stroke="rgb(0,0,0)"  stroke-width="4.0"/>
<line x1="459.3" y1="353.3" x2="457.9" y2="356.5" opacity="1.0" stroke="rgb(0,0,0)"  stroke-width="4.0"/>
<line x1="341.0" y1="369.4" x2="361.3" y2="341.5" opacity="1.0" stroke="rgb(0,0,0)"  stroke-width="4.0"/>
<line x1="482.4" y1="178.6" x2="452.6" y2="161.3" opacity="1.0" stroke="rgb(0,0,0)"  stroke-width="4.0"/>
<line x1="485.4" y1="173.4" x2="455.6" y2="156.1" opacity="1.0" stroke="rgb(0,0,0)"  stroke-width="4.0"/>
<line x1="291.7" y1="429.8" x2="294.5" y2="431.8" opacity="1.0" stroke="rgb(0,0,0)"  stroke-width="4.0"/>
<line x1="415.9" y1="53.0" x2="415.9" y2="87.5" opacity="1.0" stroke="rgb(0,0,0)"  stroke-width="4.0"/>
<line x1="409.9" y1="53.0" x2="409.9" y2="87.5" opacity="1.0" stroke="rgb(0,0,0)"  stroke-width="4.0"/>
<line x1="412.9" y1="230.0" x2="412.9" y2="195.5" opacity="1.0" stroke="rgb(0,0,0)"  stroke-width="4.0"/>
<line x1="465.3" y1="104.7" x2="468.3" y2="103.0" opacity="1.0" stroke="rgb(0,0,0)"  stroke-width="4.0"/>
<line x1="231.3" y1="380.5" x2="211.0" y2="408.4" opacity="1.0" stroke="rgb(0,0,0)"  stroke-width="4.0"/>
<line x1="233.6" y1="358.1" x2="232.2" y2="354.9" opacity="1.0" stroke="rgb(0,0,0)"  stroke-width="4.0"/>
<line x1="451.3" y1="257.9" x2="479.3" y2="219.5" opacity="1.0" stroke="rgb(0,0,0)"  stroke-width="4.0"/>
<polygon points="436.674814 303.048886 431.281667 322.441909 424.153814 318.809594 " stroke-width="2.000000" fill="rgb(0,0,0)"  stroke="rgb(0,0,0)" />
<line x1="409.1" y1="228.9" x2="409.8" y2="227.5" opacity="1.0" stroke="rgb(0,0,0)"  stroke-width="1.0"/>
<line x1="405.9" y1="228.0" x2="407.3" y2="225.5" opacity="1.0" stroke="rgb(0,0,0)"  stroke-width="1.0"/>
<line x1="402.8" y1="227.2" x2="404.7" y2="223.5" opacity="1.0" stroke="rgb(0,0,0)"  stroke-width="1.0"/>
<line x1="399.7" y1="226.3" x2="402.2" y2="221.5" opacity="1.0" stroke="rgb(0,0,0)"  stroke-width="1.0"/>
<line x1="396.6" y1="225.4" x2="399.7" y2="219.4" opacity="1.0" stroke="rgb(0,0,0)"  stroke-width="1.0"/>
<line x1="393.5" y1="224.6" x2="397.2" y2="217.4" opacity="1.0" stroke="rgb(0,0,0)"  stroke-width="1.0"/>
<line x1="389.2" y1="303.0" x2="361.3" y2="341.5" opacity="1.0" stroke="rgb(0,0,0)"  stroke-width="4.0"/>
<line x1="385.2" y1="303.2" x2="385.4" y2="301.6" opacity="1.0" stroke="rgb(0,0,0)"  stroke-width="1.0"/>
<line x1="381.9" y1="303.4" x2="382.4" y2="300.5" opacity="1.0" stroke="rgb(0,0,0)"  stroke-width="1.0"/>
<line x1="378.7" y1="303.5" x2="379.4" y2="299.4" opacity="1.0" stroke="rgb(0,0,0)"  stroke-width="1.0"/>
<line x1="375.5" y1="303.6" x2="376.4" y2="298.3" opacity="1.0" stroke="rgb(0,0,0)"  stroke-width="1.0"/>
<line x1="372.3" y1="303.8" x2="373.3" y2="297.1" opacity="1.0" stroke="rgb(0,0,0)"  stroke-width="1.0"/>
<line x1="369.1" y1="303.9" x2="370.3" y2="296.0" opacity="1.0" stroke="rgb(0,0,0)"  stroke-width="1.0"/>
<line x1="479.3" y1="219.5" x2="492.6" y2="229.1" opacity="1.0" stroke="rgb(0,0,0)"  stroke-width="4.0"/>
<line x1="479.3" y1="219.5" x2="488.9" y2="206.2" opacity="1.0" stroke="rgb(0,0,0)"  stroke-width="4.0"/>
<line x1="479.3" y1="219.5" x2="466.0" y2="209.8" opacity="1.0" stroke="rgb(0,0,0)"  stroke-width="4.0"/>
<line x1="361.3" y1="341.5" x2="348.0" y2="331.8" opacity="1.0" stroke="rgb(0,0,0)"  stroke-width="4.0"/>
<line x1="361.3" y1="341.5" x2="374.6" y2="351.1" opacity="1.0" stroke="rgb(0,0,0)"  stroke-width="4.0"/>
<line x1="371.8" y1="158.7" x2="357.6" y2="166.9" opacity="1.0" stroke="rgb(0,0,0)"  stroke-width="4.0"/>
<line x1="371.8" y1="111.2" x2="357.6" y2="103.0" opacity="1.0" stroke="rgb(0,0,0)"  stroke-width="4.0"/>
<line x1="211.0" y1="408.4" x2="163.7" y2="403.4" opacity="1.0" stroke="rgb(0,0,0)"  stroke-width="4.0"/>
<line x1="211.0" y1="408.4" x2="206.4" y2="424.2" opacity="1.0" stroke="rgb(0,0,0)"  stroke-width="4.0"/>
<line x1="211.0" y1="408.4" x2="225.8" y2="415.6" opacity="1.0" stroke="rgb(0,0,0)"  stroke-width="4.0"/>
<line x1="144.4" y1="360.0" x2="154.1" y2="346.7" opacity="1.0" stroke="rgb(0,0,0)"  stroke-width="4.0"/>
<line x1="135.8" y1="441.8" x2="142.5" y2="456.9" opacity="1.0" stroke="rgb(0,0,0)"  stroke-width="4.0"/>
<line x1="97.2" y1="355.1" x2="90.5" y2="340.0" opacity="1.0" stroke="rgb(0,0,0)"  stroke-width="4.0"/>
<line x1="88.6" y1="436.9" x2="78.9" y2="450.2" opacity="1.0" stroke="rgb(0,0,0)"  stroke-width="4.0"/>
<line x1="69.3" y1="393.5" x2="52.9" y2="391.8" opacity="1.0" stroke="rgb(0,0,0)"  stroke-width="4.0"/>
<line x1="454.1" y1="124.2" x2="454.1" y2="158.7" opacity="1.0" stroke="rgb(0,0,0)"  stroke-width="4.0"/>
<line x1="454.1" y1="158.7" x2="424.2" y2="176.0" opacity="1.0" stroke="rgb(0,0,0)"  stroke-width="4.0"/>
<line x1="401.7" y1="176.0" x2="371.8" y2="158.7" opacity="1.0" stroke="rgb(0,0,0)"  stroke-width="4.0"/>
<line x1="371.8" y1="158.7" x2="371.8" y2="111.2" opacity="1.0" stroke="rgb(0,0,0)"  stroke-width="4.0"/>
<line x1="379.0" y1="152.7" x2="379.0" y2="117.2" opacity="1.0" stroke="rgb(0,0,0)"  stroke-width="4.0"/>
<line x1="371.8" y1="111.2" x2="412.9" y2="87.5" opacity="1.0" stroke="rgb(0,0,0)"  stroke-width="4.0"/>
<line x1="412.9" y1="87.5" x2="442.8" y2="104.7" opacity="1.0" stroke="rgb(0,0,0)"  stroke-width="4.0"/>
<line x1="144.4" y1="360.0" x2="163.7" y2="403.4" opacity="1.0" stroke="rgb(0,0,0)"  stroke-width="4.0"/>
<line x1="140.3" y1="368.4" x2="154.7" y2="400.9" opacity="1.0" stroke="rgb(0,0,0)"  stroke-width="4.0"/>
<line x1="163.7" y1="403.4" x2="135.8" y2="441.8" opacity="1.0" stroke="rgb(0,0,0)"  stroke-width="4.0"/>
<line x1="135.8" y1="441.8" x2="88.6" y2="436.9" opacity="1.0" stroke="rgb(0,0,0)"  stroke-width="4.0"/>
<line x1="130.6" y1="434.1" x2="95.3" y2="430.3" opacity="1.0" stroke="rgb(0,0,0)"  stroke-width="4.0"/>
<line x1="88.6" y1="436.9" x2="69.3" y2="393.5" opacity="1.0" stroke="rgb(0,0,0)"  stroke-width="4.0"/>
<line x1="69.3" y1="393.5" x2="97.2" y2="355.1" opacity="1.0" stroke="rgb(0,0,0)"  stroke-width="4.0"/>
<line x1="78.6" y1="392.9" x2="99.5" y2="364.2" opacity="1.0" stroke="rgb(0,0,0)"  stroke-width="4.0"/>
<line x1="97.2" y1="355.1" x2="144.4" y2="360.0" opacity="1.0" stroke="rgb(0,0,0)"  stroke-width="4.0"/>
<line x1="385.0" y1="250.2" x2="412.9" y2="230.0" opacity="1.0" stroke="rgb(0,0,0)"  stroke-width="4.0"/>
<line x1="412.9" y1="230.0" x2="451.3" y2="257.9" opacity="1.0" stroke="rgb(0,0,0)"  stroke-width="4.0"/>
<line x1="451.3" y1="257.9" x2="436.7" y2="303.0" opacity="1.0" stroke="rgb(0,0,0)"  stroke-width="4.0"/>
<line x1="436.7" y1="303.0" x2="389.2" y2="303.0" opacity="1.0" stroke="rgb(0,0,0)"  stroke-width="4.0"/>
<line x1="389.2" y1="303.0" x2="378.5" y2="270.2" opacity="1.0" stroke="rgb(0,0,0)"  stroke-width="4.0"/>
<text x="446.612854" y="376.368253" fill="rgb(191,191,191)" stroke-width="0" font-weight="bold" font-size="16" >H</text>
<text x="417.306048" y="337.283013" fill="rgb(191,191,191)" stroke-width="0" font-weight="bold" font-size="16" >H</text>
<text x="380.690349" y="224.600695" fill="rgb(191,191,191)" stroke-width="0" font-weight="bold" font-size="16" >H</text>
<text x="354.100039" y="306.442242" fill="rgb(191,191,191)" stroke-width="0" font-weight="bold" font-size="16" >H</text>
<text x="497.086478" y="244.765449" fill="rgb(191,191,191)" stroke-width="0" font-weight="bold" font-size="16" >H</text>
<text x="490.570688" y="203.638089" fill="rgb(191,191,191)" stroke-width="0" font-weight="bold" font-size="16" >H</text>
<text x="449.443328" y="210.153879" fill="rgb(191,191,191)" stroke-width="0" font-weight="bold" font-size="16" >H</text>
<text x="331.446747" y="332.163464" fill="rgb(191,191,191)" stroke-width="0" font-weight="bold" font-size="16" >D</text>
<text x="379.089897" y="366.775035" fill="rgb(191,191,191)" stroke-width="0" font-weight="bold" font-size="16" >D</text>
<text x="512.397634" y="260.855460" fill="rgb(191,191,191)" stroke-width="0" font-weight="bold" font-size="16" >H</text>
<text x="340.299102" y="181.450211" fill="rgb(191,191,191)" stroke-width="0" font-weight="bold" font-size="16" >H</text>
<text x="473.554599" y="104.514502" fill="rgb(191,191,191)" stroke-width="0" font-weight="bold" font-size="16" >H</text>
<text x="340.299102" y="104.514502" fill="rgb(191,191,191)" stroke-width="0" font-weight="bold" font-size="16" >D</text>
<text x="220.915779" y="351.064953" fill="rgb(191,191,191)" stroke-width="0" font-weight="bold" font-size="16" >H</text>
<text x="196.861497" y="444.689062" fill="rgb(191,191,191)" stroke-width="0" font-weight="bold" font-size="16" >H</text>
<text x="231.439824" y="429.292422" fill="rgb(191,191,191)" stroke-width="0" font-weight="bold" font-size="16" >H</text>
<text x="298.977028" y="447.462546" fill="rgb(191,191,191)" stroke-width="0" font-weight="bold" font-size="16" >H</text>
<text x="155.734137" y="344.211976" fill="rgb(191,191,191)" stroke-width="0" font-weight="bold" font-size="16" >H</text>
<text x="141.804974" y="476.740858" fill="rgb(191,191,191)" stroke-width="0" font-weight="bold" font-size="16" >H</text>
<text x="79.221100" y="336.171720" fill="rgb(191,191,191)" stroke-width="0" font-weight="bold" font-size="16" >H</text>
<text x="65.291937" y="468.695852" fill="rgb(191,191,191)" stroke-width="0" font-weight="bold" font-size="16" >H</text>
<text x="34.000000" y="398.413658" fill="rgb(191,191,191)" stroke-width="0" font-weight="bold" font-size="16" >H</text>
<text x="368.508862" y="265.880027" fill="rgb(255,12,12)" stroke-width="0" font-weight="bold" font-size="16" >O</text>
<text x="490.513699" y="280.554801" fill="rgb(255,12,12)" stroke-width="0" font-weight="bold" font-size="16" >O</text>
<text x="458.590129" y="349.469250" fill="rgb(255,12,12)" stroke-width="0" font-weight="bold" font-size="16" >O</text>
<text x="327.353007" y="387.889613" fill="rgb(255,12,12)" stroke-width="0" font-weight="bold" font-size="16" >O</text>
<text x="489.183946" y="190.473534" fill="rgb(255,12,12)" stroke-width="0" font-weight="bold" font-size="16" >O</text>
<text x="275.155453" y="430.156761" fill="rgb(255,12,12)" stroke-width="0" font-weight="bold" font-size="16" >O</text>
<text x="285.085859" y="335.696808" fill="rgb(255,12,12)" stroke-width="0" font-weight="bold" font-size="16" >O</text>
<text x="406.929225" y="48.000000" fill="rgb(255,12,12)" stroke-width="0" font-weight="bold" font-size="16" >O</text>
<text x="406.929225" y="190.473534" fill="rgb(12,12,255)" stroke-width="0" font-weight="bold" font-size="16" >N</text>
<text x="448.056586" y="119.236767" fill="rgb(12,12,255)" stroke-width="0" font-weight="bold" font-size="16" >N</text>
<text x="232.893054" y="377.963956" fill="rgb(12,12,255)" stroke-width="0" font-weight="bold" font-size="16" >N</text>
<text x="280.123031" y="382.926785" fill="rgb(255,127,0)" stroke-width="0" font-weight="bold" font-size="16" >P</text>
</svg>
</g>
<text font-size="18.000000" fill ="black" font-family="sans-serif"
x="10.000000" y="20.000000" ></text>
</svg>
