<?xml version="1.0"?>
<svg version="1.1" id="topsvg"
xmlns="http://www.w3.org/2000/svg" xmlns:xlink="http://www.w3.org/1999/xlink"
xmlns:cml="http://www.xml-cml.org/schema" x="0" y="0" width="200px" height="200px" viewBox="0 0 100 100">
<title> - Open Babel Depiction</title>
<rect x="0" y="0" width="100" height="100" fill="transparent"/>
<g transform="translate(0,0)">
<svg width="100" height="100" x="0" y="0" viewBox="0 0 638.037 562.61"
font-family="sans-serif" stroke="rgb(0,0,0)" stroke-width="2"  stroke-linecap="round">
<line x1="334.7" y1="376.8" x2="333.1" y2="376.8" opacity="1.0" stroke="rgb(0,0,0)"  stroke-width="1.0"/>
<line x1="335.4" y1="382.1" x2="332.5" y2="382.1" opacity="1.0" stroke="rgb(0,0,0)"  stroke-width="1.0"/>
<line x1="336.0" y1="387.5" x2="331.8" y2="387.5" opacity="1.0" stroke="rgb(0,0,0)"  stroke-width="1.0"/>
<line x1="336.6" y1="392.8" x2="331.2" y2="392.8" opacity="1.0" stroke="rgb(0,0,0)"  stroke-width="1.0"/>
<line x1="337.3" y1="398.1" x2="330.6" y2="398.1" opacity="1.0" stroke="rgb(0,0,0)"  stroke-width="1.0"/>
<line x1="337.9" y1="403.4" x2="329.9" y2="403.4" opacity="1.0" stroke="rgb(0,0,0)"  stroke-width="1.0"/>
<line x1="345.2" y1="426.3" x2="349.3" y2="428.7" opacity="1.0" stroke="rgb(0,0,0)"  stroke-width="4.0"/>
<polygon points="396.362886 258.130268 429.238658 264.668440 426.753039 272.272498 " stroke-width="2.000000" fill="rgb(0,0,0)"  stroke="rgb(0,0,0)" />
<line x1="453.3" y1="264.9" x2="456.8" y2="261.7" opacity="1.0" stroke="rgb(0,0,0)"  stroke-width="4.0"/>
<line x1="109.6" y1="393.5" x2="78.0" y2="374.8" opacity="1.0" stroke="rgb(0,0,0)"  stroke-width="4.0"/>
<line x1="55.5" y1="374.6" x2="51.3" y2="376.9" opacity="1.0" stroke="rgb(0,0,0)"  stroke-width="4.0"/>
<line x1="411.8" y1="210.9" x2="387.3" y2="183.6" opacity="1.0" stroke="rgb(0,0,0)"  stroke-width="4.0"/>
<line x1="382.7" y1="161.6" x2="384.2" y2="157.0" opacity="1.0" stroke="rgb(0,0,0)"  stroke-width="4.0"/>
<line x1="244.2" y1="509.6" x2="244.1" y2="472.9" opacity="1.0" stroke="rgb(0,0,0)"  stroke-width="4.0"/>
<line x1="250.2" y1="509.6" x2="250.1" y2="472.9" opacity="1.0" stroke="rgb(0,0,0)"  stroke-width="4.0"/>
<line x1="109.2" y1="447.4" x2="77.3" y2="465.6" opacity="1.0" stroke="rgb(0,0,0)"  stroke-width="4.0"/>
<line x1="66.0" y1="485.1" x2="66.0" y2="489.9" opacity="1.0" stroke="rgb(0,0,0)"  stroke-width="4.0"/>
<line x1="575.7" y1="88.4" x2="539.9" y2="96.0" opacity="1.0" stroke="rgb(0,0,0)"  stroke-width="4.0"/>
<line x1="592.5" y1="73.4" x2="594.0" y2="68.8" opacity="1.0" stroke="rgb(0,0,0)"  stroke-width="4.0"/>
<polygon points="333.929964 320.483714 329.929964 270.811567 337.929964 270.811567 " stroke-width="2.000000" fill="rgb(0,0,0)"  stroke="rgb(0,0,0)" />
<line x1="380.9" y1="305.3" x2="396.4" y2="258.1" opacity="1.0" stroke="rgb(0,0,0)"  stroke-width="4.0"/>
<line x1="386.4" y1="303.7" x2="386.6" y2="305.3" opacity="1.0" stroke="rgb(0,0,0)"  stroke-width="1.0"/>
<line x1="390.8" y1="302.3" x2="391.2" y2="305.2" opacity="1.0" stroke="rgb(0,0,0)"  stroke-width="1.0"/>
<line x1="395.1" y1="301.0" x2="395.8" y2="305.1" opacity="1.0" stroke="rgb(0,0,0)"  stroke-width="1.0"/>
<line x1="399.5" y1="299.7" x2="400.4" y2="305.0" opacity="1.0" stroke="rgb(0,0,0)"  stroke-width="1.0"/>
<line x1="403.9" y1="298.3" x2="404.9" y2="305.0" opacity="1.0" stroke="rgb(0,0,0)"  stroke-width="1.0"/>
<line x1="408.3" y1="297.0" x2="409.5" y2="304.9" opacity="1.0" stroke="rgb(0,0,0)"  stroke-width="1.0"/>
<line x1="252.4" y1="366.6" x2="253.2" y2="368.0" opacity="1.0" stroke="rgb(0,0,0)"  stroke-width="1.0"/>
<line x1="256.0" y1="363.8" x2="257.4" y2="366.3" opacity="1.0" stroke="rgb(0,0,0)"  stroke-width="1.0"/>
<line x1="259.6" y1="361.0" x2="261.7" y2="364.6" opacity="1.0" stroke="rgb(0,0,0)"  stroke-width="1.0"/>
<line x1="263.2" y1="358.2" x2="265.9" y2="362.9" opacity="1.0" stroke="rgb(0,0,0)"  stroke-width="1.0"/>
<line x1="266.8" y1="355.4" x2="270.2" y2="361.2" opacity="1.0" stroke="rgb(0,0,0)"  stroke-width="1.0"/>
<line x1="270.4" y1="352.5" x2="274.4" y2="359.5" opacity="1.0" stroke="rgb(0,0,0)"  stroke-width="1.0"/>
<polygon points="202.696151 395.329706 199.078745 345.626759 207.078508 345.688357 " stroke-width="2.000000" fill="rgb(0,0,0)"  stroke="rgb(0,0,0)" />
<line x1="290.9" y1="295.6" x2="302.4" y2="282.0" opacity="1.0" stroke="rgb(0,0,0)"  stroke-width="4.0"/>
<line x1="290.9" y1="295.6" x2="279.5" y2="282.0" opacity="1.0" stroke="rgb(0,0,0)"  stroke-width="4.0"/>
<line x1="380.9" y1="385.3" x2="373.7" y2="401.6" opacity="1.0" stroke="rgb(0,0,0)"  stroke-width="4.0"/>
<line x1="380.9" y1="385.3" x2="396.4" y2="394.2" opacity="1.0" stroke="rgb(0,0,0)"  stroke-width="4.0"/>
<line x1="409.9" y1="345.3" x2="423.1" y2="357.2" opacity="1.0" stroke="rgb(0,0,0)"  stroke-width="4.0"/>
<line x1="409.9" y1="345.3" x2="423.2" y2="333.4" opacity="1.0" stroke="rgb(0,0,0)"  stroke-width="4.0"/>
<line x1="247.9" y1="320.5" x2="241.8" y2="303.8" opacity="1.0" stroke="rgb(0,0,0)"  stroke-width="4.0"/>
<line x1="247.9" y1="320.5" x2="230.4" y2="323.6" opacity="1.0" stroke="rgb(0,0,0)"  stroke-width="4.0"/>
<polygon points="202.298774 447.068214 206.405243 475.341443 198.405299 475.371561 " stroke-width="2.000000" fill="rgb(0,0,0)"  stroke="rgb(0,0,0)" />
<line x1="396.4" y1="258.1" x2="411.8" y2="210.9" opacity="1.0" stroke="rgb(0,0,0)"  stroke-width="4.0"/>
<line x1="396.4" y1="258.1" x2="349.1" y2="242.7" opacity="1.0" stroke="rgb(0,0,0)"  stroke-width="4.0"/>
<line x1="333.9" y1="270.8" x2="351.7" y2="270.8" opacity="1.0" stroke="rgb(0,0,0)"  stroke-width="4.0"/>
<line x1="333.9" y1="270.8" x2="333.9" y2="253.0" opacity="1.0" stroke="rgb(0,0,0)"  stroke-width="4.0"/>
<line x1="333.9" y1="270.8" x2="316.1" y2="270.8" opacity="1.0" stroke="rgb(0,0,0)"  stroke-width="4.0"/>
<line x1="156.7" y1="367.3" x2="168.4" y2="353.9" opacity="1.0" stroke="rgb(0,0,0)"  stroke-width="4.0"/>
<line x1="156.7" y1="367.3" x2="145.5" y2="353.5" opacity="1.0" stroke="rgb(0,0,0)"  stroke-width="4.0"/>
<line x1="291.7" y1="446.7" x2="307.2" y2="455.4" opacity="1.0" stroke="rgb(0,0,0)"  stroke-width="4.0"/>
<line x1="155.8" y1="474.4" x2="144.4" y2="488.0" opacity="1.0" stroke="rgb(0,0,0)"  stroke-width="4.0"/>
<line x1="155.8" y1="474.4" x2="167.3" y2="487.9" opacity="1.0" stroke="rgb(0,0,0)"  stroke-width="4.0"/>
<line x1="203.1" y1="345.7" x2="220.9" y2="345.8" opacity="1.0" stroke="rgb(0,0,0)"  stroke-width="4.0"/>
<line x1="203.1" y1="345.7" x2="203.2" y2="327.9" opacity="1.0" stroke="rgb(0,0,0)"  stroke-width="4.0"/>
<line x1="203.1" y1="345.7" x2="185.3" y2="345.5" opacity="1.0" stroke="rgb(0,0,0)"  stroke-width="4.0"/>
<line x1="108.8" y1="389.4" x2="110.4" y2="389.4" opacity="1.0" stroke="rgb(0,0,0)"  stroke-width="1.0"/>
<line x1="108.2" y1="386.1" x2="111.1" y2="386.1" opacity="1.0" stroke="rgb(0,0,0)"  stroke-width="1.0"/>
<line x1="107.6" y1="382.8" x2="111.8" y2="382.8" opacity="1.0" stroke="rgb(0,0,0)"  stroke-width="1.0"/>
<line x1="107.0" y1="379.5" x2="112.5" y2="379.5" opacity="1.0" stroke="rgb(0,0,0)"  stroke-width="1.0"/>
<line x1="106.4" y1="376.2" x2="113.2" y2="376.2" opacity="1.0" stroke="rgb(0,0,0)"  stroke-width="1.0"/>
<line x1="105.9" y1="372.8" x2="113.9" y2="373.0" opacity="1.0" stroke="rgb(0,0,0)"  stroke-width="1.0"/>
<line x1="411.8" y1="210.9" x2="460.4" y2="200.7" opacity="1.0" stroke="rgb(0,0,0)"  stroke-width="4.0"/>
<polygon points="411.796022 210.916892 392.429338 219.084222 390.780344 211.256016 " stroke-width="2.000000" fill="rgb(0,0,0)"  stroke="rgb(0,0,0)" />
<line x1="105.2" y1="446.0" x2="106.0" y2="444.7" opacity="1.0" stroke="rgb(0,0,0)"  stroke-width="1.0"/>
<line x1="102.0" y1="444.9" x2="103.5" y2="442.4" opacity="1.0" stroke="rgb(0,0,0)"  stroke-width="1.0"/>
<line x1="98.8" y1="443.8" x2="100.9" y2="440.2" opacity="1.0" stroke="rgb(0,0,0)"  stroke-width="1.0"/>
<line x1="95.7" y1="442.7" x2="98.4" y2="438.0" opacity="1.0" stroke="rgb(0,0,0)"  stroke-width="1.0"/>
<line x1="92.5" y1="441.6" x2="95.9" y2="435.8" opacity="1.0" stroke="rgb(0,0,0)"  stroke-width="1.0"/>
<line x1="89.3" y1="440.5" x2="93.4" y2="433.6" opacity="1.0" stroke="rgb(0,0,0)"  stroke-width="1.0"/>
<line x1="349.1" y1="242.7" x2="354.7" y2="225.8" opacity="1.0" stroke="rgb(0,0,0)"  stroke-width="4.0"/>
<line x1="349.1" y1="242.7" x2="332.2" y2="237.2" opacity="1.0" stroke="rgb(0,0,0)"  stroke-width="4.0"/>
<line x1="349.1" y1="242.7" x2="343.6" y2="259.6" opacity="1.0" stroke="rgb(0,0,0)"  stroke-width="4.0"/>
<line x1="475.8" y1="153.5" x2="460.4" y2="200.7" opacity="1.0" stroke="rgb(0,0,0)"  stroke-width="4.0"/>
<line x1="460.4" y1="200.7" x2="461.0" y2="218.5" opacity="1.0" stroke="rgb(0,0,0)"  stroke-width="4.0"/>
<line x1="460.4" y1="200.7" x2="478.0" y2="203.2" opacity="1.0" stroke="rgb(0,0,0)"  stroke-width="4.0"/>
<line x1="475.8" y1="153.5" x2="524.4" y2="143.2" opacity="1.0" stroke="rgb(0,0,0)"  stroke-width="4.0"/>
<line x1="475.8" y1="153.5" x2="442.7" y2="116.5" opacity="1.0" stroke="rgb(0,0,0)"  stroke-width="4.0"/>
<line x1="479.2" y1="156.0" x2="478.0" y2="157.1" opacity="1.0" stroke="rgb(0,0,0)"  stroke-width="1.0"/>
<line x1="481.9" y1="158.0" x2="479.7" y2="160.0" opacity="1.0" stroke="rgb(0,0,0)"  stroke-width="1.0"/>
<line x1="484.5" y1="160.1" x2="481.4" y2="162.8" opacity="1.0" stroke="rgb(0,0,0)"  stroke-width="1.0"/>
<line x1="487.2" y1="162.1" x2="483.2" y2="165.7" opacity="1.0" stroke="rgb(0,0,0)"  stroke-width="1.0"/>
<line x1="489.9" y1="164.1" x2="484.9" y2="168.6" opacity="1.0" stroke="rgb(0,0,0)"  stroke-width="1.0"/>
<line x1="492.6" y1="166.1" x2="486.6" y2="171.5" opacity="1.0" stroke="rgb(0,0,0)"  stroke-width="1.0"/>
<line x1="524.4" y1="143.2" x2="539.9" y2="96.0" opacity="1.0" stroke="rgb(0,0,0)"  stroke-width="4.0"/>
<line x1="524.4" y1="143.2" x2="557.6" y2="180.2" opacity="1.0" stroke="rgb(0,0,0)"  stroke-width="4.0"/>
<line x1="524.4" y1="143.2" x2="518.9" y2="160.1" opacity="1.0" stroke="rgb(0,0,0)"  stroke-width="4.0"/>
<line x1="442.7" y1="116.5" x2="458.1" y2="69.3" opacity="1.0" stroke="rgb(0,0,0)"  stroke-width="4.0"/>
<line x1="442.7" y1="116.5" x2="427.0" y2="108.1" opacity="1.0" stroke="rgb(0,0,0)"  stroke-width="4.0"/>
<line x1="442.7" y1="116.5" x2="431.7" y2="130.5" opacity="1.0" stroke="rgb(0,0,0)"  stroke-width="4.0"/>
<line x1="539.9" y1="96.0" x2="539.3" y2="78.2" opacity="1.0" stroke="rgb(0,0,0)"  stroke-width="4.0"/>
<line x1="539.9" y1="96.0" x2="522.2" y2="93.5" opacity="1.0" stroke="rgb(0,0,0)"  stroke-width="4.0"/>
<line x1="557.6" y1="180.2" x2="544.4" y2="192.1" opacity="1.0" stroke="rgb(0,0,0)"  stroke-width="4.0"/>
<line x1="557.6" y1="180.2" x2="569.5" y2="193.4" opacity="1.0" stroke="rgb(0,0,0)"  stroke-width="4.0"/>
<line x1="557.6" y1="180.2" x2="570.9" y2="168.3" opacity="1.0" stroke="rgb(0,0,0)"  stroke-width="4.0"/>
<line x1="458.1" y1="69.3" x2="475.0" y2="74.8" opacity="1.0" stroke="rgb(0,0,0)"  stroke-width="4.0"/>
<line x1="458.1" y1="69.3" x2="463.6" y2="52.4" opacity="1.0" stroke="rgb(0,0,0)"  stroke-width="4.0"/>
<line x1="458.1" y1="69.3" x2="441.2" y2="63.7" opacity="1.0" stroke="rgb(0,0,0)"  stroke-width="4.0"/>
<line x1="380.9" y1="385.3" x2="333.9" y2="370.2" opacity="1.0" stroke="rgb(0,0,0)"  stroke-width="4.0"/>
<line x1="333.9" y1="370.2" x2="333.9" y2="320.5" opacity="1.0" stroke="rgb(0,0,0)"  stroke-width="4.0"/>
<line x1="333.9" y1="320.5" x2="380.9" y2="305.3" opacity="1.0" stroke="rgb(0,0,0)"  stroke-width="4.0"/>
<line x1="380.9" y1="305.3" x2="409.9" y2="345.3" opacity="1.0" stroke="rgb(0,0,0)"  stroke-width="4.0"/>
<line x1="409.9" y1="345.3" x2="380.9" y2="385.3" opacity="1.0" stroke="rgb(0,0,0)"  stroke-width="4.0"/>
<line x1="333.9" y1="370.2" x2="290.9" y2="395.0" opacity="1.0" stroke="rgb(0,0,0)"  stroke-width="4.0"/>
<line x1="290.9" y1="395.0" x2="247.9" y2="370.2" opacity="1.0" stroke="rgb(0,0,0)"  stroke-width="4.0"/>
<line x1="247.9" y1="370.2" x2="247.9" y2="320.5" opacity="1.0" stroke="rgb(0,0,0)"  stroke-width="4.0"/>
<line x1="247.9" y1="320.5" x2="290.9" y2="295.6" opacity="1.0" stroke="rgb(0,0,0)"  stroke-width="4.0"/>
<line x1="290.9" y1="295.6" x2="333.9" y2="320.5" opacity="1.0" stroke="rgb(0,0,0)"  stroke-width="4.0"/>
<line x1="291.7" y1="446.7" x2="247.1" y2="472.9" opacity="1.0" stroke="rgb(0,0,0)"  stroke-width="4.0"/>
<line x1="247.1" y1="472.9" x2="202.3" y2="447.1" opacity="1.0" stroke="rgb(0,0,0)"  stroke-width="4.0"/>
<line x1="202.3" y1="447.1" x2="202.7" y2="395.3" opacity="1.0" stroke="rgb(0,0,0)"  stroke-width="4.0"/>
<line x1="202.7" y1="395.3" x2="247.9" y2="370.2" opacity="1.0" stroke="rgb(0,0,0)"  stroke-width="4.0"/>
<line x1="290.9" y1="395.0" x2="291.7" y2="446.7" opacity="1.0" stroke="rgb(0,0,0)"  stroke-width="4.0"/>
<line x1="283.8" y1="401.1" x2="284.4" y2="440.8" opacity="1.0" stroke="rgb(0,0,0)"  stroke-width="4.0"/>
<line x1="202.7" y1="395.3" x2="156.7" y2="367.3" opacity="1.0" stroke="rgb(0,0,0)"  stroke-width="4.0"/>
<line x1="156.7" y1="367.3" x2="109.6" y2="393.5" opacity="1.0" stroke="rgb(0,0,0)"  stroke-width="4.0"/>
<line x1="109.6" y1="393.5" x2="109.2" y2="447.4" opacity="1.0" stroke="rgb(0,0,0)"  stroke-width="4.0"/>
<line x1="109.2" y1="447.4" x2="155.8" y2="474.4" opacity="1.0" stroke="rgb(0,0,0)"  stroke-width="4.0"/>
<line x1="155.8" y1="474.4" x2="202.3" y2="447.1" opacity="1.0" stroke="rgb(0,0,0)"  stroke-width="4.0"/>
<text x="312.561402" y="469.810907" fill="rgb(191,191,191)" stroke-width="0" font-weight="bold" font-size="16" >H</text>
<text x="352.716366" y="221.425335" fill="rgb(191,191,191)" stroke-width="0" font-weight="bold" font-size="16" >H</text>
<text x="76.578965" y="439.873504" fill="rgb(191,191,191)" stroke-width="0" font-weight="bold" font-size="16" >H</text>
<text x="375.659931" y="225.264992" fill="rgb(191,191,191)" stroke-width="0" font-weight="bold" font-size="16" >H</text>
<text x="354.603907" y="443.226374" fill="rgb(191,191,191)" stroke-width="0" font-weight="bold" font-size="16" >H</text>
<text x="103.988056" y="370.739810" fill="rgb(191,191,191)" stroke-width="0" font-weight="bold" font-size="16" >H</text>
<text x="166.281895" y="353.424099" fill="rgb(191,191,191)" stroke-width="0" font-weight="bold" font-size="16" >H</text>
<text x="197.317053" y="322.865794" fill="rgb(191,191,191)" stroke-width="0" font-weight="bold" font-size="16" >H</text>
<text x="227.875358" y="353.895985" fill="rgb(191,191,191)" stroke-width="0" font-weight="bold" font-size="16" >H</text>
<text x="169.749011" y="505.862952" fill="rgb(191,191,191)" stroke-width="0" font-weight="bold" font-size="16" >H</text>
<text x="130.095736" y="506.016936" fill="rgb(191,191,191)" stroke-width="0" font-weight="bold" font-size="16" >H</text>
<text x="313.877714" y="241.130276" fill="rgb(191,191,191)" stroke-width="0" font-weight="bold" font-size="16" >H</text>
<text x="131.287868" y="351.367672" fill="rgb(191,191,191)" stroke-width="0" font-weight="bold" font-size="16" >H</text>
<text x="170.936176" y="352.132623" fill="rgb(191,191,191)" stroke-width="0" font-weight="bold" font-size="16" >H</text>
<text x="297.133233" y="278.811567" fill="rgb(191,191,191)" stroke-width="0" font-weight="bold" font-size="16" >H</text>
<text x="327.929964" y="248.014835" fill="rgb(191,191,191)" stroke-width="0" font-weight="bold" font-size="16" >H</text>
<text x="358.726696" y="278.811567" fill="rgb(191,191,191)" stroke-width="0" font-weight="bold" font-size="16" >H</text>
<text x="196.457725" y="497.289539" fill="rgb(191,191,191)" stroke-width="0" font-weight="bold" font-size="16" >H</text>
<text x="211.567992" y="333.828437" fill="rgb(191,191,191)" stroke-width="0" font-weight="bold" font-size="16" >H</text>
<text x="231.362343" y="299.544721" fill="rgb(191,191,191)" stroke-width="0" font-weight="bold" font-size="16" >H</text>
<text x="426.812308" y="332.715781" fill="rgb(191,191,191)" stroke-width="0" font-weight="bold" font-size="16" >H</text>
<text x="409.491630" y="109.980905" fill="rgb(191,191,191)" stroke-width="0" font-weight="bold" font-size="16" >H</text>
<text x="592.036771" y="64.486186" fill="rgb(191,191,191)" stroke-width="0" font-weight="bold" font-size="16" >H</text>
<text x="422.813700" y="67.704941" fill="rgb(191,191,191)" stroke-width="0" font-weight="bold" font-size="16" >H</text>
<text x="461.657319" y="48.000000" fill="rgb(191,191,191)" stroke-width="0" font-weight="bold" font-size="16" >H</text>
<text x="481.362260" y="86.838652" fill="rgb(191,191,191)" stroke-width="0" font-weight="bold" font-size="16" >H</text>
<text x="574.532307" y="167.620465" fill="rgb(191,191,191)" stroke-width="0" font-weight="bold" font-size="16" >H</text>
<text x="572.177847" y="211.108430" fill="rgb(191,191,191)" stroke-width="0" font-weight="bold" font-size="16" >H</text>
<text x="528.684915" y="208.753970" fill="rgb(191,191,191)" stroke-width="0" font-weight="bold" font-size="16" >H</text>
<text x="503.376956" y="99.664000" fill="rgb(191,191,191)" stroke-width="0" font-weight="bold" font-size="16" >H</text>
<text x="532.847441" y="73.223516" fill="rgb(191,191,191)" stroke-width="0" font-weight="bold" font-size="16" >H</text>
<text x="417.657731" y="148.725180" fill="rgb(191,191,191)" stroke-width="0" font-weight="bold" font-size="16" >H</text>
<text x="426.812308" y="373.918827" fill="rgb(191,191,191)" stroke-width="0" font-weight="bold" font-size="16" >H</text>
<text x="508.870695" y="180.490518" fill="rgb(191,191,191)" stroke-width="0" font-weight="bold" font-size="16" >H</text>
<text x="59.928861" y="510.894740" fill="rgb(191,191,191)" stroke-width="0" font-weight="bold" font-size="16" >H</text>
<text x="382.191818" y="152.674116" fill="rgb(191,191,191)" stroke-width="0" font-weight="bold" font-size="16" >H</text>
<text x="34.000000" y="391.294144" fill="rgb(191,191,191)" stroke-width="0" font-weight="bold" font-size="16" >H</text>
<text x="490.397624" y="184.379848" fill="rgb(191,191,191)" stroke-width="0" font-weight="bold" font-size="16" >H</text>
<text x="484.888982" y="213.010873" fill="rgb(191,191,191)" stroke-width="0" font-weight="bold" font-size="16" >H</text>
<text x="455.423465" y="239.451357" fill="rgb(191,191,191)" stroke-width="0" font-weight="bold" font-size="16" >H</text>
<text x="460.499958" y="260.994168" fill="rgb(191,191,191)" stroke-width="0" font-weight="bold" font-size="16" >H</text>
<text x="333.582655" y="279.973895" fill="rgb(191,191,191)" stroke-width="0" font-weight="bold" font-size="16" >H</text>
<text x="582.469916" y="93.757982" fill="rgb(255,12,12)" stroke-width="0" font-weight="bold" font-size="16" >O</text>
<text x="60.048074" y="480.098009" fill="rgb(255,12,12)" stroke-width="0" font-weight="bold" font-size="16" >O</text>
<text x="241.296772" y="530.609616" fill="rgb(255,12,12)" stroke-width="0" font-weight="bold" font-size="16" >O</text>
<text x="372.624962" y="181.945912" fill="rgb(255,12,12)" stroke-width="0" font-weight="bold" font-size="16" >O</text>
<text x="60.847796" y="376.203746" fill="rgb(255,12,12)" stroke-width="0" font-weight="bold" font-size="16" >O</text>
<text x="437.576262" y="281.563404" fill="rgb(255,12,12)" stroke-width="0" font-weight="bold" font-size="16" >O</text>
<text x="401.623562" y="408.649593" fill="rgb(191,191,191)" stroke-width="0" font-weight="bold" font-size="16" >H</text>
<text x="362.462041" y="421.450105" fill="rgb(191,191,191)" stroke-width="0" font-weight="bold" font-size="16" >H</text>
<text x="265.119534" y="280.053370" fill="rgb(191,191,191)" stroke-width="0" font-weight="bold" font-size="16" >H</text>
<text x="304.713203" y="280.053370" fill="rgb(191,191,191)" stroke-width="0" font-weight="bold" font-size="16" >H</text>
<text x="278.461473" y="357.045199" fill="rgb(191,191,191)" stroke-width="0" font-weight="bold" font-size="16" >H</text>
<text x="416.644419" y="306.796855" fill="rgb(191,191,191)" stroke-width="0" font-weight="bold" font-size="16" >H</text>
<text x="327.929964" y="427.828009" fill="rgb(255,12,12)" stroke-width="0" font-weight="bold" font-size="16" >O</text>
</svg>
</g>
<text font-size="18.000000" fill ="black" font-family="sans-serif"
x="10.000000" y="20.000000" ></text>
</svg>
