<?xml version="1.0"?>
<svg version="1.1" id="topsvg"
xmlns="http://www.w3.org/2000/svg" xmlns:xlink="http://www.w3.org/1999/xlink"
xmlns:cml="http://www.xml-cml.org/schema" x="0" y="0" width="200px" height="200px" viewBox="0 0 100 100">
<title> - Open Babel Depiction</title>
<rect x="0" y="0" width="100" height="100" fill="transparent"/>
<g transform="translate(0,0)">
<svg width="100" height="100" x="0" y="0" viewBox="0 0 345.698 530.579"
font-family="sans-serif" stroke="rgb(0,0,0)" stroke-width="2"  stroke-linecap="round">
<line x1="151.9" y1="428.0" x2="151.9" y2="462.8" opacity="1.0" stroke="rgb(0,0,0)"  stroke-width="4.0"/>
<line x1="140.7" y1="482.3" x2="137.5" y2="484.1" opacity="1.0" stroke="rgb(0,0,0)"  stroke-width="4.0"/>
<line x1="110.6" y1="404.1" x2="80.4" y2="421.5" opacity="1.0" stroke="rgb(0,0,0)"  stroke-width="4.0"/>
<line x1="57.9" y1="421.5" x2="54.8" y2="419.7" opacity="1.0" stroke="rgb(0,0,0)"  stroke-width="4.0"/>
<line x1="193.3" y1="356.3" x2="223.4" y2="338.9" opacity="1.0" stroke="rgb(0,0,0)"  stroke-width="4.0"/>
<line x1="234.7" y1="319.4" x2="234.7" y2="284.6" opacity="1.0" stroke="rgb(0,0,0)"  stroke-width="4.0"/>
<line x1="193.3" y1="404.1" x2="223.4" y2="421.5" opacity="1.0" stroke="rgb(0,0,0)"  stroke-width="4.0"/>
<line x1="245.9" y1="421.5" x2="249.1" y2="419.7" opacity="1.0" stroke="rgb(0,0,0)"  stroke-width="4.0"/>
<line x1="69.2" y1="297.6" x2="69.2" y2="332.4" opacity="1.0" stroke="rgb(0,0,0)"  stroke-width="4.0"/>
<line x1="57.9" y1="278.1" x2="54.8" y2="276.3" opacity="1.0" stroke="rgb(0,0,0)"  stroke-width="4.0"/>
<line x1="163.2" y1="195.6" x2="193.3" y2="213.0" opacity="1.0" stroke="rgb(0,0,0)"  stroke-width="4.0"/>
<line x1="140.7" y1="195.6" x2="137.5" y2="197.4" opacity="1.0" stroke="rgb(0,0,0)"  stroke-width="4.0"/>
<line x1="264.8" y1="123.9" x2="234.7" y2="141.3" opacity="1.0" stroke="rgb(0,0,0)"  stroke-width="4.0"/>
<line x1="276.1" y1="104.4" x2="276.1" y2="69.6" opacity="1.0" stroke="rgb(0,0,0)"  stroke-width="4.0"/>
<line x1="206.1" y1="121.3" x2="236.2" y2="138.7" opacity="1.0" stroke="rgb(0,0,0)"  stroke-width="4.0"/>
<line x1="203.1" y1="126.5" x2="233.2" y2="143.9" opacity="1.0" stroke="rgb(0,0,0)"  stroke-width="4.0"/>
<line x1="148.9" y1="430.7" x2="148.1" y2="429.3" opacity="1.0" stroke="rgb(0,0,0)"  stroke-width="1.0"/>
<line x1="146.5" y1="432.8" x2="145.0" y2="430.3" opacity="1.0" stroke="rgb(0,0,0)"  stroke-width="1.0"/>
<line x1="144.0" y1="434.9" x2="142.0" y2="431.3" opacity="1.0" stroke="rgb(0,0,0)"  stroke-width="1.0"/>
<line x1="141.6" y1="437.1" x2="138.9" y2="432.4" opacity="1.0" stroke="rgb(0,0,0)"  stroke-width="1.0"/>
<line x1="139.2" y1="439.2" x2="135.8" y2="433.4" opacity="1.0" stroke="rgb(0,0,0)"  stroke-width="1.0"/>
<line x1="136.7" y1="441.4" x2="132.7" y2="434.4" opacity="1.0" stroke="rgb(0,0,0)"  stroke-width="1.0"/>
<polygon points="110.554124 404.094828 114.554124 423.943252 106.554124 423.943252 " stroke-width="2.000000" fill="rgb(0,0,0)"  stroke="rgb(0,0,0)" />
<polygon points="193.311636 404.094828 197.311636 423.943252 189.311636 423.943252 " stroke-width="2.000000" fill="rgb(0,0,0)"  stroke="rgb(0,0,0)" />
<line x1="110.6" y1="356.3" x2="69.2" y2="332.4" opacity="1.0" stroke="rgb(0,0,0)"  stroke-width="4.0"/>
<line x1="109.8" y1="352.3" x2="111.4" y2="352.3" opacity="1.0" stroke="rgb(0,0,0)"  stroke-width="1.0"/>
<line x1="109.1" y1="349.2" x2="112.0" y2="349.2" opacity="1.0" stroke="rgb(0,0,0)"  stroke-width="1.0"/>
<line x1="108.5" y1="346.0" x2="112.6" y2="346.0" opacity="1.0" stroke="rgb(0,0,0)"  stroke-width="1.0"/>
<line x1="107.8" y1="342.8" x2="113.3" y2="342.8" opacity="1.0" stroke="rgb(0,0,0)"  stroke-width="1.0"/>
<line x1="107.2" y1="339.6" x2="113.9" y2="339.6" opacity="1.0" stroke="rgb(0,0,0)"  stroke-width="1.0"/>
<line x1="106.6" y1="336.5" x2="114.6" y2="336.5" opacity="1.0" stroke="rgb(0,0,0)"  stroke-width="1.0"/>
<line x1="192.5" y1="352.3" x2="194.1" y2="352.3" opacity="1.0" stroke="rgb(0,0,0)"  stroke-width="1.0"/>
<line x1="191.9" y1="349.2" x2="194.8" y2="349.2" opacity="1.0" stroke="rgb(0,0,0)"  stroke-width="1.0"/>
<line x1="191.2" y1="346.0" x2="195.4" y2="346.0" opacity="1.0" stroke="rgb(0,0,0)"  stroke-width="1.0"/>
<line x1="190.6" y1="342.8" x2="196.0" y2="342.8" opacity="1.0" stroke="rgb(0,0,0)"  stroke-width="1.0"/>
<line x1="190.0" y1="339.6" x2="196.7" y2="339.6" opacity="1.0" stroke="rgb(0,0,0)"  stroke-width="1.0"/>
<line x1="189.3" y1="336.5" x2="197.3" y2="336.5" opacity="1.0" stroke="rgb(0,0,0)"  stroke-width="1.0"/>
<line x1="69.2" y1="332.4" x2="52.8" y2="329.5" opacity="1.0" stroke="rgb(0,0,0)"  stroke-width="4.0"/>
<line x1="69.2" y1="332.4" x2="63.5" y2="348.0" opacity="1.0" stroke="rgb(0,0,0)"  stroke-width="4.0"/>
<line x1="193.3" y1="260.8" x2="178.9" y2="269.1" opacity="1.0" stroke="rgb(0,0,0)"  stroke-width="4.0"/>
<line x1="276.1" y1="260.8" x2="290.5" y2="269.1" opacity="1.0" stroke="rgb(0,0,0)"  stroke-width="4.0"/>
<line x1="276.1" y1="213.0" x2="290.5" y2="204.7" opacity="1.0" stroke="rgb(0,0,0)"  stroke-width="4.0"/>
<line x1="234.7" y1="189.1" x2="234.7" y2="141.3" opacity="1.0" stroke="rgb(0,0,0)"  stroke-width="4.0"/>
<line x1="276.1" y1="69.6" x2="292.7" y2="69.6" opacity="1.0" stroke="rgb(0,0,0)"  stroke-width="4.0"/>
<line x1="276.1" y1="69.6" x2="276.1" y2="53.0" opacity="1.0" stroke="rgb(0,0,0)"  stroke-width="4.0"/>
<line x1="276.1" y1="69.6" x2="259.4" y2="69.6" opacity="1.0" stroke="rgb(0,0,0)"  stroke-width="4.0"/>
<line x1="193.3" y1="260.8" x2="234.7" y2="284.6" opacity="1.0" stroke="rgb(0,0,0)"  stroke-width="4.0"/>
<line x1="202.1" y1="257.5" x2="233.1" y2="275.4" opacity="1.0" stroke="rgb(0,0,0)"  stroke-width="4.0"/>
<line x1="234.7" y1="284.6" x2="276.1" y2="260.8" opacity="1.0" stroke="rgb(0,0,0)"  stroke-width="4.0"/>
<line x1="276.1" y1="260.8" x2="276.1" y2="213.0" opacity="1.0" stroke="rgb(0,0,0)"  stroke-width="4.0"/>
<line x1="268.9" y1="254.8" x2="268.9" y2="219.0" opacity="1.0" stroke="rgb(0,0,0)"  stroke-width="4.0"/>
<line x1="276.1" y1="213.0" x2="234.7" y2="189.1" opacity="1.0" stroke="rgb(0,0,0)"  stroke-width="4.0"/>
<line x1="234.7" y1="189.1" x2="193.3" y2="213.0" opacity="1.0" stroke="rgb(0,0,0)"  stroke-width="4.0"/>
<line x1="233.1" y1="198.3" x2="202.1" y2="216.2" opacity="1.0" stroke="rgb(0,0,0)"  stroke-width="4.0"/>
<line x1="193.3" y1="213.0" x2="193.3" y2="260.8" opacity="1.0" stroke="rgb(0,0,0)"  stroke-width="4.0"/>
<line x1="151.9" y1="428.0" x2="110.6" y2="404.1" opacity="1.0" stroke="rgb(0,0,0)"  stroke-width="4.0"/>
<line x1="110.6" y1="404.1" x2="110.6" y2="356.3" opacity="1.0" stroke="rgb(0,0,0)"  stroke-width="4.0"/>
<line x1="110.6" y1="356.3" x2="140.7" y2="338.9" opacity="1.0" stroke="rgb(0,0,0)"  stroke-width="4.0"/>
<line x1="163.2" y1="338.9" x2="193.3" y2="356.3" opacity="1.0" stroke="rgb(0,0,0)"  stroke-width="4.0"/>
<line x1="193.3" y1="356.3" x2="193.3" y2="404.1" opacity="1.0" stroke="rgb(0,0,0)"  stroke-width="4.0"/>
<line x1="193.3" y1="404.1" x2="151.9" y2="428.0" opacity="1.0" stroke="rgb(0,0,0)"  stroke-width="4.0"/>
<text x="37.516716" y="421.173308" fill="rgb(191,191,191)" stroke-width="0" font-weight="bold" font-size="16" >H</text>
<text x="120.274228" y="450.797821" fill="rgb(191,191,191)" stroke-width="0" font-weight="bold" font-size="16" >H</text>
<text x="104.554124" y="441.719341" fill="rgb(191,191,191)" stroke-width="0" font-weight="bold" font-size="16" >H</text>
<text x="187.311636" y="441.719341" fill="rgb(191,191,191)" stroke-width="0" font-weight="bold" font-size="16" >H</text>
<text x="104.554124" y="334.688841" fill="rgb(191,191,191)" stroke-width="0" font-weight="bold" font-size="16" >H</text>
<text x="187.311636" y="334.688841" fill="rgb(191,191,191)" stroke-width="0" font-weight="bold" font-size="16" >H</text>
<text x="34.000000" y="335.276553" fill="rgb(191,191,191)" stroke-width="0" font-weight="bold" font-size="16" >H</text>
<text x="53.040917" y="368.260104" fill="rgb(191,191,191)" stroke-width="0" font-weight="bold" font-size="16" >H</text>
<text x="120.274228" y="498.579295" fill="rgb(191,191,191)" stroke-width="0" font-weight="bold" font-size="16" >H</text>
<text x="254.349043" y="421.173308" fill="rgb(191,191,191)" stroke-width="0" font-weight="bold" font-size="16" >H</text>
<text x="37.516716" y="277.828887" fill="rgb(191,191,191)" stroke-width="0" font-weight="bold" font-size="16" >H</text>
<text x="161.657763" y="283.562664" fill="rgb(191,191,191)" stroke-width="0" font-weight="bold" font-size="16" >H</text>
<text x="295.727799" y="283.562664" fill="rgb(191,191,191)" stroke-width="0" font-weight="bold" font-size="16" >H</text>
<text x="295.727799" y="206.156677" fill="rgb(191,191,191)" stroke-width="0" font-weight="bold" font-size="16" >H</text>
<text x="120.274228" y="211.890454" fill="rgb(191,191,191)" stroke-width="0" font-weight="bold" font-size="16" >H</text>
<text x="299.698439" y="77.624514" fill="rgb(191,191,191)" stroke-width="0" font-weight="bold" font-size="16" >H</text>
<text x="270.073926" y="48.000000" fill="rgb(191,191,191)" stroke-width="0" font-weight="bold" font-size="16" >H</text>
<text x="240.449412" y="77.624514" fill="rgb(191,191,191)" stroke-width="0" font-weight="bold" font-size="16" >H</text>
<text x="145.932880" y="483.767038" fill="rgb(255,12,12)" stroke-width="0" font-weight="bold" font-size="16" >O</text>
<text x="63.170590" y="435.985564" fill="rgb(255,12,12)" stroke-width="0" font-weight="bold" font-size="16" >O</text>
<text x="228.690392" y="340.422618" fill="rgb(255,12,12)" stroke-width="0" font-weight="bold" font-size="16" >O</text>
<text x="228.690392" y="435.985564" fill="rgb(255,12,12)" stroke-width="0" font-weight="bold" font-size="16" >O</text>
<text x="63.170590" y="292.641144" fill="rgb(255,12,12)" stroke-width="0" font-weight="bold" font-size="16" >O</text>
<text x="145.932880" y="197.078197" fill="rgb(255,12,12)" stroke-width="0" font-weight="bold" font-size="16" >O</text>
<text x="270.073926" y="125.405987" fill="rgb(255,12,12)" stroke-width="0" font-weight="bold" font-size="16" >O</text>
<text x="187.311636" y="125.405987" fill="rgb(255,12,12)" stroke-width="0" font-weight="bold" font-size="16" >O</text>
<text x="145.932880" y="340.422618" fill="rgb(255,12,12)" stroke-width="0" font-weight="bold" font-size="16" >O</text>
</svg>
</g>
<text font-size="18.000000" fill ="black" font-family="sans-serif"
x="10.000000" y="20.000000" ></text>
</svg>
