<?xml version="1.0"?>
<svg version="1.1" id="topsvg"
xmlns="http://www.w3.org/2000/svg" xmlns:xlink="http://www.w3.org/1999/xlink"
xmlns:cml="http://www.xml-cml.org/schema" x="0" y="0" width="200px" height="200px" viewBox="0 0 100 100">
<title> - Open Babel Depiction</title>
<rect x="0" y="0" width="100" height="100" fill="transparent"/>
<g transform="translate(0,0)">
<svg width="100" height="100" x="0" y="0" viewBox="0 0 446.736 240.344"
font-family="sans-serif" stroke="rgb(0,0,0)" stroke-width="2"  stroke-linecap="round">
<line x1="234.4" y1="97.9" x2="201.1" y2="117.1" opacity="1.0" stroke="rgb(0,0,0)"  stroke-width="4.0"/>
<line x1="290.1" y1="117.1" x2="256.9" y2="97.9" opacity="1.0" stroke="rgb(0,0,0)"  stroke-width="4.0"/>
<line x1="78.9" y1="97.9" x2="112.1" y2="117.1" opacity="1.0" stroke="rgb(0,0,0)"  stroke-width="4.0"/>
<line x1="56.3" y1="97.9" x2="51.3" y2="100.8" opacity="1.0" stroke="rgb(0,0,0)"  stroke-width="4.0"/>
<line x1="367.9" y1="110.6" x2="334.6" y2="91.4" opacity="1.0" stroke="rgb(0,0,0)"  stroke-width="4.0"/>
<line x1="390.4" y1="110.6" x2="395.5" y2="107.7" opacity="1.0" stroke="rgb(0,0,0)"  stroke-width="4.0"/>
<line x1="337.6" y1="53.0" x2="337.6" y2="91.4" opacity="1.0" stroke="rgb(0,0,0)"  stroke-width="4.0"/>
<line x1="331.6" y1="53.0" x2="331.6" y2="91.4" opacity="1.0" stroke="rgb(0,0,0)"  stroke-width="4.0"/>
<line x1="156.6" y1="91.4" x2="112.1" y2="117.1" opacity="1.0" stroke="rgb(0,0,0)"  stroke-width="4.0"/>
<line x1="156.6" y1="91.4" x2="201.1" y2="117.1" opacity="1.0" stroke="rgb(0,0,0)"  stroke-width="4.0"/>
<line x1="156.6" y1="91.4" x2="168.7" y2="76.9" opacity="1.0" stroke="rgb(0,0,0)"  stroke-width="4.0"/>
<line x1="156.6" y1="91.4" x2="144.5" y2="76.9" opacity="1.0" stroke="rgb(0,0,0)"  stroke-width="4.0"/>
<line x1="112.1" y1="117.1" x2="112.1" y2="168.5" opacity="1.0" stroke="rgb(0,0,0)"  stroke-width="4.0"/>
<line x1="112.1" y1="117.1" x2="112.1" y2="98.2" opacity="1.0" stroke="rgb(0,0,0)"  stroke-width="4.0"/>
<line x1="201.1" y1="117.1" x2="189.0" y2="131.5" opacity="1.0" stroke="rgb(0,0,0)"  stroke-width="4.0"/>
<line x1="201.1" y1="117.1" x2="213.2" y2="131.5" opacity="1.0" stroke="rgb(0,0,0)"  stroke-width="4.0"/>
<line x1="290.1" y1="117.1" x2="290.1" y2="168.5" opacity="1.0" stroke="rgb(0,0,0)"  stroke-width="4.0"/>
<line x1="290.1" y1="117.1" x2="334.6" y2="91.4" opacity="1.0" stroke="rgb(0,0,0)"  stroke-width="4.0"/>
<line x1="286.8" y1="119.9" x2="286.0" y2="118.5" opacity="1.0" stroke="rgb(0,0,0)"  stroke-width="1.0"/>
<line x1="284.2" y1="122.2" x2="282.8" y2="119.7" opacity="1.0" stroke="rgb(0,0,0)"  stroke-width="1.0"/>
<line x1="281.6" y1="124.4" x2="279.5" y2="120.8" opacity="1.0" stroke="rgb(0,0,0)"  stroke-width="1.0"/>
<line x1="278.9" y1="126.7" x2="276.2" y2="122.0" opacity="1.0" stroke="rgb(0,0,0)"  stroke-width="1.0"/>
<line x1="276.3" y1="129.0" x2="272.9" y2="123.1" opacity="1.0" stroke="rgb(0,0,0)"  stroke-width="1.0"/>
<line x1="273.6" y1="131.2" x2="269.6" y2="124.3" opacity="1.0" stroke="rgb(0,0,0)"  stroke-width="1.0"/>
<line x1="112.1" y1="168.5" x2="93.2" y2="168.5" opacity="1.0" stroke="rgb(0,0,0)"  stroke-width="4.0"/>
<line x1="112.1" y1="168.5" x2="112.1" y2="187.3" opacity="1.0" stroke="rgb(0,0,0)"  stroke-width="4.0"/>
<line x1="112.1" y1="168.5" x2="131.0" y2="168.5" opacity="1.0" stroke="rgb(0,0,0)"  stroke-width="4.0"/>
<line x1="290.1" y1="168.5" x2="271.3" y2="168.5" opacity="1.0" stroke="rgb(0,0,0)"  stroke-width="4.0"/>
<line x1="290.1" y1="168.5" x2="290.1" y2="187.3" opacity="1.0" stroke="rgb(0,0,0)"  stroke-width="4.0"/>
<line x1="290.1" y1="168.5" x2="309.0" y2="168.5" opacity="1.0" stroke="rgb(0,0,0)"  stroke-width="4.0"/>
<text x="130.129538" y="74.986164" fill="rgb(191,191,191)" stroke-width="0" font-weight="bold" font-size="16" >H</text>
<text x="400.736370" y="109.156990" fill="rgb(191,191,191)" stroke-width="0" font-weight="bold" font-size="16" >H</text>
<text x="34.000000" y="115.324081" fill="rgb(191,191,191)" stroke-width="0" font-weight="bold" font-size="16" >H</text>
<text x="315.995395" y="176.481072" fill="rgb(191,191,191)" stroke-width="0" font-weight="bold" font-size="16" >H</text>
<text x="284.132089" y="208.344377" fill="rgb(191,191,191)" stroke-width="0" font-weight="bold" font-size="16" >H</text>
<text x="252.268784" y="176.481072" fill="rgb(191,191,191)" stroke-width="0" font-weight="bold" font-size="16" >H</text>
<text x="137.966883" y="176.481072" fill="rgb(191,191,191)" stroke-width="0" font-weight="bold" font-size="16" >H</text>
<text x="106.103577" y="208.344377" fill="rgb(191,191,191)" stroke-width="0" font-weight="bold" font-size="16" >H</text>
<text x="74.240272" y="176.481072" fill="rgb(191,191,191)" stroke-width="0" font-weight="bold" font-size="16" >H</text>
<text x="256.534355" y="141.020296" fill="rgb(191,191,191)" stroke-width="0" font-weight="bold" font-size="16" >H</text>
<text x="215.595146" y="149.494907" fill="rgb(191,191,191)" stroke-width="0" font-weight="bold" font-size="16" >H</text>
<text x="174.635381" y="149.494907" fill="rgb(191,191,191)" stroke-width="0" font-weight="bold" font-size="16" >H</text>
<text x="106.103577" y="93.225337" fill="rgb(191,191,191)" stroke-width="0" font-weight="bold" font-size="16" >H</text>
<text x="239.621107" y="99.392429" fill="rgb(255,12,12)" stroke-width="0" font-weight="bold" font-size="16" >O</text>
<text x="171.089303" y="74.986164" fill="rgb(191,191,191)" stroke-width="0" font-weight="bold" font-size="16" >H</text>
<text x="328.637932" y="48.000000" fill="rgb(255,12,12)" stroke-width="0" font-weight="bold" font-size="16" >O</text>
<text x="373.143776" y="125.088643" fill="rgb(255,12,12)" stroke-width="0" font-weight="bold" font-size="16" >O</text>
<text x="61.592595" y="99.392429" fill="rgb(255,12,12)" stroke-width="0" font-weight="bold" font-size="16" >O</text>
</svg>
</g>
<text font-size="18.000000" fill ="black" font-family="sans-serif"
x="10.000000" y="20.000000" ></text>
</svg>
