<?xml version="1.0"?>
<svg version="1.1" id="topsvg"
xmlns="http://www.w3.org/2000/svg" xmlns:xlink="http://www.w3.org/1999/xlink"
xmlns:cml="http://www.xml-cml.org/schema" x="0" y="0" width="200px" height="200px" viewBox="0 0 100 100">
<title> - Open Babel Depiction</title>
<rect x="0" y="0" width="100" height="100" fill="transparent"/>
<g transform="translate(0,0)">
<svg width="100" height="100" x="0" y="0" viewBox="0 0 389.443 387.804"
font-family="sans-serif" stroke="rgb(0,0,0)" stroke-width="2"  stroke-linecap="round">
<line x1="196.5" y1="210.7" x2="227.5" y2="192.8" opacity="1.0" stroke="rgb(0,0,0)"  stroke-width="4.0"/>
<line x1="238.8" y1="137.6" x2="238.8" y2="173.3" opacity="1.0" stroke="rgb(0,0,0)"  stroke-width="4.0"/>
<line x1="154.3" y1="283.9" x2="154.3" y2="319.7" opacity="1.0" stroke="rgb(0,0,0)"  stroke-width="4.0"/>
<line x1="143.0" y1="339.2" x2="139.3" y2="341.3" opacity="1.0" stroke="rgb(0,0,0)"  stroke-width="4.0"/>
<line x1="112.0" y1="259.5" x2="81.0" y2="277.4" opacity="1.0" stroke="rgb(0,0,0)"  stroke-width="4.0"/>
<line x1="58.5" y1="277.4" x2="54.8" y2="275.3" opacity="1.0" stroke="rgb(0,0,0)"  stroke-width="4.0"/>
<line x1="196.5" y1="259.5" x2="227.5" y2="277.4" opacity="1.0" stroke="rgb(0,0,0)"  stroke-width="4.0"/>
<line x1="238.8" y1="296.9" x2="238.8" y2="301.1" opacity="1.0" stroke="rgb(0,0,0)"  stroke-width="4.0"/>
<line x1="69.8" y1="150.6" x2="69.8" y2="186.3" opacity="1.0" stroke="rgb(0,0,0)"  stroke-width="4.0"/>
<line x1="58.5" y1="131.1" x2="54.8" y2="128.9" opacity="1.0" stroke="rgb(0,0,0)"  stroke-width="4.0"/>
<line x1="281.0" y1="113.2" x2="312.0" y2="131.1" opacity="1.0" stroke="rgb(0,0,0)"  stroke-width="4.0"/>
<line x1="334.5" y1="131.1" x2="338.2" y2="128.9" opacity="1.0" stroke="rgb(0,0,0)"  stroke-width="4.0"/>
<line x1="196.5" y1="113.2" x2="196.5" y2="77.4" opacity="1.0" stroke="rgb(0,0,0)"  stroke-width="4.0"/>
<line x1="185.3" y1="57.9" x2="181.6" y2="55.8" opacity="1.0" stroke="rgb(0,0,0)"  stroke-width="4.0"/>
<line x1="313.5" y1="49.1" x2="282.5" y2="67.0" opacity="1.0" stroke="rgb(0,0,0)"  stroke-width="4.0"/>
<line x1="310.5" y1="43.9" x2="279.5" y2="61.8" opacity="1.0" stroke="rgb(0,0,0)"  stroke-width="4.0"/>
<polygon points="154.272976 283.902023 138.722095 297.497919 134.722454 290.569508 " stroke-width="2.000000" fill="rgb(0,0,0)"  stroke="rgb(0,0,0)" />
<polygon points="112.029146 259.511821 116.029146 279.775201 108.029146 279.775201 " stroke-width="2.000000" fill="rgb(0,0,0)"  stroke="rgb(0,0,0)" />
<polygon points="196.516806 259.511821 200.516806 279.775201 192.516806 279.775201 " stroke-width="2.000000" fill="rgb(0,0,0)"  stroke="rgb(0,0,0)" />
<line x1="112.0" y1="210.7" x2="69.8" y2="186.3" opacity="1.0" stroke="rgb(0,0,0)"  stroke-width="4.0"/>
<line x1="111.2" y1="206.7" x2="112.8" y2="206.7" opacity="1.0" stroke="rgb(0,0,0)"  stroke-width="1.0"/>
<line x1="110.6" y1="203.4" x2="113.5" y2="203.4" opacity="1.0" stroke="rgb(0,0,0)"  stroke-width="1.0"/>
<line x1="109.9" y1="200.2" x2="114.1" y2="200.2" opacity="1.0" stroke="rgb(0,0,0)"  stroke-width="1.0"/>
<line x1="109.3" y1="197.0" x2="114.7" y2="197.0" opacity="1.0" stroke="rgb(0,0,0)"  stroke-width="1.0"/>
<line x1="108.7" y1="193.7" x2="115.4" y2="193.7" opacity="1.0" stroke="rgb(0,0,0)"  stroke-width="1.0"/>
<line x1="108.0" y1="190.5" x2="116.0" y2="190.5" opacity="1.0" stroke="rgb(0,0,0)"  stroke-width="1.0"/>
<polygon points="196.516806 210.731416 192.516806 190.468036 200.516806 190.468036 " stroke-width="2.000000" fill="rgb(0,0,0)"  stroke="rgb(0,0,0)" />
<line x1="69.8" y1="186.3" x2="52.8" y2="183.3" opacity="1.0" stroke="rgb(0,0,0)"  stroke-width="4.0"/>
<line x1="69.8" y1="186.3" x2="63.9" y2="202.5" opacity="1.0" stroke="rgb(0,0,0)"  stroke-width="4.0"/>
<line x1="238.8" y1="137.6" x2="281.0" y2="113.2" opacity="1.0" stroke="rgb(0,0,0)"  stroke-width="4.0"/>
<line x1="238.8" y1="137.6" x2="196.5" y2="113.2" opacity="1.0" stroke="rgb(0,0,0)"  stroke-width="4.0"/>
<line x1="242.7" y1="138.9" x2="241.9" y2="140.3" opacity="1.0" stroke="rgb(0,0,0)"  stroke-width="1.0"/>
<line x1="245.8" y1="140.0" x2="244.4" y2="142.5" opacity="1.0" stroke="rgb(0,0,0)"  stroke-width="1.0"/>
<line x1="248.9" y1="141.0" x2="246.8" y2="144.6" opacity="1.0" stroke="rgb(0,0,0)"  stroke-width="1.0"/>
<line x1="252.1" y1="142.1" x2="249.3" y2="146.8" opacity="1.0" stroke="rgb(0,0,0)"  stroke-width="1.0"/>
<line x1="255.2" y1="143.2" x2="251.8" y2="149.0" opacity="1.0" stroke="rgb(0,0,0)"  stroke-width="1.0"/>
<line x1="258.3" y1="144.2" x2="254.3" y2="151.2" opacity="1.0" stroke="rgb(0,0,0)"  stroke-width="1.0"/>
<line x1="281.0" y1="113.2" x2="281.0" y2="64.4" opacity="1.0" stroke="rgb(0,0,0)"  stroke-width="4.0"/>
<line x1="284.1" y1="110.5" x2="284.9" y2="111.8" opacity="1.0" stroke="rgb(0,0,0)"  stroke-width="1.0"/>
<line x1="286.6" y1="108.3" x2="288.0" y2="110.8" opacity="1.0" stroke="rgb(0,0,0)"  stroke-width="1.0"/>
<line x1="289.1" y1="106.1" x2="291.2" y2="109.7" opacity="1.0" stroke="rgb(0,0,0)"  stroke-width="1.0"/>
<line x1="291.6" y1="103.9" x2="294.3" y2="108.6" opacity="1.0" stroke="rgb(0,0,0)"  stroke-width="1.0"/>
<line x1="294.1" y1="101.8" x2="297.4" y2="107.6" opacity="1.0" stroke="rgb(0,0,0)"  stroke-width="1.0"/>
<line x1="296.6" y1="99.6" x2="300.6" y2="106.5" opacity="1.0" stroke="rgb(0,0,0)"  stroke-width="1.0"/>
<line x1="196.5" y1="113.2" x2="154.3" y2="137.6" opacity="1.0" stroke="rgb(0,0,0)"  stroke-width="4.0"/>
<line x1="199.6" y1="110.5" x2="200.4" y2="111.8" opacity="1.0" stroke="rgb(0,0,0)"  stroke-width="1.0"/>
<line x1="202.1" y1="108.3" x2="203.6" y2="110.8" opacity="1.0" stroke="rgb(0,0,0)"  stroke-width="1.0"/>
<line x1="204.6" y1="106.1" x2="206.7" y2="109.7" opacity="1.0" stroke="rgb(0,0,0)"  stroke-width="1.0"/>
<line x1="207.1" y1="103.9" x2="209.8" y2="108.6" opacity="1.0" stroke="rgb(0,0,0)"  stroke-width="1.0"/>
<line x1="209.6" y1="101.8" x2="212.9" y2="107.6" opacity="1.0" stroke="rgb(0,0,0)"  stroke-width="1.0"/>
<line x1="212.1" y1="99.6" x2="216.1" y2="106.5" opacity="1.0" stroke="rgb(0,0,0)"  stroke-width="1.0"/>
<line x1="281.0" y1="64.4" x2="266.1" y2="55.8" opacity="1.0" stroke="rgb(0,0,0)"  stroke-width="4.0"/>
<line x1="154.3" y1="137.6" x2="139.3" y2="146.2" opacity="1.0" stroke="rgb(0,0,0)"  stroke-width="4.0"/>
<line x1="154.3" y1="283.9" x2="112.0" y2="259.5" opacity="1.0" stroke="rgb(0,0,0)"  stroke-width="4.0"/>
<line x1="112.0" y1="259.5" x2="112.0" y2="210.7" opacity="1.0" stroke="rgb(0,0,0)"  stroke-width="4.0"/>
<line x1="112.0" y1="210.7" x2="143.0" y2="192.8" opacity="1.0" stroke="rgb(0,0,0)"  stroke-width="4.0"/>
<line x1="165.5" y1="192.8" x2="196.5" y2="210.7" opacity="1.0" stroke="rgb(0,0,0)"  stroke-width="4.0"/>
<line x1="196.5" y1="210.7" x2="196.5" y2="259.5" opacity="1.0" stroke="rgb(0,0,0)"  stroke-width="4.0"/>
<line x1="196.5" y1="259.5" x2="154.3" y2="283.9" opacity="1.0" stroke="rgb(0,0,0)"  stroke-width="4.0"/>
<text x="37.590238" y="276.780098" fill="rgb(191,191,191)" stroke-width="0" font-weight="bold" font-size="16" >H</text>
<text x="122.077899" y="307.023949" fill="rgb(191,191,191)" stroke-width="0" font-weight="bold" font-size="16" >H</text>
<text x="106.029146" y="297.755672" fill="rgb(191,191,191)" stroke-width="0" font-weight="bold" font-size="16" >H</text>
<text x="190.516806" y="297.755672" fill="rgb(191,191,191)" stroke-width="0" font-weight="bold" font-size="16" >H</text>
<text x="106.029146" y="188.487565" fill="rgb(191,191,191)" stroke-width="0" font-weight="bold" font-size="16" >H</text>
<text x="190.516806" y="188.487565" fill="rgb(191,191,191)" stroke-width="0" font-weight="bold" font-size="16" >H</text>
<text x="34.000000" y="189.087564" fill="rgb(191,191,191)" stroke-width="0" font-weight="bold" font-size="16" >H</text>
<text x="53.438991" y="222.760678" fill="rgb(191,191,191)" stroke-width="0" font-weight="bold" font-size="16" >H</text>
<text x="258.955714" y="160.682735" fill="rgb(191,191,191)" stroke-width="0" font-weight="bold" font-size="16" >H</text>
<text x="122.077899" y="355.804354" fill="rgb(191,191,191)" stroke-width="0" font-weight="bold" font-size="16" >H</text>
<text x="159.072976" y="133.528809" fill="rgb(102,102,102)" stroke-width="0" font-weight="bold" font-size="16" ></text>
<text x="159.072976" y="133.528809" fill="rgb(102,102,102)" stroke-width="0" font-weight="bold" font-size="32" >..</text>
<text x="232.760637" y="322.145874" fill="rgb(191,191,191)" stroke-width="0" font-weight="bold" font-size="16" >H</text>
<text x="301.199545" y="106.048682" fill="rgb(191,191,191)" stroke-width="0" font-weight="bold" font-size="16" >H</text>
<text x="216.711884" y="106.048682" fill="rgb(191,191,191)" stroke-width="0" font-weight="bold" font-size="16" >H</text>
<text x="37.590238" y="130.438884" fill="rgb(191,191,191)" stroke-width="0" font-weight="bold" font-size="16" >H</text>
<text x="248.814268" y="57.268277" fill="rgb(191,191,191)" stroke-width="0" font-weight="bold" font-size="16" >H</text>
<text x="343.443375" y="130.438884" fill="rgb(191,191,191)" stroke-width="0" font-weight="bold" font-size="16" >H</text>
<text x="164.326607" y="57.268277" fill="rgb(191,191,191)" stroke-width="0" font-weight="bold" font-size="16" >H</text>
<text x="122.077899" y="160.682735" fill="rgb(191,191,191)" stroke-width="0" font-weight="bold" font-size="16" >H</text>
<text x="232.760637" y="194.341214" fill="rgb(255,12,12)" stroke-width="0" font-weight="bold" font-size="16" >O</text>
<text x="148.272976" y="340.682428" fill="rgb(255,12,12)" stroke-width="0" font-weight="bold" font-size="16" >O</text>
<text x="63.780437" y="291.902023" fill="rgb(255,12,12)" stroke-width="0" font-weight="bold" font-size="16" >O</text>
<text x="232.760637" y="291.902023" fill="rgb(255,12,12)" stroke-width="0" font-weight="bold" font-size="16" >O</text>
<text x="63.780437" y="145.560809" fill="rgb(255,12,12)" stroke-width="0" font-weight="bold" font-size="16" >O</text>
<text x="317.253176" y="145.560809" fill="rgb(255,12,12)" stroke-width="0" font-weight="bold" font-size="16" >O</text>
<text x="190.516806" y="72.390202" fill="rgb(255,12,12)" stroke-width="0" font-weight="bold" font-size="16" >O</text>
<text x="317.253176" y="48.000000" fill="rgb(255,12,12)" stroke-width="0" font-weight="bold" font-size="16" >O</text>
<text x="148.272976" y="194.341214" fill="rgb(255,12,12)" stroke-width="0" font-weight="bold" font-size="16" >O</text>
</svg>
</g>
<text font-size="18.000000" fill ="black" font-family="sans-serif"
x="10.000000" y="20.000000" ></text>
</svg>
