<?xml version="1.0"?>
<svg version="1.1" id="topsvg"
xmlns="http://www.w3.org/2000/svg" xmlns:xlink="http://www.w3.org/1999/xlink"
xmlns:cml="http://www.xml-cml.org/schema" x="0" y="0" width="200px" height="200px" viewBox="0 0 100 100">
<title> - Open Babel Depiction</title>
<rect x="0" y="0" width="100" height="100" fill="transparent"/>
<g transform="translate(0,0)">
<svg width="100" height="100" x="0" y="0" viewBox="0 0 286.768 435.596"
font-family="sans-serif" stroke="rgb(0,0,0)" stroke-width="2"  stroke-linecap="round">
<line x1="114.4" y1="215.1" x2="126.1" y2="201.1" opacity="1.0" stroke="rgb(0,0,0)"  stroke-width="4.0"/>
<line x1="114.4" y1="215.1" x2="102.7" y2="201.1" opacity="1.0" stroke="rgb(0,0,0)"  stroke-width="4.0"/>
<line x1="70.8" y1="240.2" x2="64.5" y2="223.1" opacity="1.0" stroke="rgb(0,0,0)"  stroke-width="4.0"/>
<line x1="70.8" y1="240.2" x2="52.8" y2="243.4" opacity="1.0" stroke="rgb(0,0,0)"  stroke-width="4.0"/>
<line x1="201.6" y1="215.1" x2="207.9" y2="232.2" opacity="1.0" stroke="rgb(0,0,0)"  stroke-width="4.0"/>
<line x1="201.6" y1="215.1" x2="219.6" y2="211.9" opacity="1.0" stroke="rgb(0,0,0)"  stroke-width="4.0"/>
<line x1="114.4" y1="315.8" x2="132.6" y2="315.8" opacity="1.0" stroke="rgb(0,0,0)"  stroke-width="4.0"/>
<line x1="114.4" y1="315.8" x2="119.1" y2="298.2" opacity="1.0" stroke="rgb(0,0,0)"  stroke-width="4.0"/>
<line x1="201.6" y1="164.7" x2="219.6" y2="167.8" opacity="1.0" stroke="rgb(0,0,0)"  stroke-width="4.0"/>
<line x1="201.6" y1="164.7" x2="207.9" y2="147.5" opacity="1.0" stroke="rgb(0,0,0)"  stroke-width="4.0"/>
<line x1="127.4" y1="364.5" x2="109.3" y2="366.1" opacity="1.0" stroke="rgb(0,0,0)"  stroke-width="4.0"/>
<line x1="127.4" y1="364.5" x2="125.8" y2="382.6" opacity="1.0" stroke="rgb(0,0,0)"  stroke-width="4.0"/>
<line x1="158.0" y1="89.1" x2="176.0" y2="92.3" opacity="1.0" stroke="rgb(0,0,0)"  stroke-width="4.0"/>
<line x1="158.0" y1="89.1" x2="164.3" y2="72.0" opacity="1.0" stroke="rgb(0,0,0)"  stroke-width="4.0"/>
<line x1="219.7" y1="352.3" x2="228.8" y2="368.1" opacity="1.0" stroke="rgb(0,0,0)"  stroke-width="4.0"/>
<line x1="219.7" y1="352.3" x2="235.5" y2="343.2" opacity="1.0" stroke="rgb(0,0,0)"  stroke-width="4.0"/>
<line x1="114.4" y1="63.9" x2="126.1" y2="50.0" opacity="1.0" stroke="rgb(0,0,0)"  stroke-width="4.0"/>
<line x1="114.4" y1="63.9" x2="102.7" y2="50.0" opacity="1.0" stroke="rgb(0,0,0)"  stroke-width="4.0"/>
<line x1="194.5" y1="308.7" x2="180.6" y2="297.0" opacity="1.0" stroke="rgb(0,0,0)"  stroke-width="4.0"/>
<line x1="194.5" y1="308.7" x2="180.6" y2="320.4" opacity="1.0" stroke="rgb(0,0,0)"  stroke-width="4.0"/>
<line x1="70.8" y1="139.5" x2="52.8" y2="136.3" opacity="1.0" stroke="rgb(0,0,0)"  stroke-width="4.0"/>
<line x1="70.8" y1="139.5" x2="64.5" y2="156.6" opacity="1.0" stroke="rgb(0,0,0)"  stroke-width="4.0"/>
<line x1="201.6" y1="215.1" x2="219.9" y2="214.0" opacity="1.0" stroke="rgb(0,0,0)"  stroke-width="4.0"/>
<line x1="201.6" y1="215.1" x2="205.9" y2="197.3" opacity="1.0" stroke="rgb(0,0,0)"  stroke-width="4.0"/>
<line x1="70.8" y1="277.6" x2="70.8" y2="240.2" opacity="1.0" stroke="rgb(0,0,0)"  stroke-width="4.0"/>
<line x1="70.8" y1="240.2" x2="114.4" y2="215.1" opacity="1.0" stroke="rgb(0,0,0)"  stroke-width="4.0"/>
<line x1="114.4" y1="215.1" x2="146.8" y2="233.7" opacity="1.0" stroke="rgb(0,0,0)"  stroke-width="4.0"/>
<line x1="169.3" y1="233.7" x2="201.6" y2="215.1" opacity="1.0" stroke="rgb(0,0,0)"  stroke-width="4.0"/>
<line x1="201.6" y1="215.1" x2="201.6" y2="164.7" opacity="1.0" stroke="rgb(0,0,0)"  stroke-width="4.0"/>
<line x1="201.6" y1="164.7" x2="169.3" y2="146.0" opacity="1.0" stroke="rgb(0,0,0)"  stroke-width="4.0"/>
<line x1="158.0" y1="126.5" x2="158.0" y2="89.1" opacity="1.0" stroke="rgb(0,0,0)"  stroke-width="4.0"/>
<line x1="158.0" y1="89.1" x2="114.4" y2="63.9" opacity="1.0" stroke="rgb(0,0,0)"  stroke-width="4.0"/>
<line x1="114.4" y1="63.9" x2="82.0" y2="82.6" opacity="1.0" stroke="rgb(0,0,0)"  stroke-width="4.0"/>
<line x1="70.8" y1="102.1" x2="70.8" y2="139.5" opacity="1.0" stroke="rgb(0,0,0)"  stroke-width="4.0"/>
<line x1="70.8" y1="139.5" x2="114.4" y2="164.7" opacity="1.0" stroke="rgb(0,0,0)"  stroke-width="4.0"/>
<line x1="114.4" y1="164.7" x2="158.0" y2="189.9" opacity="1.0" stroke="rgb(0,0,0)"  stroke-width="4.0"/>
<line x1="116.5" y1="161.0" x2="160.1" y2="186.2" opacity="1.0" stroke="rgb(0,0,0)"  stroke-width="4.0"/>
<line x1="112.3" y1="168.3" x2="155.9" y2="193.5" opacity="1.0" stroke="rgb(0,0,0)"  stroke-width="4.0"/>
<line x1="158.0" y1="189.9" x2="201.6" y2="215.1" opacity="1.0" stroke="rgb(0,0,0)"  stroke-width="4.0"/>
<line x1="201.6" y1="215.1" x2="215.3" y2="252.8" opacity="1.0" stroke="rgb(0,0,0)"  stroke-width="4.0"/>
<line x1="213.2" y1="276.3" x2="194.5" y2="308.7" opacity="1.0" stroke="rgb(0,0,0)"  stroke-width="4.0"/>
<line x1="194.5" y1="308.7" x2="219.7" y2="352.3" opacity="1.0" stroke="rgb(0,0,0)"  stroke-width="4.0"/>
<line x1="219.7" y1="352.3" x2="187.4" y2="371.0" opacity="1.0" stroke="rgb(0,0,0)"  stroke-width="4.0"/>
<line x1="163.5" y1="374.2" x2="127.4" y2="364.5" opacity="1.0" stroke="rgb(0,0,0)"  stroke-width="4.0"/>
<line x1="127.4" y1="364.5" x2="114.4" y2="315.8" opacity="1.0" stroke="rgb(0,0,0)"  stroke-width="4.0"/>
<line x1="114.4" y1="315.8" x2="82.0" y2="297.1" opacity="1.0" stroke="rgb(0,0,0)"  stroke-width="4.0"/>
<text x="162.701895" y="67.763476" fill="rgb(191,191,191)" stroke-width="0" font-weight="bold" font-size="16" >H</text>
<text x="34.000000" y="253.675169" fill="rgb(191,191,191)" stroke-width="0" font-weight="bold" font-size="16" >H</text>
<text x="206.329656" y="252.410670" fill="rgb(191,191,191)" stroke-width="0" font-weight="bold" font-size="16" >H</text>
<text x="226.410516" y="217.639445" fill="rgb(191,191,191)" stroke-width="0" font-weight="bold" font-size="16" >H</text>
<text x="139.623514" y="323.817123" fill="rgb(191,191,191)" stroke-width="0" font-weight="bold" font-size="16" >H</text>
<text x="116.474604" y="293.650491" fill="rgb(191,191,191)" stroke-width="0" font-weight="bold" font-size="16" >H</text>
<text x="226.410516" y="178.107454" fill="rgb(191,191,191)" stroke-width="0" font-weight="bold" font-size="16" >H</text>
<text x="206.329656" y="143.331192" fill="rgb(191,191,191)" stroke-width="0" font-weight="bold" font-size="16" >H</text>
<text x="90.313061" y="375.203169" fill="rgb(191,191,191)" stroke-width="0" font-weight="bold" font-size="16" >H</text>
<text x="118.706371" y="403.596478" fill="rgb(191,191,191)" stroke-width="0" font-weight="bold" font-size="16" >H</text>
<text x="182.777718" y="102.539739" fill="rgb(191,191,191)" stroke-width="0" font-weight="bold" font-size="16" >H</text>
<text x="54.080861" y="218.898907" fill="rgb(191,191,191)" stroke-width="0" font-weight="bold" font-size="16" >H</text>
<text x="229.337506" y="387.379647" fill="rgb(191,191,191)" stroke-width="0" font-weight="bold" font-size="16" >H</text>
<text x="240.768382" y="344.714115" fill="rgb(191,191,191)" stroke-width="0" font-weight="bold" font-size="16" >H</text>
<text x="128.469720" y="48.000000" fill="rgb(191,191,191)" stroke-width="0" font-weight="bold" font-size="16" >H</text>
<text x="88.313036" y="48.000000" fill="rgb(191,191,191)" stroke-width="0" font-weight="bold" font-size="16" >H</text>
<text x="164.601163" y="296.622821" fill="rgb(191,191,191)" stroke-width="0" font-weight="bold" font-size="16" >H</text>
<text x="164.601163" y="336.779505" fill="rgb(191,191,191)" stroke-width="0" font-weight="bold" font-size="16" >H</text>
<text x="34.000000" y="142.071730" fill="rgb(191,191,191)" stroke-width="0" font-weight="bold" font-size="16" >H</text>
<text x="54.080861" y="176.842954" fill="rgb(191,191,191)" stroke-width="0" font-weight="bold" font-size="16" >H</text>
<text x="226.833696" y="221.291884" fill="rgb(191,191,191)" stroke-width="0" font-weight="bold" font-size="16" >H</text>
<text x="202.873692" y="192.671872" fill="rgb(191,191,191)" stroke-width="0" font-weight="bold" font-size="16" >H</text>
<text x="64.761098" y="298.627884" fill="rgb(255,12,12)" stroke-width="0" font-weight="bold" font-size="16" >O</text>
<text x="152.016620" y="147.492454" fill="rgb(255,12,12)" stroke-width="0" font-weight="bold" font-size="16" >O</text>
<text x="170.092417" y="385.520681" fill="rgb(255,12,12)" stroke-width="0" font-weight="bold" font-size="16" >O</text>
<text x="64.761098" y="97.113977" fill="rgb(255,12,12)" stroke-width="0" font-weight="bold" font-size="16" >O</text>
<text x="213.720178" y="273.070883" fill="rgb(255,12,12)" stroke-width="0" font-weight="bold" font-size="16" >O</text>
<text x="152.016620" y="248.249407" fill="rgb(255,12,12)" stroke-width="0" font-weight="bold" font-size="16" >O</text>
<text x="128.469720" y="199.135430" fill="rgb(191,191,191)" stroke-width="0" font-weight="bold" font-size="16" >H</text>
<text x="88.313036" y="199.135430" fill="rgb(191,191,191)" stroke-width="0" font-weight="bold" font-size="16" >H</text>
</svg>
</g>
<text font-size="18.000000" fill ="black" font-family="sans-serif"
x="10.000000" y="20.000000" ></text>
</svg>
