<?xml version="1.0"?>
<svg version="1.1" id="topsvg"
xmlns="http://www.w3.org/2000/svg" xmlns:xlink="http://www.w3.org/1999/xlink"
xmlns:cml="http://www.xml-cml.org/schema" x="0" y="0" width="200px" height="200px" viewBox="0 0 100 100">
<title> - Open Babel Depiction</title>
<rect x="0" y="0" width="100" height="100" fill="transparent"/>
<g transform="translate(0,0)">
<svg width="100" height="100" x="0" y="0" viewBox="0 0 430.953 585.901"
font-family="sans-serif" stroke="rgb(0,0,0)" stroke-width="2"  stroke-linecap="round">
<line x1="279.4" y1="333.9" x2="279.4" y2="370.1" opacity="1.0" stroke="rgb(0,0,0)"  stroke-width="4.0"/>
<line x1="236.8" y1="407.7" x2="268.1" y2="389.6" opacity="1.0" stroke="rgb(0,0,0)"  stroke-width="4.0"/>
<line x1="322.0" y1="309.3" x2="353.3" y2="327.4" opacity="1.0" stroke="rgb(0,0,0)"  stroke-width="4.0"/>
<line x1="375.8" y1="327.4" x2="379.7" y2="325.2" opacity="1.0" stroke="rgb(0,0,0)"  stroke-width="4.0"/>
<line x1="322.0" y1="260.2" x2="353.3" y2="242.1" opacity="1.0" stroke="rgb(0,0,0)"  stroke-width="4.0"/>
<line x1="364.5" y1="222.6" x2="364.5" y2="218.1" opacity="1.0" stroke="rgb(0,0,0)"  stroke-width="4.0"/>
<line x1="236.8" y1="456.9" x2="268.1" y2="475.0" opacity="1.0" stroke="rgb(0,0,0)"  stroke-width="4.0"/>
<line x1="279.4" y1="494.5" x2="279.4" y2="499.0" opacity="1.0" stroke="rgb(0,0,0)"  stroke-width="4.0"/>
<line x1="194.2" y1="481.5" x2="194.2" y2="517.7" opacity="1.0" stroke="rgb(0,0,0)"  stroke-width="4.0"/>
<line x1="182.9" y1="537.2" x2="179.0" y2="539.4" opacity="1.0" stroke="rgb(0,0,0)"  stroke-width="4.0"/>
<line x1="151.6" y1="456.9" x2="120.3" y2="475.0" opacity="1.0" stroke="rgb(0,0,0)"  stroke-width="4.0"/>
<line x1="109.0" y1="494.5" x2="109.0" y2="499.0" opacity="1.0" stroke="rgb(0,0,0)"  stroke-width="4.0"/>
<line x1="162.8" y1="315.8" x2="194.2" y2="333.9" opacity="1.0" stroke="rgb(0,0,0)"  stroke-width="4.0"/>
<line x1="151.6" y1="296.3" x2="151.6" y2="291.9" opacity="1.0" stroke="rgb(0,0,0)"  stroke-width="4.0"/>
<line x1="77.7" y1="401.2" x2="109.0" y2="383.1" opacity="1.0" stroke="rgb(0,0,0)"  stroke-width="4.0"/>
<line x1="55.1" y1="401.2" x2="51.3" y2="399.0" opacity="1.0" stroke="rgb(0,0,0)"  stroke-width="4.0"/>
<polygon points="279.367043 333.932952 299.058547 340.683725 295.058347 347.611813 " stroke-width="2.000000" fill="rgb(0,0,0)"  stroke="rgb(0,0,0)" />
<line x1="279.4" y1="235.6" x2="279.4" y2="186.4" opacity="1.0" stroke="rgb(0,0,0)"  stroke-width="4.0"/>
<line x1="275.4" y1="234.2" x2="276.2" y2="232.8" opacity="1.0" stroke="rgb(0,0,0)"  stroke-width="1.0"/>
<line x1="272.3" y1="233.1" x2="273.7" y2="230.6" opacity="1.0" stroke="rgb(0,0,0)"  stroke-width="1.0"/>
<line x1="269.1" y1="232.1" x2="271.2" y2="228.5" opacity="1.0" stroke="rgb(0,0,0)"  stroke-width="1.0"/>
<line x1="266.0" y1="231.0" x2="268.7" y2="226.3" opacity="1.0" stroke="rgb(0,0,0)"  stroke-width="1.0"/>
<line x1="262.8" y1="229.9" x2="266.2" y2="224.1" opacity="1.0" stroke="rgb(0,0,0)"  stroke-width="1.0"/>
<line x1="259.7" y1="228.8" x2="263.7" y2="221.9" opacity="1.0" stroke="rgb(0,0,0)"  stroke-width="1.0"/>
<line x1="322.8" y1="313.4" x2="321.2" y2="313.4" opacity="1.0" stroke="rgb(0,0,0)"  stroke-width="1.0"/>
<line x1="323.4" y1="316.7" x2="320.5" y2="316.7" opacity="1.0" stroke="rgb(0,0,0)"  stroke-width="1.0"/>
<line x1="324.0" y1="320.0" x2="319.9" y2="320.0" opacity="1.0" stroke="rgb(0,0,0)"  stroke-width="1.0"/>
<line x1="324.7" y1="323.2" x2="319.2" y2="323.2" opacity="1.0" stroke="rgb(0,0,0)"  stroke-width="1.0"/>
<line x1="325.3" y1="326.5" x2="318.6" y2="326.5" opacity="1.0" stroke="rgb(0,0,0)"  stroke-width="1.0"/>
<line x1="326.0" y1="329.8" x2="318.0" y2="329.8" opacity="1.0" stroke="rgb(0,0,0)"  stroke-width="1.0"/>
<polygon points="321.957469 260.162007 341.648972 266.912780 337.648772 273.840868 " stroke-width="2.000000" fill="rgb(0,0,0)"  stroke="rgb(0,0,0)" />
<line x1="236.8" y1="309.3" x2="194.2" y2="333.9" opacity="1.0" stroke="rgb(0,0,0)"  stroke-width="4.0"/>
<line x1="232.8" y1="308.0" x2="233.6" y2="306.6" opacity="1.0" stroke="rgb(0,0,0)"  stroke-width="1.0"/>
<line x1="229.7" y1="306.9" x2="231.1" y2="304.4" opacity="1.0" stroke="rgb(0,0,0)"  stroke-width="1.0"/>
<line x1="226.5" y1="305.8" x2="228.6" y2="302.2" opacity="1.0" stroke="rgb(0,0,0)"  stroke-width="1.0"/>
<line x1="223.4" y1="304.8" x2="226.1" y2="300.0" opacity="1.0" stroke="rgb(0,0,0)"  stroke-width="1.0"/>
<line x1="220.2" y1="303.7" x2="223.6" y2="297.9" opacity="1.0" stroke="rgb(0,0,0)"  stroke-width="1.0"/>
<line x1="217.1" y1="302.6" x2="221.1" y2="295.7" opacity="1.0" stroke="rgb(0,0,0)"  stroke-width="1.0"/>
<line x1="279.4" y1="186.4" x2="236.8" y2="161.8" opacity="1.0" stroke="rgb(0,0,0)"  stroke-width="4.0"/>
<line x1="279.4" y1="186.4" x2="296.6" y2="189.4" opacity="1.0" stroke="rgb(0,0,0)"  stroke-width="4.0"/>
<line x1="279.4" y1="186.4" x2="285.3" y2="170.0" opacity="1.0" stroke="rgb(0,0,0)"  stroke-width="4.0"/>
<line x1="236.0" y1="403.6" x2="237.6" y2="403.6" opacity="1.0" stroke="rgb(0,0,0)"  stroke-width="1.0"/>
<line x1="235.3" y1="400.3" x2="238.2" y2="400.3" opacity="1.0" stroke="rgb(0,0,0)"  stroke-width="1.0"/>
<line x1="234.7" y1="397.1" x2="238.9" y2="397.1" opacity="1.0" stroke="rgb(0,0,0)"  stroke-width="1.0"/>
<line x1="234.1" y1="393.8" x2="239.5" y2="393.8" opacity="1.0" stroke="rgb(0,0,0)"  stroke-width="1.0"/>
<line x1="233.4" y1="390.5" x2="240.1" y2="390.5" opacity="1.0" stroke="rgb(0,0,0)"  stroke-width="1.0"/>
<line x1="232.8" y1="387.3" x2="240.8" y2="387.3" opacity="1.0" stroke="rgb(0,0,0)"  stroke-width="1.0"/>
<line x1="236.8" y1="161.8" x2="236.8" y2="112.6" opacity="1.0" stroke="rgb(0,0,0)"  stroke-width="4.0"/>
<line x1="236.8" y1="161.8" x2="219.5" y2="158.8" opacity="1.0" stroke="rgb(0,0,0)"  stroke-width="4.0"/>
<line x1="236.8" y1="161.8" x2="230.8" y2="178.2" opacity="1.0" stroke="rgb(0,0,0)"  stroke-width="4.0"/>
<line x1="236.8" y1="112.6" x2="253.7" y2="117.1" opacity="1.0" stroke="rgb(0,0,0)"  stroke-width="4.0"/>
<polygon points="236.771700 456.884526 240.771700 477.314160 232.771700 477.314160 " stroke-width="2.000000" fill="rgb(0,0,0)"  stroke="rgb(0,0,0)" />
<line x1="191.0" y1="484.2" x2="190.2" y2="482.8" opacity="1.0" stroke="rgb(0,0,0)"  stroke-width="1.0"/>
<line x1="188.5" y1="486.4" x2="187.1" y2="483.9" opacity="1.0" stroke="rgb(0,0,0)"  stroke-width="1.0"/>
<line x1="186.0" y1="488.6" x2="183.9" y2="485.0" opacity="1.0" stroke="rgb(0,0,0)"  stroke-width="1.0"/>
<line x1="183.5" y1="490.8" x2="180.8" y2="486.1" opacity="1.0" stroke="rgb(0,0,0)"  stroke-width="1.0"/>
<line x1="181.0" y1="493.0" x2="177.6" y2="487.1" opacity="1.0" stroke="rgb(0,0,0)"  stroke-width="1.0"/>
<line x1="178.5" y1="495.2" x2="174.5" y2="488.2" opacity="1.0" stroke="rgb(0,0,0)"  stroke-width="1.0"/>
<polygon points="151.590849 456.884526 155.590849 477.314160 147.590849 477.314160 " stroke-width="2.000000" fill="rgb(0,0,0)"  stroke="rgb(0,0,0)" />
<line x1="151.6" y1="407.7" x2="109.0" y2="383.1" opacity="1.0" stroke="rgb(0,0,0)"  stroke-width="4.0"/>
<line x1="150.8" y1="403.6" x2="152.4" y2="403.6" opacity="1.0" stroke="rgb(0,0,0)"  stroke-width="1.0"/>
<line x1="150.2" y1="400.3" x2="153.0" y2="400.3" opacity="1.0" stroke="rgb(0,0,0)"  stroke-width="1.0"/>
<line x1="149.5" y1="397.1" x2="153.7" y2="397.1" opacity="1.0" stroke="rgb(0,0,0)"  stroke-width="1.0"/>
<line x1="148.9" y1="393.8" x2="154.3" y2="393.8" opacity="1.0" stroke="rgb(0,0,0)"  stroke-width="1.0"/>
<line x1="148.2" y1="390.5" x2="155.0" y2="390.5" opacity="1.0" stroke="rgb(0,0,0)"  stroke-width="1.0"/>
<line x1="147.6" y1="387.3" x2="155.6" y2="387.3" opacity="1.0" stroke="rgb(0,0,0)"  stroke-width="1.0"/>
<line x1="194.2" y1="333.9" x2="182.9" y2="347.3" opacity="1.0" stroke="rgb(0,0,0)"  stroke-width="4.0"/>
<line x1="194.2" y1="333.9" x2="205.4" y2="347.3" opacity="1.0" stroke="rgb(0,0,0)"  stroke-width="4.0"/>
<line x1="212.2" y1="70.0" x2="209.1" y2="52.8" opacity="1.0" stroke="rgb(0,0,0)"  stroke-width="4.0"/>
<line x1="212.2" y1="70.0" x2="195.7" y2="76.0" opacity="1.0" stroke="rgb(0,0,0)"  stroke-width="4.0"/>
<line x1="109.0" y1="383.1" x2="120.2" y2="369.7" opacity="1.0" stroke="rgb(0,0,0)"  stroke-width="4.0"/>
<line x1="109.0" y1="383.1" x2="97.8" y2="369.7" opacity="1.0" stroke="rgb(0,0,0)"  stroke-width="4.0"/>
<line x1="254.9" y1="81.3" x2="236.8" y2="112.6" opacity="1.0" stroke="rgb(0,0,0)"  stroke-width="4.0"/>
<line x1="236.8" y1="112.6" x2="212.2" y2="70.0" opacity="1.0" stroke="rgb(0,0,0)"  stroke-width="4.0"/>
<line x1="212.2" y1="70.0" x2="248.4" y2="70.0" opacity="1.0" stroke="rgb(0,0,0)"  stroke-width="4.0"/>
<line x1="279.4" y1="333.9" x2="322.0" y2="309.3" opacity="1.0" stroke="rgb(0,0,0)"  stroke-width="4.0"/>
<line x1="322.0" y1="309.3" x2="322.0" y2="260.2" opacity="1.0" stroke="rgb(0,0,0)"  stroke-width="4.0"/>
<line x1="322.0" y1="260.2" x2="279.4" y2="235.6" opacity="1.0" stroke="rgb(0,0,0)"  stroke-width="4.0"/>
<line x1="279.4" y1="235.6" x2="248.0" y2="253.7" opacity="1.0" stroke="rgb(0,0,0)"  stroke-width="4.0"/>
<line x1="236.8" y1="273.2" x2="236.8" y2="309.3" opacity="1.0" stroke="rgb(0,0,0)"  stroke-width="4.0"/>
<line x1="236.8" y1="309.3" x2="279.4" y2="333.9" opacity="1.0" stroke="rgb(0,0,0)"  stroke-width="4.0"/>
<line x1="205.4" y1="389.6" x2="236.8" y2="407.7" opacity="1.0" stroke="rgb(0,0,0)"  stroke-width="4.0"/>
<line x1="236.8" y1="407.7" x2="236.8" y2="456.9" opacity="1.0" stroke="rgb(0,0,0)"  stroke-width="4.0"/>
<line x1="236.8" y1="456.9" x2="194.2" y2="481.5" opacity="1.0" stroke="rgb(0,0,0)"  stroke-width="4.0"/>
<line x1="194.2" y1="481.5" x2="151.6" y2="456.9" opacity="1.0" stroke="rgb(0,0,0)"  stroke-width="4.0"/>
<line x1="151.6" y1="456.9" x2="151.6" y2="407.7" opacity="1.0" stroke="rgb(0,0,0)"  stroke-width="4.0"/>
<line x1="151.6" y1="407.7" x2="182.9" y2="389.6" opacity="1.0" stroke="rgb(0,0,0)"  stroke-width="4.0"/>
<text x="145.590849" y="385.211906" fill="rgb(191,191,191)" stroke-width="0" font-weight="bold" font-size="16" >H</text>
<text x="246.957045" y="228.325697" fill="rgb(191,191,191)" stroke-width="0" font-weight="bold" font-size="16" >H</text>
<text x="315.957469" y="347.834628" fill="rgb(191,191,191)" stroke-width="0" font-weight="bold" font-size="16" >H</text>
<text x="342.362549" y="283.408003" fill="rgb(191,191,191)" stroke-width="0" font-weight="bold" font-size="16" >H</text>
<text x="204.366620" y="302.096642" fill="rgb(191,191,191)" stroke-width="0" font-weight="bold" font-size="16" >H</text>
<text x="303.391818" y="199.687816" fill="rgb(191,191,191)" stroke-width="0" font-weight="bold" font-size="16" >H</text>
<text x="283.793337" y="165.738428" fill="rgb(191,191,191)" stroke-width="0" font-weight="bold" font-size="16" >H</text>
<text x="230.771700" y="385.211906" fill="rgb(191,191,191)" stroke-width="0" font-weight="bold" font-size="16" >H</text>
<text x="200.746925" y="164.508912" fill="rgb(191,191,191)" stroke-width="0" font-weight="bold" font-size="16" >H</text>
<text x="220.345406" y="198.453383" fill="rgb(191,191,191)" stroke-width="0" font-weight="bold" font-size="16" >H</text>
<text x="230.771700" y="495.376517" fill="rgb(191,191,191)" stroke-width="0" font-weight="bold" font-size="16" >H</text>
<text x="260.225979" y="128.513609" fill="rgb(191,191,191)" stroke-width="0" font-weight="bold" font-size="16" >H</text>
<text x="161.776194" y="504.720837" fill="rgb(191,191,191)" stroke-width="0" font-weight="bold" font-size="16" >H</text>
<text x="145.590849" y="495.376517" fill="rgb(191,191,191)" stroke-width="0" font-weight="bold" font-size="16" >H</text>
<text x="299.772123" y="357.178947" fill="rgb(191,191,191)" stroke-width="0" font-weight="bold" font-size="16" >H</text>
<text x="168.582793" y="365.293751" fill="rgb(191,191,191)" stroke-width="0" font-weight="bold" font-size="16" >H</text>
<text x="207.779755" y="365.293751" fill="rgb(191,191,191)" stroke-width="0" font-weight="bold" font-size="16" >H</text>
<text x="200.889549" y="48.000000" fill="rgb(191,191,191)" stroke-width="0" font-weight="bold" font-size="16" >H</text>
<text x="177.528750" y="88.455986" fill="rgb(191,191,191)" stroke-width="0" font-weight="bold" font-size="16" >H</text>
<text x="384.952974" y="326.686957" fill="rgb(191,191,191)" stroke-width="0" font-weight="bold" font-size="16" >H</text>
<text x="358.547894" y="213.079702" fill="rgb(191,191,191)" stroke-width="0" font-weight="bold" font-size="16" >H</text>
<text x="122.598905" y="367.757701" fill="rgb(191,191,191)" stroke-width="0" font-weight="bold" font-size="16" >H</text>
<text x="83.397025" y="367.757701" fill="rgb(191,191,191)" stroke-width="0" font-weight="bold" font-size="16" >H</text>
<text x="273.367043" y="519.966832" fill="rgb(191,191,191)" stroke-width="0" font-weight="bold" font-size="16" >H</text>
<text x="161.776194" y="553.901466" fill="rgb(191,191,191)" stroke-width="0" font-weight="bold" font-size="16" >H</text>
<text x="103.000424" y="519.966832" fill="rgb(191,191,191)" stroke-width="0" font-weight="bold" font-size="16" >H</text>
<text x="145.590849" y="286.850647" fill="rgb(191,191,191)" stroke-width="0" font-weight="bold" font-size="16" >H</text>
<text x="34.000000" y="400.457901" fill="rgb(191,191,191)" stroke-width="0" font-weight="bold" font-size="16" >H</text>
<text x="273.367043" y="391.113582" fill="rgb(255,12,12)" stroke-width="0" font-weight="bold" font-size="16" >O</text>
<text x="188.181274" y="391.113582" fill="rgb(255,12,12)" stroke-width="0" font-weight="bold" font-size="16" >O</text>
<text x="255.362015" y="78.029693" fill="rgb(255,12,12)" stroke-width="0" font-weight="bold" font-size="16" >O</text>
<text x="358.547894" y="341.932952" fill="rgb(255,12,12)" stroke-width="0" font-weight="bold" font-size="16" >O</text>
<text x="358.547894" y="243.571692" fill="rgb(255,12,12)" stroke-width="0" font-weight="bold" font-size="16" >O</text>
<text x="273.367043" y="489.474841" fill="rgb(255,12,12)" stroke-width="0" font-weight="bold" font-size="16" >O</text>
<text x="188.181274" y="538.655471" fill="rgb(255,12,12)" stroke-width="0" font-weight="bold" font-size="16" >O</text>
<text x="103.000424" y="489.474841" fill="rgb(255,12,12)" stroke-width="0" font-weight="bold" font-size="16" >O</text>
<text x="145.590849" y="317.342637" fill="rgb(255,12,12)" stroke-width="0" font-weight="bold" font-size="16" >O</text>
<text x="60.405080" y="415.703897" fill="rgb(255,12,12)" stroke-width="0" font-weight="bold" font-size="16" >O</text>
<text x="230.771700" y="268.162007" fill="rgb(255,12,12)" stroke-width="0" font-weight="bold" font-size="16" >O</text>
</svg>
</g>
<text font-size="18.000000" fill ="black" font-family="sans-serif"
x="10.000000" y="20.000000" ></text>
</svg>
