<?xml version="1.0"?>
<svg version="1.1" id="topsvg"
xmlns="http://www.w3.org/2000/svg" xmlns:xlink="http://www.w3.org/1999/xlink"
xmlns:cml="http://www.xml-cml.org/schema" x="0" y="0" width="200px" height="200px" viewBox="0 0 100 100">
<title> - Open Babel Depiction</title>
<rect x="0" y="0" width="100" height="100" fill="transparent"/>
<g transform="translate(0,0)">
<svg width="100" height="100" x="0" y="0" viewBox="0 0 640.841 494.879"
font-family="sans-serif" stroke="rgb(0,0,0)" stroke-width="2"  stroke-linecap="round">
<line x1="344.1" y1="254.2" x2="345.7" y2="253.7" opacity="1.0" stroke="rgb(0,0,0)"  stroke-width="1.0"/>
<line x1="341.9" y1="249.5" x2="344.7" y2="248.6" opacity="1.0" stroke="rgb(0,0,0)"  stroke-width="1.0"/>
<line x1="339.7" y1="244.7" x2="343.7" y2="243.4" opacity="1.0" stroke="rgb(0,0,0)"  stroke-width="1.0"/>
<line x1="337.5" y1="240.0" x2="342.7" y2="238.3" opacity="1.0" stroke="rgb(0,0,0)"  stroke-width="1.0"/>
<line x1="335.3" y1="235.2" x2="341.7" y2="233.2" opacity="1.0" stroke="rgb(0,0,0)"  stroke-width="1.0"/>
<line x1="333.1" y1="230.5" x2="340.7" y2="228.0" opacity="1.0" stroke="rgb(0,0,0)"  stroke-width="1.0"/>
<line x1="334.7" y1="201.3" x2="342.2" y2="166.7" opacity="1.0" stroke="rgb(0,0,0)"  stroke-width="4.0"/>
<line x1="186.6" y1="257.2" x2="217.2" y2="274.9" opacity="1.0" stroke="rgb(0,0,0)"  stroke-width="4.0"/>
<line x1="175.3" y1="237.7" x2="175.3" y2="233.7" opacity="1.0" stroke="rgb(0,0,0)"  stroke-width="4.0"/>
<line x1="412.2" y1="224.0" x2="397.8" y2="256.4" opacity="1.0" stroke="rgb(0,0,0)"  stroke-width="4.0"/>
<line x1="406.8" y1="221.6" x2="392.3" y2="253.9" opacity="1.0" stroke="rgb(0,0,0)"  stroke-width="4.0"/>
<line x1="458.7" y1="290.7" x2="423.4" y2="294.4" opacity="1.0" stroke="rgb(0,0,0)"  stroke-width="4.0"/>
<line x1="479.2" y1="299.9" x2="500.0" y2="328.6" opacity="1.0" stroke="rgb(0,0,0)"  stroke-width="4.0"/>
<line x1="315.9" y1="143.0" x2="342.2" y2="166.7" opacity="1.0" stroke="rgb(0,0,0)"  stroke-width="4.0"/>
<line x1="293.9" y1="138.3" x2="260.2" y2="149.1" opacity="1.0" stroke="rgb(0,0,0)"  stroke-width="4.0"/>
<line x1="49.8" y1="413.6" x2="80.5" y2="396.0" opacity="1.0" stroke="rgb(0,0,0)"  stroke-width="4.0"/>
<line x1="52.8" y1="418.8" x2="83.5" y2="401.2" opacity="1.0" stroke="rgb(0,0,0)"  stroke-width="4.0"/>
<line x1="376.8" y1="158.7" x2="343.1" y2="169.6" opacity="1.0" stroke="rgb(0,0,0)"  stroke-width="4.0"/>
<line x1="374.9" y1="153.0" x2="341.2" y2="163.9" opacity="1.0" stroke="rgb(0,0,0)"  stroke-width="4.0"/>
<line x1="482.8" y1="359.7" x2="497.2" y2="327.4" opacity="1.0" stroke="rgb(0,0,0)"  stroke-width="4.0"/>
<line x1="488.3" y1="362.1" x2="502.7" y2="329.8" opacity="1.0" stroke="rgb(0,0,0)"  stroke-width="4.0"/>
<polygon points="301.089442 274.874476 297.089442 226.462720 305.089442 226.462720 " stroke-width="2.000000" fill="rgb(0,0,0)"  stroke="rgb(0,0,0)" />
<line x1="302.5" y1="328.7" x2="300.9" y2="328.9" opacity="1.0" stroke="rgb(0,0,0)"  stroke-width="1.0"/>
<line x1="303.6" y1="333.0" x2="300.7" y2="333.3" opacity="1.0" stroke="rgb(0,0,0)"  stroke-width="1.0"/>
<line x1="304.7" y1="337.3" x2="300.5" y2="337.8" opacity="1.0" stroke="rgb(0,0,0)"  stroke-width="1.0"/>
<line x1="305.8" y1="341.6" x2="300.4" y2="342.2" opacity="1.0" stroke="rgb(0,0,0)"  stroke-width="1.0"/>
<line x1="306.9" y1="346.0" x2="300.2" y2="346.7" opacity="1.0" stroke="rgb(0,0,0)"  stroke-width="1.0"/>
<line x1="308.0" y1="350.3" x2="300.0" y2="351.1" opacity="1.0" stroke="rgb(0,0,0)"  stroke-width="1.0"/>
<polygon points="259.164861 347.492110 285.118049 357.613118 281.171360 364.571828 " stroke-width="2.000000" fill="rgb(0,0,0)"  stroke="rgb(0,0,0)" />
<line x1="221.6" y1="319.8" x2="222.4" y2="321.2" opacity="1.0" stroke="rgb(0,0,0)"  stroke-width="1.0"/>
<line x1="225.1" y1="317.1" x2="226.6" y2="319.6" opacity="1.0" stroke="rgb(0,0,0)"  stroke-width="1.0"/>
<line x1="228.6" y1="314.3" x2="230.7" y2="317.9" opacity="1.0" stroke="rgb(0,0,0)"  stroke-width="1.0"/>
<line x1="232.1" y1="311.6" x2="234.8" y2="316.3" opacity="1.0" stroke="rgb(0,0,0)"  stroke-width="1.0"/>
<line x1="235.6" y1="308.8" x2="239.0" y2="314.6" opacity="1.0" stroke="rgb(0,0,0)"  stroke-width="1.0"/>
<line x1="239.1" y1="306.0" x2="243.1" y2="313.0" opacity="1.0" stroke="rgb(0,0,0)"  stroke-width="1.0"/>
<line x1="346.9" y1="260.1" x2="395.1" y2="255.1" opacity="1.0" stroke="rgb(0,0,0)"  stroke-width="4.0"/>
<line x1="259.2" y1="250.7" x2="270.1" y2="237.6" opacity="1.0" stroke="rgb(0,0,0)"  stroke-width="4.0"/>
<line x1="259.2" y1="250.7" x2="248.2" y2="237.6" opacity="1.0" stroke="rgb(0,0,0)"  stroke-width="4.0"/>
<line x1="346.9" y1="338.0" x2="340.0" y2="353.6" opacity="1.0" stroke="rgb(0,0,0)"  stroke-width="4.0"/>
<line x1="346.9" y1="338.0" x2="361.6" y2="346.5" opacity="1.0" stroke="rgb(0,0,0)"  stroke-width="4.0"/>
<line x1="217.2" y1="274.9" x2="217.2" y2="257.9" opacity="1.0" stroke="rgb(0,0,0)"  stroke-width="4.0"/>
<polygon points="173.180741 347.821310 169.553630 299.383593 177.553393 299.445197 " stroke-width="2.000000" fill="rgb(0,0,0)"  stroke="rgb(0,0,0)" />
<line x1="375.1" y1="299.1" x2="387.8" y2="310.5" opacity="1.0" stroke="rgb(0,0,0)"  stroke-width="4.0"/>
<line x1="375.1" y1="299.1" x2="387.8" y2="287.7" opacity="1.0" stroke="rgb(0,0,0)"  stroke-width="4.0"/>
<line x1="259.9" y1="397.9" x2="265.9" y2="413.8" opacity="1.0" stroke="rgb(0,0,0)"  stroke-width="4.0"/>
<line x1="259.9" y1="397.9" x2="276.7" y2="394.7" opacity="1.0" stroke="rgb(0,0,0)"  stroke-width="4.0"/>
<line x1="301.1" y1="226.5" x2="318.1" y2="226.5" opacity="1.0" stroke="rgb(0,0,0)"  stroke-width="4.0"/>
<line x1="301.1" y1="226.5" x2="301.1" y2="209.4" opacity="1.0" stroke="rgb(0,0,0)"  stroke-width="4.0"/>
<line x1="301.1" y1="226.5" x2="284.1" y2="226.5" opacity="1.0" stroke="rgb(0,0,0)"  stroke-width="4.0"/>
<line x1="216.5" y1="423.5" x2="205.6" y2="436.5" opacity="1.0" stroke="rgb(0,0,0)"  stroke-width="4.0"/>
<line x1="216.5" y1="423.5" x2="227.5" y2="436.4" opacity="1.0" stroke="rgb(0,0,0)"  stroke-width="4.0"/>
<line x1="395.1" y1="255.1" x2="423.4" y2="294.4" opacity="1.0" stroke="rgb(0,0,0)"  stroke-width="4.0"/>
<line x1="173.6" y1="299.4" x2="190.6" y2="299.5" opacity="1.0" stroke="rgb(0,0,0)"  stroke-width="4.0"/>
<line x1="173.6" y1="299.4" x2="173.7" y2="282.4" opacity="1.0" stroke="rgb(0,0,0)"  stroke-width="4.0"/>
<line x1="173.6" y1="299.4" x2="156.5" y2="299.3" opacity="1.0" stroke="rgb(0,0,0)"  stroke-width="4.0"/>
<line x1="128.3" y1="320.5" x2="128.6" y2="303.5" opacity="1.0" stroke="rgb(0,0,0)"  stroke-width="4.0"/>
<line x1="127.5" y1="424.9" x2="127.6" y2="441.9" opacity="1.0" stroke="rgb(0,0,0)"  stroke-width="4.0"/>
<line x1="423.4" y1="294.4" x2="408.1" y2="301.8" opacity="1.0" stroke="rgb(0,0,0)"  stroke-width="4.0"/>
<line x1="423.4" y1="294.4" x2="428.1" y2="310.7" opacity="1.0" stroke="rgb(0,0,0)"  stroke-width="4.0"/>
<line x1="82.4" y1="346.1" x2="67.8" y2="337.4" opacity="1.0" stroke="rgb(0,0,0)"  stroke-width="4.0"/>
<line x1="500.0" y1="328.6" x2="548.1" y2="323.6" opacity="1.0" stroke="rgb(0,0,0)"  stroke-width="4.0"/>
<line x1="260.2" y1="149.1" x2="224.3" y2="116.7" opacity="1.0" stroke="rgb(0,0,0)"  stroke-width="4.0"/>
<line x1="260.2" y1="149.1" x2="246.7" y2="159.6" opacity="1.0" stroke="rgb(0,0,0)"  stroke-width="4.0"/>
<line x1="260.2" y1="149.1" x2="268.1" y2="164.2" opacity="1.0" stroke="rgb(0,0,0)"  stroke-width="4.0"/>
<line x1="224.3" y1="116.7" x2="178.2" y2="131.6" opacity="1.0" stroke="rgb(0,0,0)"  stroke-width="4.0"/>
<line x1="224.3" y1="116.7" x2="234.4" y2="69.3" opacity="1.0" stroke="rgb(0,0,0)"  stroke-width="4.0"/>
<line x1="224.3" y1="116.7" x2="240.4" y2="111.5" opacity="1.0" stroke="rgb(0,0,0)"  stroke-width="4.0"/>
<line x1="548.1" y1="323.6" x2="576.5" y2="362.8" opacity="1.0" stroke="rgb(0,0,0)"  stroke-width="4.0"/>
<line x1="548.1" y1="323.6" x2="563.4" y2="316.2" opacity="1.0" stroke="rgb(0,0,0)"  stroke-width="4.0"/>
<line x1="548.1" y1="323.6" x2="543.5" y2="307.3" opacity="1.0" stroke="rgb(0,0,0)"  stroke-width="4.0"/>
<line x1="178.2" y1="131.6" x2="173.0" y2="115.4" opacity="1.0" stroke="rgb(0,0,0)"  stroke-width="4.0"/>
<line x1="178.2" y1="131.6" x2="162.0" y2="136.8" opacity="1.0" stroke="rgb(0,0,0)"  stroke-width="4.0"/>
<line x1="178.2" y1="131.6" x2="183.4" y2="147.8" opacity="1.0" stroke="rgb(0,0,0)"  stroke-width="4.0"/>
<line x1="234.4" y1="69.3" x2="251.0" y2="72.9" opacity="1.0" stroke="rgb(0,0,0)"  stroke-width="4.0"/>
<line x1="234.4" y1="69.3" x2="238.0" y2="52.7" opacity="1.0" stroke="rgb(0,0,0)"  stroke-width="4.0"/>
<line x1="234.4" y1="69.3" x2="217.8" y2="65.8" opacity="1.0" stroke="rgb(0,0,0)"  stroke-width="4.0"/>
<line x1="576.5" y1="362.8" x2="562.7" y2="372.8" opacity="1.0" stroke="rgb(0,0,0)"  stroke-width="4.0"/>
<line x1="576.5" y1="362.8" x2="586.5" y2="376.6" opacity="1.0" stroke="rgb(0,0,0)"  stroke-width="4.0"/>
<line x1="576.5" y1="362.8" x2="590.3" y2="352.9" opacity="1.0" stroke="rgb(0,0,0)"  stroke-width="4.0"/>
<line x1="346.9" y1="260.1" x2="301.1" y2="274.9" opacity="1.0" stroke="rgb(0,0,0)"  stroke-width="4.0"/>
<line x1="301.1" y1="274.9" x2="301.1" y2="323.3" opacity="1.0" stroke="rgb(0,0,0)"  stroke-width="4.0"/>
<line x1="301.1" y1="323.3" x2="346.9" y2="338.0" opacity="1.0" stroke="rgb(0,0,0)"  stroke-width="4.0"/>
<line x1="346.9" y1="338.0" x2="375.1" y2="299.1" opacity="1.0" stroke="rgb(0,0,0)"  stroke-width="4.0"/>
<line x1="375.1" y1="299.1" x2="346.9" y2="260.1" opacity="1.0" stroke="rgb(0,0,0)"  stroke-width="4.0"/>
<line x1="301.1" y1="274.9" x2="259.2" y2="250.7" opacity="1.0" stroke="rgb(0,0,0)"  stroke-width="4.0"/>
<line x1="259.2" y1="250.7" x2="217.2" y2="274.9" opacity="1.0" stroke="rgb(0,0,0)"  stroke-width="4.0"/>
<line x1="217.2" y1="274.9" x2="217.2" y2="323.3" opacity="1.0" stroke="rgb(0,0,0)"  stroke-width="4.0"/>
<line x1="217.2" y1="323.3" x2="259.2" y2="347.5" opacity="1.0" stroke="rgb(0,0,0)"  stroke-width="4.0"/>
<line x1="259.2" y1="347.5" x2="301.1" y2="323.3" opacity="1.0" stroke="rgb(0,0,0)"  stroke-width="4.0"/>
<line x1="259.2" y1="347.5" x2="259.9" y2="397.9" opacity="1.0" stroke="rgb(0,0,0)"  stroke-width="4.0"/>
<line x1="259.9" y1="397.9" x2="216.5" y2="423.5" opacity="1.0" stroke="rgb(0,0,0)"  stroke-width="4.0"/>
<line x1="216.5" y1="423.5" x2="172.8" y2="398.2" opacity="1.0" stroke="rgb(0,0,0)"  stroke-width="4.0"/>
<line x1="172.8" y1="398.2" x2="173.2" y2="347.8" opacity="1.0" stroke="rgb(0,0,0)"  stroke-width="4.0"/>
<line x1="173.2" y1="347.8" x2="217.2" y2="323.3" opacity="1.0" stroke="rgb(0,0,0)"  stroke-width="4.0"/>
<line x1="173.2" y1="347.8" x2="128.3" y2="320.5" opacity="1.0" stroke="rgb(0,0,0)"  stroke-width="4.0"/>
<line x1="128.3" y1="320.5" x2="82.4" y2="346.1" opacity="1.0" stroke="rgb(0,0,0)"  stroke-width="4.0"/>
<line x1="126.6" y1="329.7" x2="91.2" y2="349.4" opacity="1.0" stroke="rgb(0,0,0)"  stroke-width="4.0"/>
<line x1="82.4" y1="346.1" x2="82.0" y2="398.6" opacity="1.0" stroke="rgb(0,0,0)"  stroke-width="4.0"/>
<line x1="82.0" y1="398.6" x2="127.5" y2="424.9" opacity="1.0" stroke="rgb(0,0,0)"  stroke-width="4.0"/>
<line x1="127.5" y1="424.9" x2="172.8" y2="398.2" opacity="1.0" stroke="rgb(0,0,0)"  stroke-width="4.0"/>
<line x1="129.0" y1="415.6" x2="164.0" y2="395.1" opacity="1.0" stroke="rgb(0,0,0)"  stroke-width="4.0"/>
<text x="283.431891" y="400.321397" fill="rgb(191,191,191)" stroke-width="0" font-weight="bold" font-size="16" >H</text>
<text x="122.888825" y="298.506632" fill="rgb(191,191,191)" stroke-width="0" font-weight="bold" font-size="16" >H</text>
<text x="137.543064" y="307.182019" fill="rgb(191,191,191)" stroke-width="0" font-weight="bold" font-size="16" >H</text>
<text x="167.785888" y="277.399107" fill="rgb(191,191,191)" stroke-width="0" font-weight="bold" font-size="16" >H</text>
<text x="197.568800" y="307.641931" fill="rgb(191,191,191)" stroke-width="0" font-weight="bold" font-size="16" >H</text>
<text x="229.873965" y="454.358599" fill="rgb(191,191,191)" stroke-width="0" font-weight="bold" font-size="16" >H</text>
<text x="191.231702" y="454.503834" fill="rgb(191,191,191)" stroke-width="0" font-weight="bold" font-size="16" >H</text>
<text x="265.074153" y="234.462720" fill="rgb(191,191,191)" stroke-width="0" font-weight="bold" font-size="16" >H</text>
<text x="295.089442" y="204.447431" fill="rgb(191,191,191)" stroke-width="0" font-weight="bold" font-size="16" >H</text>
<text x="325.104731" y="234.462720" fill="rgb(191,191,191)" stroke-width="0" font-weight="bold" font-size="16" >H</text>
<text x="169.310858" y="228.653309" fill="rgb(191,191,191)" stroke-width="0" font-weight="bold" font-size="16" >H</text>
<text x="264.498053" y="434.011138" fill="rgb(191,191,191)" stroke-width="0" font-weight="bold" font-size="16" >H</text>
<text x="391.462725" y="287.003999" fill="rgb(191,191,191)" stroke-width="0" font-weight="bold" font-size="16" >H</text>
<text x="391.462725" y="327.156709" fill="rgb(191,191,191)" stroke-width="0" font-weight="bold" font-size="16" >H</text>
<text x="211.235439" y="252.859187" fill="rgb(191,191,191)" stroke-width="0" font-weight="bold" font-size="16" >H</text>
<text x="366.913123" y="361.011051" fill="rgb(191,191,191)" stroke-width="0" font-weight="bold" font-size="16" >H</text>
<text x="328.745295" y="373.481919" fill="rgb(191,191,191)" stroke-width="0" font-weight="bold" font-size="16" >H</text>
<text x="233.867935" y="235.673014" fill="rgb(191,191,191)" stroke-width="0" font-weight="bold" font-size="16" >H</text>
<text x="272.456946" y="235.673014" fill="rgb(191,191,191)" stroke-width="0" font-weight="bold" font-size="16" >H</text>
<text x="246.876174" y="310.711236" fill="rgb(191,191,191)" stroke-width="0" font-weight="bold" font-size="16" >H</text>
<text x="533.914318" y="302.752343" fill="rgb(191,191,191)" stroke-width="0" font-weight="bold" font-size="16" >H</text>
<text x="594.840513" y="353.236123" fill="rgb(191,191,191)" stroke-width="0" font-weight="bold" font-size="16" >H</text>
<text x="588.125802" y="395.151021" fill="rgb(191,191,191)" stroke-width="0" font-weight="bold" font-size="16" >H</text>
<text x="546.210904" y="388.436310" fill="rgb(191,191,191)" stroke-width="0" font-weight="bold" font-size="16" >H</text>
<text x="199.055041" y="71.058519" fill="rgb(191,191,191)" stroke-width="0" font-weight="bold" font-size="16" >H</text>
<text x="234.690935" y="48.000000" fill="rgb(191,191,191)" stroke-width="0" font-weight="bold" font-size="16" >H</text>
<text x="257.749455" y="83.640735" fill="rgb(191,191,191)" stroke-width="0" font-weight="bold" font-size="16" >H</text>
<text x="181.413797" y="168.128932" fill="rgb(191,191,191)" stroke-width="0" font-weight="bold" font-size="16" >H</text>
<text x="143.623581" y="148.793276" fill="rgb(191,191,191)" stroke-width="0" font-weight="bold" font-size="16" >H</text>
<text x="162.959236" y="111.003059" fill="rgb(191,191,191)" stroke-width="0" font-weight="bold" font-size="16" >H</text>
<text x="288.955673" y="375.791160" fill="rgb(191,191,191)" stroke-width="0" font-weight="bold" font-size="16" >H</text>
<text x="569.138711" y="318.510370" fill="rgb(191,191,191)" stroke-width="0" font-weight="bold" font-size="16" >H</text>
<text x="246.818080" y="115.456941" fill="rgb(191,191,191)" stroke-width="0" font-weight="bold" font-size="16" >H</text>
<text x="268.220917" y="183.669105" fill="rgb(191,191,191)" stroke-width="0" font-weight="bold" font-size="16" >H</text>
<text x="230.488795" y="175.579501" fill="rgb(191,191,191)" stroke-width="0" font-weight="bold" font-size="16" >H</text>
<text x="50.605232" y="338.765849" fill="rgb(191,191,191)" stroke-width="0" font-weight="bold" font-size="16" >H</text>
<text x="425.665631" y="331.228138" fill="rgb(191,191,191)" stroke-width="0" font-weight="bold" font-size="16" >H</text>
<text x="390.441237" y="315.470112" fill="rgb(191,191,191)" stroke-width="0" font-weight="bold" font-size="16" >H</text>
<text x="121.625279" y="462.879068" fill="rgb(191,191,191)" stroke-width="0" font-weight="bold" font-size="16" >H</text>
<text x="474.217781" y="380.792094" fill="rgb(255,12,12)" stroke-width="0" font-weight="bold" font-size="16" >O</text>
<text x="382.230603" y="159.835998" fill="rgb(255,12,12)" stroke-width="0" font-weight="bold" font-size="16" >O</text>
<text x="34.000000" y="430.641679" fill="rgb(255,12,12)" stroke-width="0" font-weight="bold" font-size="16" >O</text>
<text x="300.245294" y="142.262530" fill="rgb(255,12,12)" stroke-width="0" font-weight="bold" font-size="16" >O</text>
<text x="465.595647" y="297.383479" fill="rgb(255,12,12)" stroke-width="0" font-weight="bold" font-size="16" >O</text>
<text x="408.818340" y="218.951593" fill="rgb(255,12,12)" stroke-width="0" font-weight="bold" font-size="16" >O</text>
<text x="169.310858" y="258.668598" fill="rgb(255,12,12)" stroke-width="0" font-weight="bold" font-size="16" >O</text>
<text x="299.441659" y="372.203849" fill="rgb(191,191,191)" stroke-width="0" font-weight="bold" font-size="16" >H</text>
<text x="326.014872" y="222.054787" fill="rgb(255,12,12)" stroke-width="0" font-weight="bold" font-size="16" >O</text>
</svg>
</g>
<text font-size="18.000000" fill ="black" font-family="sans-serif"
x="10.000000" y="20.000000" ></text>
</svg>
