<?xml version="1.0"?>
<svg version="1.1" id="topsvg"
xmlns="http://www.w3.org/2000/svg" xmlns:xlink="http://www.w3.org/1999/xlink"
xmlns:cml="http://www.xml-cml.org/schema" x="0" y="0" width="200px" height="200px" viewBox="0 0 100 100">
<title> - Open Babel Depiction</title>
<rect x="0" y="0" width="100" height="100" fill="transparent"/>
<g transform="translate(0,0)">
<svg width="100" height="100" x="0" y="0" viewBox="0 0 435.597 398.7"
font-family="sans-serif" stroke="rgb(0,0,0)" stroke-width="2"  stroke-linecap="round">
<line x1="246.4" y1="106.3" x2="236.0" y2="74.0" opacity="1.0" stroke="rgb(0,0,0)"  stroke-width="4.0"/>
<line x1="240.7" y1="52.0" x2="242.8" y2="49.6" opacity="1.0" stroke="rgb(0,0,0)"  stroke-width="4.0"/>
<line x1="360.1" y1="107.2" x2="329.1" y2="93.4" opacity="1.0" stroke="rgb(0,0,0)"  stroke-width="4.0"/>
<line x1="382.5" y1="104.9" x2="385.1" y2="103.1" opacity="1.0" stroke="rgb(0,0,0)"  stroke-width="4.0"/>
<line x1="143.6" y1="345.7" x2="143.6" y2="311.7" opacity="1.0" stroke="rgb(0,0,0)"  stroke-width="4.0"/>
<line x1="149.6" y1="345.7" x2="149.6" y2="311.7" opacity="1.0" stroke="rgb(0,0,0)"  stroke-width="4.0"/>
<line x1="246.3" y1="182.3" x2="235.7" y2="214.6" opacity="1.0" stroke="rgb(0,0,0)"  stroke-width="4.0"/>
<line x1="94.6" y1="294.7" x2="76.5" y2="305.2" opacity="1.0" stroke="rgb(0,0,0)"  stroke-width="4.0"/>
<line x1="54.0" y1="305.2" x2="51.3" y2="303.7" opacity="1.0" stroke="rgb(0,0,0)"  stroke-width="4.0"/>
<line x1="65.2" y1="324.7" x2="65.2" y2="327.9" opacity="1.0" stroke="rgb(0,0,0)"  stroke-width="4.0"/>
<line x1="76.5" y1="224.3" x2="105.9" y2="241.3" opacity="1.0" stroke="rgb(0,0,0)"  stroke-width="4.0"/>
<line x1="65.2" y1="204.8" x2="65.2" y2="201.7" opacity="1.0" stroke="rgb(0,0,0)"  stroke-width="4.0"/>
<line x1="54.0" y1="224.3" x2="51.3" y2="225.8" opacity="1.0" stroke="rgb(0,0,0)"  stroke-width="4.0"/>
<line x1="242.6" y1="183.7" x2="242.3" y2="182.1" opacity="1.0" stroke="rgb(0,0,0)"  stroke-width="1.0"/>
<line x1="239.6" y1="184.8" x2="239.1" y2="182.0" opacity="1.0" stroke="rgb(0,0,0)"  stroke-width="1.0"/>
<line x1="236.6" y1="185.9" x2="236.0" y2="181.8" opacity="1.0" stroke="rgb(0,0,0)"  stroke-width="1.0"/>
<line x1="233.6" y1="187.0" x2="232.8" y2="181.7" opacity="1.0" stroke="rgb(0,0,0)"  stroke-width="1.0"/>
<line x1="230.6" y1="188.2" x2="229.6" y2="181.5" opacity="1.0" stroke="rgb(0,0,0)"  stroke-width="1.0"/>
<line x1="227.6" y1="189.3" x2="226.4" y2="181.4" opacity="1.0" stroke="rgb(0,0,0)"  stroke-width="1.0"/>
<polygon points="246.430502 106.306527 226.530668 107.168773 227.796454 99.269546 " stroke-width="2.000000" fill="rgb(0,0,0)"  stroke="rgb(0,0,0)" />
<line x1="218.8" y1="144.3" x2="206.8" y2="133.5" opacity="1.0" stroke="rgb(0,0,0)"  stroke-width="4.0"/>
<line x1="218.8" y1="144.3" x2="206.8" y2="155.0" opacity="1.0" stroke="rgb(0,0,0)"  stroke-width="4.0"/>
<line x1="291.1" y1="120.9" x2="329.1" y2="93.4" opacity="1.0" stroke="rgb(0,0,0)"  stroke-width="4.0"/>
<line x1="294.9" y1="122.0" x2="294.2" y2="123.4" opacity="1.0" stroke="rgb(0,0,0)"  stroke-width="1.0"/>
<line x1="298.0" y1="122.8" x2="296.7" y2="125.4" opacity="1.0" stroke="rgb(0,0,0)"  stroke-width="1.0"/>
<line x1="301.1" y1="123.7" x2="299.2" y2="127.4" opacity="1.0" stroke="rgb(0,0,0)"  stroke-width="1.0"/>
<line x1="304.1" y1="124.5" x2="301.7" y2="129.4" opacity="1.0" stroke="rgb(0,0,0)"  stroke-width="1.0"/>
<line x1="307.2" y1="125.4" x2="304.1" y2="131.4" opacity="1.0" stroke="rgb(0,0,0)"  stroke-width="1.0"/>
<line x1="310.3" y1="126.2" x2="306.6" y2="133.3" opacity="1.0" stroke="rgb(0,0,0)"  stroke-width="1.0"/>
<line x1="329.1" y1="93.4" x2="338.2" y2="80.0" opacity="1.0" stroke="rgb(0,0,0)"  stroke-width="4.0"/>
<line x1="329.1" y1="93.4" x2="317.5" y2="82.1" opacity="1.0" stroke="rgb(0,0,0)"  stroke-width="4.0"/>
<line x1="259.1" y1="264.8" x2="275.2" y2="264.8" opacity="1.0" stroke="rgb(0,0,0)"  stroke-width="4.0"/>
<line x1="219.3" y1="298.6" x2="187.3" y2="288.2" opacity="1.0" stroke="rgb(0,0,0)"  stroke-width="4.0"/>
<line x1="187.3" y1="288.2" x2="187.3" y2="241.3" opacity="1.0" stroke="rgb(0,0,0)"  stroke-width="4.0"/>
<line x1="194.5" y1="282.2" x2="194.5" y2="247.3" opacity="1.0" stroke="rgb(0,0,0)"  stroke-width="4.0"/>
<line x1="187.3" y1="241.3" x2="219.3" y2="230.9" opacity="1.0" stroke="rgb(0,0,0)"  stroke-width="4.0"/>
<line x1="239.3" y1="237.5" x2="259.1" y2="264.8" opacity="1.0" stroke="rgb(0,0,0)"  stroke-width="4.0"/>
<line x1="259.1" y1="264.8" x2="240.8" y2="290.1" opacity="1.0" stroke="rgb(0,0,0)"  stroke-width="4.0"/>
<line x1="249.8" y1="265.4" x2="235.7" y2="284.8" opacity="1.0" stroke="rgb(0,0,0)"  stroke-width="4.0"/>
<line x1="157.8" y1="224.3" x2="187.3" y2="241.3" opacity="1.0" stroke="rgb(0,0,0)"  stroke-width="4.0"/>
<line x1="187.3" y1="288.2" x2="146.6" y2="311.7" opacity="1.0" stroke="rgb(0,0,0)"  stroke-width="4.0"/>
<line x1="146.6" y1="311.7" x2="117.2" y2="294.7" opacity="1.0" stroke="rgb(0,0,0)"  stroke-width="4.0"/>
<line x1="105.9" y1="275.2" x2="105.9" y2="241.3" opacity="1.0" stroke="rgb(0,0,0)"  stroke-width="4.0"/>
<line x1="105.9" y1="241.3" x2="133.2" y2="225.5" opacity="1.0" stroke="rgb(0,0,0)"  stroke-width="4.0"/>
<line x1="114.7" y1="244.5" x2="135.6" y2="232.4" opacity="1.0" stroke="rgb(0,0,0)"  stroke-width="4.0"/>
<line x1="246.3" y1="182.3" x2="278.6" y2="171.9" opacity="1.0" stroke="rgb(0,0,0)"  stroke-width="4.0"/>
<line x1="291.0" y1="154.9" x2="291.1" y2="120.9" opacity="1.0" stroke="rgb(0,0,0)"  stroke-width="4.0"/>
<line x1="291.1" y1="120.9" x2="246.4" y2="106.3" opacity="1.0" stroke="rgb(0,0,0)"  stroke-width="4.0"/>
<line x1="246.4" y1="106.3" x2="218.8" y2="144.3" opacity="1.0" stroke="rgb(0,0,0)"  stroke-width="4.0"/>
<line x1="218.8" y1="144.3" x2="246.3" y2="182.3" opacity="1.0" stroke="rgb(0,0,0)"  stroke-width="4.0"/>
<text x="302.213567" y="81.087502" fill="rgb(191,191,191)" stroke-width="0" font-weight="bold" font-size="16" >H</text>
<text x="211.528258" y="194.812873" fill="rgb(191,191,191)" stroke-width="0" font-weight="bold" font-size="16" >H</text>
<text x="191.146846" y="132.733880" fill="rgb(191,191,191)" stroke-width="0" font-weight="bold" font-size="16" >H</text>
<text x="191.076387" y="171.707049" fill="rgb(191,191,191)" stroke-width="0" font-weight="bold" font-size="16" >H</text>
<text x="211.673874" y="109.698515" fill="rgb(191,191,191)" stroke-width="0" font-weight="bold" font-size="16" >H</text>
<text x="311.006839" y="142.165979" fill="rgb(191,191,191)" stroke-width="0" font-weight="bold" font-size="16" >H</text>
<text x="339.453447" y="77.235749" fill="rgb(191,191,191)" stroke-width="0" font-weight="bold" font-size="16" >H</text>
<text x="282.240816" y="272.754514" fill="rgb(191,191,191)" stroke-width="0" font-weight="bold" font-size="16" >H</text>
<text x="245.517635" y="48.000000" fill="rgb(191,191,191)" stroke-width="0" font-weight="bold" font-size="16" >H</text>
<text x="389.596702" y="103.455856" fill="rgb(191,191,191)" stroke-width="0" font-weight="bold" font-size="16" >H</text>
<text x="34.000000" y="305.165611" fill="rgb(191,191,191)" stroke-width="0" font-weight="bold" font-size="16" >H</text>
<text x="59.219591" y="348.850132" fill="rgb(191,191,191)" stroke-width="0" font-weight="bold" font-size="16" >H</text>
<text x="59.219591" y="196.663593" fill="rgb(191,191,191)" stroke-width="0" font-weight="bold" font-size="16" >H</text>
<text x="34.000000" y="240.348115" fill="rgb(191,191,191)" stroke-width="0" font-weight="bold" font-size="16" >H</text>
<text x="59.219591" y="225.786608" fill="rgb(12,12,255)" stroke-width="0" font-weight="bold" font-size="16" >N</text>
<text x="225.991123" y="69.607398" fill="rgb(255,12,12)" stroke-width="0" font-weight="bold" font-size="16" >O</text>
<text x="366.007060" y="120.535095" fill="rgb(255,12,12)" stroke-width="0" font-weight="bold" font-size="16" >O</text>
<text x="140.580838" y="366.699722" fill="rgb(255,12,12)" stroke-width="0" font-weight="bold" font-size="16" >O</text>
<text x="225.704590" y="234.955660" fill="rgb(12,12,255)" stroke-width="0" font-weight="bold" font-size="16" >N</text>
<text x="225.704590" y="310.558066" fill="rgb(12,12,255)" stroke-width="0" font-weight="bold" font-size="16" >N</text>
<text x="140.580838" y="225.786608" fill="rgb(12,12,255)" stroke-width="0" font-weight="bold" font-size="16" >N</text>
<text x="99.902563" y="296.240816" fill="rgb(12,12,255)" stroke-width="0" font-weight="bold" font-size="16" >N</text>
<text x="59.219591" y="319.731815" fill="rgb(12,12,255)" stroke-width="0" font-weight="bold" font-size="16" >N</text>
<text x="284.998108" y="175.868822" fill="rgb(255,12,12)" stroke-width="0" font-weight="bold" font-size="16" >O</text>
</svg>
</g>
<text font-size="18.000000" fill ="black" font-family="sans-serif"
x="10.000000" y="20.000000" ></text>
</svg>
