<?xml version="1.0"?>
<svg version="1.1" id="topsvg"
xmlns="http://www.w3.org/2000/svg" xmlns:xlink="http://www.w3.org/1999/xlink"
xmlns:cml="http://www.xml-cml.org/schema" x="0" y="0" width="200px" height="200px" viewBox="0 0 100 100">
<title> - Open Babel Depiction</title>
<rect x="0" y="0" width="100" height="100" fill="transparent"/>
<g transform="translate(0,0)">
<svg width="100" height="100" x="0" y="0" viewBox="0 0 319.66 304.104"
font-family="sans-serif" stroke="rgb(0,0,0)" stroke-width="2"  stroke-linecap="round">
<line x1="153.6" y1="103.5" x2="153.6" y2="68.0" opacity="1.0" stroke="rgb(0,0,0)"  stroke-width="4.0"/>
<line x1="142.4" y1="48.5" x2="138.8" y2="46.5" opacity="1.0" stroke="rgb(0,0,0)"  stroke-width="4.0"/>
<line x1="111.6" y1="127.8" x2="80.9" y2="110.0" opacity="1.0" stroke="rgb(0,0,0)"  stroke-width="4.0"/>
<line x1="58.4" y1="110.0" x2="54.8" y2="112.1" opacity="1.0" stroke="rgb(0,0,0)"  stroke-width="4.0"/>
<line x1="195.6" y1="127.8" x2="226.4" y2="110.0" opacity="1.0" stroke="rgb(0,0,0)"  stroke-width="4.0"/>
<line x1="237.6" y1="90.5" x2="237.6" y2="86.5" opacity="1.0" stroke="rgb(0,0,0)"  stroke-width="4.0"/>
<line x1="69.6" y1="236.1" x2="69.6" y2="200.6" opacity="1.0" stroke="rgb(0,0,0)"  stroke-width="4.0"/>
<line x1="58.4" y1="255.6" x2="54.8" y2="257.6" opacity="1.0" stroke="rgb(0,0,0)"  stroke-width="4.0"/>
<line x1="237.6" y1="236.1" x2="237.6" y2="200.6" opacity="1.0" stroke="rgb(0,0,0)"  stroke-width="4.0"/>
<line x1="248.9" y1="255.6" x2="252.4" y2="257.6" opacity="1.0" stroke="rgb(0,0,0)"  stroke-width="4.0"/>
<line x1="269.9" y1="185.4" x2="239.1" y2="203.2" opacity="1.0" stroke="rgb(0,0,0)"  stroke-width="4.0"/>
<line x1="266.9" y1="180.2" x2="236.1" y2="198.0" opacity="1.0" stroke="rgb(0,0,0)"  stroke-width="4.0"/>
<line x1="156.7" y1="100.8" x2="157.5" y2="102.2" opacity="1.0" stroke="rgb(0,0,0)"  stroke-width="1.0"/>
<line x1="159.2" y1="98.7" x2="160.6" y2="101.2" opacity="1.0" stroke="rgb(0,0,0)"  stroke-width="1.0"/>
<line x1="161.7" y1="96.5" x2="163.7" y2="100.1" opacity="1.0" stroke="rgb(0,0,0)"  stroke-width="1.0"/>
<line x1="164.1" y1="94.3" x2="166.9" y2="99.0" opacity="1.0" stroke="rgb(0,0,0)"  stroke-width="1.0"/>
<line x1="166.6" y1="92.2" x2="170.0" y2="98.0" opacity="1.0" stroke="rgb(0,0,0)"  stroke-width="1.0"/>
<line x1="169.1" y1="90.0" x2="173.1" y2="96.9" opacity="1.0" stroke="rgb(0,0,0)"  stroke-width="1.0"/>
<polygon points="111.625999 127.798360 107.625999 107.648394 115.625999 107.648394 " stroke-width="2.000000" fill="rgb(0,0,0)"  stroke="rgb(0,0,0)" />
<polygon points="195.640783 127.798360 215.093074 134.409137 211.093433 141.337548 " stroke-width="2.000000" fill="rgb(0,0,0)"  stroke="rgb(0,0,0)" />
<line x1="111.6" y1="176.3" x2="69.6" y2="200.6" opacity="1.0" stroke="rgb(0,0,0)"  stroke-width="4.0"/>
<polygon points="111.625999 176.305741 115.625999 196.455707 107.625999 196.455707 " stroke-width="2.000000" fill="rgb(0,0,0)"  stroke="rgb(0,0,0)" />
<line x1="195.6" y1="176.3" x2="237.6" y2="200.6" opacity="1.0" stroke="rgb(0,0,0)"  stroke-width="4.0"/>
<polygon points="195.640783 176.305741 199.640783 196.455707 191.640783 196.455707 " stroke-width="2.000000" fill="rgb(0,0,0)"  stroke="rgb(0,0,0)" />
<line x1="69.6" y1="200.6" x2="63.8" y2="184.5" opacity="1.0" stroke="rgb(0,0,0)"  stroke-width="4.0"/>
<line x1="69.6" y1="200.6" x2="52.8" y2="203.5" opacity="1.0" stroke="rgb(0,0,0)"  stroke-width="4.0"/>
<line x1="153.6" y1="103.5" x2="111.6" y2="127.8" opacity="1.0" stroke="rgb(0,0,0)"  stroke-width="4.0"/>
<line x1="111.6" y1="127.8" x2="111.6" y2="176.3" opacity="1.0" stroke="rgb(0,0,0)"  stroke-width="4.0"/>
<line x1="111.6" y1="176.3" x2="142.4" y2="194.1" opacity="1.0" stroke="rgb(0,0,0)"  stroke-width="4.0"/>
<line x1="164.9" y1="194.1" x2="195.6" y2="176.3" opacity="1.0" stroke="rgb(0,0,0)"  stroke-width="4.0"/>
<line x1="195.6" y1="176.3" x2="195.6" y2="127.8" opacity="1.0" stroke="rgb(0,0,0)"  stroke-width="4.0"/>
<line x1="195.6" y1="127.8" x2="153.6" y2="103.5" opacity="1.0" stroke="rgb(0,0,0)"  stroke-width="4.0"/>
<text x="257.696638" y="272.104100" fill="rgb(191,191,191)" stroke-width="0" font-weight="bold" font-size="16" >H</text>
<text x="37.570143" y="272.104100" fill="rgb(191,191,191)" stroke-width="0" font-weight="bold" font-size="16" >H</text>
<text x="231.648175" y="81.470093" fill="rgb(191,191,191)" stroke-width="0" font-weight="bold" font-size="16" >H</text>
<text x="37.570143" y="126.581957" fill="rgb(191,191,191)" stroke-width="0" font-weight="bold" font-size="16" >H</text>
<text x="121.584927" y="48.000000" fill="rgb(191,191,191)" stroke-width="0" font-weight="bold" font-size="16" >H</text>
<text x="34.000000" y="213.783676" fill="rgb(191,191,191)" stroke-width="0" font-weight="bold" font-size="16" >H</text>
<text x="53.330191" y="180.299031" fill="rgb(191,191,191)" stroke-width="0" font-weight="bold" font-size="16" >H</text>
<text x="189.640783" y="214.380317" fill="rgb(191,191,191)" stroke-width="0" font-weight="bold" font-size="16" >H</text>
<text x="105.625999" y="214.380317" fill="rgb(191,191,191)" stroke-width="0" font-weight="bold" font-size="16" >H</text>
<text x="215.689246" y="150.835648" fill="rgb(191,191,191)" stroke-width="0" font-weight="bold" font-size="16" >H</text>
<text x="105.625999" y="105.723783" fill="rgb(191,191,191)" stroke-width="0" font-weight="bold" font-size="16" >H</text>
<text x="173.677004" y="96.507381" fill="rgb(191,191,191)" stroke-width="0" font-weight="bold" font-size="16" >H</text>
<text x="147.633391" y="208.559431" fill="rgb(255,12,12)" stroke-width="0" font-weight="bold" font-size="16" >O</text>
<text x="273.660417" y="184.305741" fill="rgb(255,12,12)" stroke-width="0" font-weight="bold" font-size="16" >O</text>
<text x="231.648175" y="257.066812" fill="rgb(255,12,12)" stroke-width="0" font-weight="bold" font-size="16" >O</text>
<text x="63.613756" y="257.066812" fill="rgb(255,12,12)" stroke-width="0" font-weight="bold" font-size="16" >O</text>
<text x="231.648175" y="111.544669" fill="rgb(255,12,12)" stroke-width="0" font-weight="bold" font-size="16" >O</text>
<text x="63.613756" y="111.544669" fill="rgb(255,12,12)" stroke-width="0" font-weight="bold" font-size="16" >O</text>
<text x="147.633391" y="63.037288" fill="rgb(255,12,12)" stroke-width="0" font-weight="bold" font-size="16" >O</text>
</svg>
</g>
<text font-size="18.000000" fill ="black" font-family="sans-serif"
x="10.000000" y="20.000000" ></text>
</svg>
