<?xml version="1.0"?>
<svg version="1.1" id="topsvg"
xmlns="http://www.w3.org/2000/svg" xmlns:xlink="http://www.w3.org/1999/xlink"
xmlns:cml="http://www.xml-cml.org/schema" x="0" y="0" width="200px" height="200px" viewBox="0 0 100 100">
<title> - Open Babel Depiction</title>
<rect x="0" y="0" width="100" height="100" fill="transparent"/>
<g transform="translate(0,0)">
<svg width="100" height="100" x="0" y="0" viewBox="0 0 368.727 282.909"
font-family="sans-serif" stroke="rgb(0,0,0)" stroke-width="2"  stroke-linecap="round">
<line x1="301.6" y1="203.5" x2="269.2" y2="203.5" opacity="1.0" stroke="rgb(0,0,0)"  stroke-width="4.0"/>
<line x1="321.1" y1="214.8" x2="322.2" y2="216.7" opacity="1.0" stroke="rgb(0,0,0)"  stroke-width="4.0"/>
<line x1="67.1" y1="79.4" x2="99.5" y2="79.4" opacity="1.0" stroke="rgb(0,0,0)"  stroke-width="4.0"/>
<line x1="47.6" y1="68.1" x2="46.5" y2="66.2" opacity="1.0" stroke="rgb(0,0,0)"  stroke-width="4.0"/>
<line x1="250.4" y1="230.2" x2="266.6" y2="202.0" opacity="1.0" stroke="rgb(0,0,0)"  stroke-width="4.0"/>
<line x1="255.6" y1="233.2" x2="271.8" y2="205.0" opacity="1.0" stroke="rgb(0,0,0)"  stroke-width="4.0"/>
<line x1="118.4" y1="52.8" x2="102.1" y2="80.9" opacity="1.0" stroke="rgb(0,0,0)"  stroke-width="4.0"/>
<line x1="113.2" y1="49.8" x2="96.9" y2="77.9" opacity="1.0" stroke="rgb(0,0,0)"  stroke-width="4.0"/>
<line x1="207.1" y1="141.5" x2="161.6" y2="141.5" opacity="1.0" stroke="rgb(0,0,0)"  stroke-width="4.0"/>
<line x1="205.3" y1="138.0" x2="206.9" y2="137.6" opacity="1.0" stroke="rgb(0,0,0)"  stroke-width="1.0"/>
<line x1="203.9" y1="135.3" x2="206.7" y2="134.5" opacity="1.0" stroke="rgb(0,0,0)"  stroke-width="1.0"/>
<line x1="202.5" y1="132.5" x2="206.6" y2="131.4" opacity="1.0" stroke="rgb(0,0,0)"  stroke-width="1.0"/>
<line x1="201.1" y1="129.8" x2="206.4" y2="128.3" opacity="1.0" stroke="rgb(0,0,0)"  stroke-width="1.0"/>
<line x1="199.7" y1="127.0" x2="206.2" y2="125.3" opacity="1.0" stroke="rgb(0,0,0)"  stroke-width="1.0"/>
<line x1="198.3" y1="124.2" x2="206.1" y2="122.2" opacity="1.0" stroke="rgb(0,0,0)"  stroke-width="1.0"/>
<line x1="163.4" y1="144.9" x2="161.8" y2="145.3" opacity="1.0" stroke="rgb(0,0,0)"  stroke-width="1.0"/>
<line x1="164.8" y1="147.6" x2="162.0" y2="148.4" opacity="1.0" stroke="rgb(0,0,0)"  stroke-width="1.0"/>
<line x1="166.2" y1="150.4" x2="162.2" y2="151.5" opacity="1.0" stroke="rgb(0,0,0)"  stroke-width="1.0"/>
<line x1="167.6" y1="153.2" x2="162.3" y2="154.6" opacity="1.0" stroke="rgb(0,0,0)"  stroke-width="1.0"/>
<line x1="169.0" y1="155.9" x2="162.5" y2="157.6" opacity="1.0" stroke="rgb(0,0,0)"  stroke-width="1.0"/>
<line x1="170.4" y1="158.7" x2="162.7" y2="160.7" opacity="1.0" stroke="rgb(0,0,0)"  stroke-width="1.0"/>
<line x1="246.5" y1="164.2" x2="269.2" y2="203.5" opacity="1.0" stroke="rgb(0,0,0)"  stroke-width="4.0"/>
<polygon points="246.454013 164.181498 263.657765 155.429893 265.728621 163.157218 " stroke-width="2.000000" fill="rgb(0,0,0)"  stroke="rgb(0,0,0)" />
<line x1="122.3" y1="118.7" x2="99.5" y2="79.4" opacity="1.0" stroke="rgb(0,0,0)"  stroke-width="4.0"/>
<polygon points="122.272515 118.727070 105.068763 127.478674 102.997907 119.751349 " stroke-width="2.000000" fill="rgb(0,0,0)"  stroke="rgb(0,0,0)" />
<line x1="207.1" y1="141.5" x2="235.2" y2="125.2" opacity="1.0" stroke="rgb(0,0,0)"  stroke-width="4.0"/>
<line x1="246.5" y1="131.7" x2="246.5" y2="164.2" opacity="1.0" stroke="rgb(0,0,0)"  stroke-width="4.0"/>
<line x1="246.5" y1="164.2" x2="207.1" y2="141.5" opacity="1.0" stroke="rgb(0,0,0)"  stroke-width="4.0"/>
<line x1="133.5" y1="157.7" x2="161.6" y2="141.5" opacity="1.0" stroke="rgb(0,0,0)"  stroke-width="4.0"/>
<line x1="161.6" y1="141.5" x2="122.3" y2="118.7" opacity="1.0" stroke="rgb(0,0,0)"  stroke-width="4.0"/>
<line x1="122.3" y1="118.7" x2="122.3" y2="151.2" opacity="1.0" stroke="rgb(0,0,0)"  stroke-width="4.0"/>
<text x="34.000000" y="62.954507" fill="rgb(191,191,191)" stroke-width="0" font-weight="bold" font-size="16" >H</text>
<text x="322.726528" y="235.954060" fill="rgb(191,191,191)" stroke-width="0" font-weight="bold" font-size="16" >H</text>
<text x="89.049858" y="134.022505" fill="rgb(191,191,191)" stroke-width="0" font-weight="bold" font-size="16" >H</text>
<text x="267.676670" y="164.886062" fill="rgb(191,191,191)" stroke-width="0" font-weight="bold" font-size="16" >H</text>
<text x="162.931485" y="176.676941" fill="rgb(191,191,191)" stroke-width="0" font-weight="bold" font-size="16" >H</text>
<text x="193.799588" y="122.231627" fill="rgb(191,191,191)" stroke-width="0" font-weight="bold" font-size="16" >H</text>
<text x="240.454013" y="126.727070" fill="rgb(255,12,12)" stroke-width="0" font-weight="bold" font-size="16" >O</text>
<text x="116.272515" y="48.000000" fill="rgb(255,12,12)" stroke-width="0" font-weight="bold" font-size="16" >O</text>
<text x="240.454013" y="250.908567" fill="rgb(255,12,12)" stroke-width="0" font-weight="bold" font-size="16" >O</text>
<text x="48.090873" y="87.363535" fill="rgb(255,12,12)" stroke-width="0" font-weight="bold" font-size="16" >O</text>
<text x="308.635655" y="211.545033" fill="rgb(255,12,12)" stroke-width="0" font-weight="bold" font-size="16" >O</text>
<text x="116.272515" y="172.181498" fill="rgb(255,12,12)" stroke-width="0" font-weight="bold" font-size="16" >O</text>
</svg>
</g>
<text font-size="18.000000" fill ="black" font-family="sans-serif"
x="10.000000" y="20.000000" ></text>
</svg>
