<?xml version="1.0"?>
<svg version="1.1" id="topsvg"
xmlns="http://www.w3.org/2000/svg" xmlns:xlink="http://www.w3.org/1999/xlink"
xmlns:cml="http://www.xml-cml.org/schema" x="0" y="0" width="200px" height="200px" viewBox="0 0 100 100">
<title> - Open Babel Depiction</title>
<rect x="0" y="0" width="100" height="100" fill="transparent"/>
<g transform="translate(0,0)">
<svg width="100" height="100" x="0" y="0" viewBox="0 0 554.148 363.005"
font-family="sans-serif" stroke="rgb(0,0,0)" stroke-width="2"  stroke-linecap="round">
<line x1="204.0" y1="106.6" x2="234.9" y2="88.7" opacity="1.0" stroke="rgb(0,0,0)"  stroke-width="4.0"/>
<line x1="181.4" y1="106.6" x2="150.5" y2="88.7" opacity="1.0" stroke="rgb(0,0,0)"  stroke-width="4.0"/>
<line x1="350.2" y1="106.6" x2="319.3" y2="88.7" opacity="1.0" stroke="rgb(0,0,0)"  stroke-width="4.0"/>
<line x1="372.7" y1="106.6" x2="403.6" y2="88.7" opacity="1.0" stroke="rgb(0,0,0)"  stroke-width="4.0"/>
<line x1="246.1" y1="179.6" x2="277.1" y2="161.8" opacity="1.0" stroke="rgb(0,0,0)"  stroke-width="4.0"/>
<line x1="234.9" y1="199.1" x2="234.9" y2="234.8" opacity="1.0" stroke="rgb(0,0,0)"  stroke-width="4.0"/>
<line x1="237.9" y1="53.0" x2="237.9" y2="88.7" opacity="1.0" stroke="rgb(0,0,0)"  stroke-width="4.0"/>
<line x1="231.9" y1="53.0" x2="231.9" y2="88.7" opacity="1.0" stroke="rgb(0,0,0)"  stroke-width="4.0"/>
<line x1="322.3" y1="53.0" x2="322.3" y2="88.7" opacity="1.0" stroke="rgb(0,0,0)"  stroke-width="4.0"/>
<line x1="316.3" y1="53.0" x2="316.3" y2="88.7" opacity="1.0" stroke="rgb(0,0,0)"  stroke-width="4.0"/>
<line x1="306.5" y1="182.2" x2="275.6" y2="164.4" opacity="1.0" stroke="rgb(0,0,0)"  stroke-width="4.0"/>
<line x1="309.5" y1="177.0" x2="278.6" y2="159.2" opacity="1.0" stroke="rgb(0,0,0)"  stroke-width="4.0"/>
<line x1="277.1" y1="113.1" x2="234.9" y2="88.7" opacity="1.0" stroke="rgb(0,0,0)"  stroke-width="4.0"/>
<line x1="277.1" y1="113.1" x2="319.3" y2="88.7" opacity="1.0" stroke="rgb(0,0,0)"  stroke-width="4.0"/>
<line x1="277.1" y1="113.1" x2="277.1" y2="161.8" opacity="1.0" stroke="rgb(0,0,0)"  stroke-width="4.0"/>
<line x1="277.1" y1="113.1" x2="292.0" y2="121.7" opacity="1.0" stroke="rgb(0,0,0)"  stroke-width="4.0"/>
<line x1="150.5" y1="88.7" x2="108.3" y2="113.1" opacity="1.0" stroke="rgb(0,0,0)"  stroke-width="4.0"/>
<line x1="150.5" y1="88.7" x2="161.6" y2="75.5" opacity="1.0" stroke="rgb(0,0,0)"  stroke-width="4.0"/>
<line x1="150.5" y1="88.7" x2="139.5" y2="75.5" opacity="1.0" stroke="rgb(0,0,0)"  stroke-width="4.0"/>
<line x1="403.6" y1="88.7" x2="445.8" y2="113.1" opacity="1.0" stroke="rgb(0,0,0)"  stroke-width="4.0"/>
<line x1="403.6" y1="88.7" x2="414.7" y2="75.5" opacity="1.0" stroke="rgb(0,0,0)"  stroke-width="4.0"/>
<line x1="403.6" y1="88.7" x2="392.6" y2="75.5" opacity="1.0" stroke="rgb(0,0,0)"  stroke-width="4.0"/>
<line x1="234.9" y1="234.8" x2="192.7" y2="259.2" opacity="1.0" stroke="rgb(0,0,0)"  stroke-width="4.0"/>
<line x1="234.9" y1="234.8" x2="240.8" y2="251.0" opacity="1.0" stroke="rgb(0,0,0)"  stroke-width="4.0"/>
<line x1="234.9" y1="234.8" x2="251.8" y2="231.9" opacity="1.0" stroke="rgb(0,0,0)"  stroke-width="4.0"/>
<line x1="106.8" y1="115.7" x2="64.7" y2="91.3" opacity="1.0" stroke="rgb(0,0,0)"  stroke-width="4.0"/>
<line x1="109.8" y1="110.5" x2="67.7" y2="86.1" opacity="1.0" stroke="rgb(0,0,0)"  stroke-width="4.0"/>
<line x1="108.3" y1="113.1" x2="108.3" y2="130.3" opacity="1.0" stroke="rgb(0,0,0)"  stroke-width="4.0"/>
<line x1="444.3" y1="110.5" x2="486.5" y2="86.1" opacity="1.0" stroke="rgb(0,0,0)"  stroke-width="4.0"/>
<line x1="447.3" y1="115.7" x2="489.5" y2="91.3" opacity="1.0" stroke="rgb(0,0,0)"  stroke-width="4.0"/>
<line x1="445.8" y1="113.1" x2="445.8" y2="130.3" opacity="1.0" stroke="rgb(0,0,0)"  stroke-width="4.0"/>
<line x1="195.7" y1="259.2" x2="195.7" y2="307.9" opacity="1.0" stroke="rgb(0,0,0)"  stroke-width="4.0"/>
<line x1="189.7" y1="259.2" x2="189.7" y2="307.9" opacity="1.0" stroke="rgb(0,0,0)"  stroke-width="4.0"/>
<line x1="192.7" y1="259.2" x2="177.8" y2="250.6" opacity="1.0" stroke="rgb(0,0,0)"  stroke-width="4.0"/>
<line x1="66.2" y1="88.7" x2="66.2" y2="71.5" opacity="1.0" stroke="rgb(0,0,0)"  stroke-width="4.0"/>
<line x1="66.2" y1="88.7" x2="51.3" y2="97.3" opacity="1.0" stroke="rgb(0,0,0)"  stroke-width="4.0"/>
<line x1="488.0" y1="88.7" x2="502.9" y2="97.3" opacity="1.0" stroke="rgb(0,0,0)"  stroke-width="4.0"/>
<line x1="488.0" y1="88.7" x2="488.0" y2="71.5" opacity="1.0" stroke="rgb(0,0,0)"  stroke-width="4.0"/>
<line x1="192.7" y1="307.9" x2="177.8" y2="316.5" opacity="1.0" stroke="rgb(0,0,0)"  stroke-width="4.0"/>
<line x1="192.7" y1="307.9" x2="207.6" y2="316.5" opacity="1.0" stroke="rgb(0,0,0)"  stroke-width="4.0"/>
<text x="102.335321" y="151.265294" fill="rgb(191,191,191)" stroke-width="0" font-weight="bold" font-size="16" >H</text>
<text x="297.229079" y="136.165180" fill="rgb(191,191,191)" stroke-width="0" font-weight="bold" font-size="16" >H</text>
<text x="163.934043" y="73.572773" fill="rgb(191,191,191)" stroke-width="0" font-weight="bold" font-size="16" >H</text>
<text x="125.107267" y="73.572773" fill="rgb(191,191,191)" stroke-width="0" font-weight="bold" font-size="16" >H</text>
<text x="417.036304" y="73.572773" fill="rgb(191,191,191)" stroke-width="0" font-weight="bold" font-size="16" >H</text>
<text x="378.214398" y="73.572773" fill="rgb(191,191,191)" stroke-width="0" font-weight="bold" font-size="16" >H</text>
<text x="239.220287" y="271.218649" fill="rgb(191,191,191)" stroke-width="0" font-weight="bold" font-size="16" >H</text>
<text x="258.631240" y="237.594105" fill="rgb(191,191,191)" stroke-width="0" font-weight="bold" font-size="16" >H</text>
<text x="439.808249" y="151.265294" fill="rgb(191,191,191)" stroke-width="0" font-weight="bold" font-size="16" >H</text>
<text x="160.548695" y="252.095085" fill="rgb(191,191,191)" stroke-width="0" font-weight="bold" font-size="16" >H</text>
<text x="60.152423" y="66.509817" fill="rgb(191,191,191)" stroke-width="0" font-weight="bold" font-size="16" >H</text>
<text x="34.000000" y="111.810158" fill="rgb(191,191,191)" stroke-width="0" font-weight="bold" font-size="16" >H</text>
<text x="508.148441" y="111.810158" fill="rgb(191,191,191)" stroke-width="0" font-weight="bold" font-size="16" >H</text>
<text x="481.996019" y="66.509817" fill="rgb(191,191,191)" stroke-width="0" font-weight="bold" font-size="16" >H</text>
<text x="160.548695" y="331.005357" fill="rgb(191,191,191)" stroke-width="0" font-weight="bold" font-size="16" >H</text>
<text x="212.858411" y="331.005357" fill="rgb(191,191,191)" stroke-width="0" font-weight="bold" font-size="16" >H</text>
<text x="355.442453" y="121.065066" fill="rgb(255,12,12)" stroke-width="0" font-weight="bold" font-size="16" >O</text>
<text x="228.888887" y="194.130133" fill="rgb(255,12,12)" stroke-width="0" font-weight="bold" font-size="16" >O</text>
<text x="228.888887" y="48.000000" fill="rgb(255,12,12)" stroke-width="0" font-weight="bold" font-size="16" >O</text>
<text x="313.259555" y="48.000000" fill="rgb(255,12,12)" stroke-width="0" font-weight="bold" font-size="16" >O</text>
<text x="313.259555" y="194.130133" fill="rgb(255,12,12)" stroke-width="0" font-weight="bold" font-size="16" >O</text>
<text x="186.705989" y="121.065066" fill="rgb(255,12,12)" stroke-width="0" font-weight="bold" font-size="16" >O</text>
</svg>
</g>
<text font-size="18.000000" fill ="black" font-family="sans-serif"
x="10.000000" y="20.000000" ></text>
</svg>
