<?xml version="1.0"?>
<svg version="1.1" id="topsvg"
xmlns="http://www.w3.org/2000/svg" xmlns:xlink="http://www.w3.org/1999/xlink"
xmlns:cml="http://www.xml-cml.org/schema" x="0" y="0" width="200px" height="200px" viewBox="0 0 100 100">
<title> - Open Babel Depiction</title>
<rect x="0" y="0" width="100" height="100" fill="transparent"/>
<g transform="translate(0,0)">
<svg width="100" height="100" x="0" y="0" viewBox="0 0 599.617 500"
font-family="sans-serif" stroke="rgb(0,0,0)" stroke-width="2"  stroke-linecap="round">
<line x1="271.2" y1="53.5" x2="259.1" y2="46.5" opacity="1.0" stroke="rgb(0,0,0)"  stroke-width="2.0"/>
<line x1="236.6" y1="46.5" x2="213.2" y2="60.0" opacity="1.0" stroke="rgb(0,0,0)"  stroke-width="2.0"/>
<line x1="211.7" y1="62.6" x2="188.3" y2="49.1" opacity="1.0" stroke="rgb(0,0,0)"  stroke-width="2.0"/>
<line x1="214.7" y1="57.4" x2="191.3" y2="43.9" opacity="1.0" stroke="rgb(0,0,0)"  stroke-width="2.0"/>
<line x1="213.2" y1="60.0" x2="213.2" y2="100.0" opacity="1.0" stroke="rgb(0,0,0)"  stroke-width="2.0"/>
<line x1="249.3" y1="157.4" x2="281.0" y2="182.6" opacity="1.0" stroke="rgb(0,0,0)"  stroke-width="2.0"/>
<line x1="246.3" y1="162.6" x2="284.0" y2="177.4" opacity="1.0" stroke="rgb(0,0,0)"  stroke-width="2.0"/>
<line x1="282.5" y1="180.0" x2="282.5" y2="220.0" opacity="1.0" stroke="rgb(0,0,0)"  stroke-width="2.0"/>
<line x1="282.5" y1="220.0" x2="305.9" y2="233.5" opacity="1.0" stroke="rgb(0,0,0)"  stroke-width="2.0"/>
<line x1="247.8" y1="120.0" x2="282.5" y2="100.0" opacity="1.0" stroke="rgb(0,0,0)"  stroke-width="2.0"/>
<line x1="282.5" y1="100.0" x2="317.1" y2="120.0" opacity="1.0" stroke="rgb(0,0,0)"  stroke-width="2.0"/>
<line x1="320.1" y1="120.0" x2="320.1" y2="147.0" opacity="1.0" stroke="rgb(0,0,0)"  stroke-width="2.0"/>
<line x1="314.1" y1="120.0" x2="314.1" y2="147.0" opacity="1.0" stroke="rgb(0,0,0)"  stroke-width="2.0"/>
<line x1="317.1" y1="120.0" x2="340.5" y2="106.5" opacity="1.0" stroke="rgb(0,0,0)"  stroke-width="2.0"/>
<line x1="363.0" y1="106.5" x2="386.4" y2="120.0" opacity="1.0" stroke="rgb(0,0,0)"  stroke-width="2.0"/>
<line x1="386.4" y1="120.0" x2="421.1" y2="100.0" opacity="1.0" stroke="rgb(0,0,0)"  stroke-width="2.0"/>
<line x1="421.1" y1="100.0" x2="455.7" y2="120.0" opacity="1.0" stroke="rgb(0,0,0)"  stroke-width="2.0"/>
<line x1="525.0" y1="160.0" x2="548.4" y2="173.5" opacity="1.0" stroke="rgb(0,0,0)"  stroke-width="2.0"/>
<line x1="213.2" y1="180.0" x2="213.2" y2="207.0" opacity="1.0" stroke="rgb(0,0,0)"  stroke-width="2.0"/>
<line x1="201.9" y1="226.5" x2="178.6" y2="240.0" opacity="1.0" stroke="rgb(0,0,0)"  stroke-width="2.0"/>
<line x1="109.3" y1="240.0" x2="74.6" y2="220.0" opacity="1.0" stroke="rgb(0,0,0)"  stroke-width="2.0"/>
<line x1="74.6" y1="220.0" x2="51.3" y2="233.5" opacity="1.0" stroke="rgb(0,0,0)"  stroke-width="2.0"/>
<line x1="109.3" y1="280.0" x2="85.9" y2="293.5" opacity="1.0" stroke="rgb(0,0,0)"  stroke-width="2.0"/>
<line x1="143.9" y1="300.0" x2="143.9" y2="327.0" opacity="1.0" stroke="rgb(0,0,0)"  stroke-width="2.0"/>
<line x1="178.6" y1="280.0" x2="201.9" y2="293.5" opacity="1.0" stroke="rgb(0,0,0)"  stroke-width="2.0"/>
<line x1="213.2" y1="313.0" x2="213.2" y2="340.0" opacity="1.0" stroke="rgb(0,0,0)"  stroke-width="2.0"/>
<line x1="178.6" y1="400.0" x2="143.9" y2="420.0" opacity="1.0" stroke="rgb(0,0,0)"  stroke-width="2.0"/>
<line x1="143.9" y1="420.0" x2="120.5" y2="406.5" opacity="1.0" stroke="rgb(0,0,0)"  stroke-width="2.0"/>
<line x1="213.2" y1="420.0" x2="213.2" y2="447.0" opacity="1.0" stroke="rgb(0,0,0)"  stroke-width="2.0"/>
<line x1="247.8" y1="400.0" x2="271.2" y2="413.5" opacity="1.0" stroke="rgb(0,0,0)"  stroke-width="2.0"/>
<line x1="247.8" y1="360.0" x2="271.2" y2="346.5" opacity="1.0" stroke="rgb(0,0,0)"  stroke-width="2.0"/>
<line x1="490.3" y1="100.0" x2="455.7" y2="120.0" opacity="1.0" stroke="rgb(0,0,0)"  stroke-width="2.0"/>
<line x1="488.7" y1="109.2" x2="464.5" y2="123.2" opacity="1.0" stroke="rgb(0,0,0)"  stroke-width="2.0"/>
<line x1="455.7" y1="120.0" x2="455.7" y2="160.0" opacity="1.0" stroke="rgb(0,0,0)"  stroke-width="2.0"/>
<line x1="455.7" y1="160.0" x2="490.3" y2="180.0" opacity="1.0" stroke="rgb(0,0,0)"  stroke-width="2.0"/>
<line x1="464.5" y1="156.8" x2="488.7" y2="170.8" opacity="1.0" stroke="rgb(0,0,0)"  stroke-width="2.0"/>
<line x1="490.3" y1="180.0" x2="525.0" y2="160.0" opacity="1.0" stroke="rgb(0,0,0)"  stroke-width="2.0"/>
<line x1="525.0" y1="160.0" x2="525.0" y2="120.0" opacity="1.0" stroke="rgb(0,0,0)"  stroke-width="2.0"/>
<line x1="517.8" y1="154.0" x2="517.8" y2="126.0" opacity="1.0" stroke="rgb(0,0,0)"  stroke-width="2.0"/>
<line x1="525.0" y1="120.0" x2="490.3" y2="100.0" opacity="1.0" stroke="rgb(0,0,0)"  stroke-width="2.0"/>
<line x1="178.6" y1="120.0" x2="213.2" y2="100.0" opacity="1.0" stroke="rgb(0,0,0)"  stroke-width="2.0"/>
<line x1="187.4" y1="123.2" x2="211.6" y2="109.2" opacity="1.0" stroke="rgb(0,0,0)"  stroke-width="2.0"/>
<line x1="213.2" y1="100.0" x2="247.8" y2="120.0" opacity="1.0" stroke="rgb(0,0,0)"  stroke-width="2.0"/>
<line x1="247.8" y1="120.0" x2="247.8" y2="160.0" opacity="1.0" stroke="rgb(0,0,0)"  stroke-width="2.0"/>
<line x1="247.8" y1="160.0" x2="213.2" y2="180.0" opacity="1.0" stroke="rgb(0,0,0)"  stroke-width="2.0"/>
<line x1="213.2" y1="180.0" x2="189.8" y2="166.5" opacity="1.0" stroke="rgb(0,0,0)"  stroke-width="2.0"/>
<line x1="178.6" y1="147.0" x2="178.6" y2="120.0" opacity="1.0" stroke="rgb(0,0,0)"  stroke-width="2.0"/>
<line x1="178.6" y1="280.0" x2="178.6" y2="240.0" opacity="1.0" stroke="rgb(0,0,0)"  stroke-width="2.0"/>
<line x1="178.6" y1="240.0" x2="155.2" y2="226.5" opacity="1.0" stroke="rgb(0,0,0)"  stroke-width="2.0"/>
<line x1="132.7" y1="226.5" x2="109.3" y2="240.0" opacity="1.0" stroke="rgb(0,0,0)"  stroke-width="2.0"/>
<line x1="109.3" y1="240.0" x2="109.3" y2="280.0" opacity="1.0" stroke="rgb(0,0,0)"  stroke-width="2.0"/>
<line x1="109.3" y1="280.0" x2="143.9" y2="300.0" opacity="1.0" stroke="rgb(0,0,0)"  stroke-width="2.0"/>
<line x1="143.9" y1="300.0" x2="178.6" y2="280.0" opacity="1.0" stroke="rgb(0,0,0)"  stroke-width="2.0"/>
<line x1="247.8" y1="360.0" x2="213.2" y2="340.0" opacity="1.0" stroke="rgb(0,0,0)"  stroke-width="2.0"/>
<line x1="213.2" y1="340.0" x2="189.8" y2="353.5" opacity="1.0" stroke="rgb(0,0,0)"  stroke-width="2.0"/>
<line x1="178.6" y1="373.0" x2="178.6" y2="400.0" opacity="1.0" stroke="rgb(0,0,0)"  stroke-width="2.0"/>
<line x1="178.6" y1="400.0" x2="213.2" y2="420.0" opacity="1.0" stroke="rgb(0,0,0)"  stroke-width="2.0"/>
<line x1="213.2" y1="420.0" x2="247.8" y2="400.0" opacity="1.0" stroke="rgb(0,0,0)"  stroke-width="2.0"/>
<line x1="247.8" y1="400.0" x2="247.8" y2="360.0" opacity="1.0" stroke="rgb(0,0,0)"  stroke-width="2.0"/>
<text x="207.207362" y="308.000134" fill="rgb(255,12,12)" stroke-width="0" font-weight="bold" font-size="16" >O</text>
<text x="553.617237" y="188.000072" fill="rgb(255,12,12)" stroke-width="0" font-weight="bold" font-size="16" >OH</text>
<text x="207.207362" y="228.000092" fill="rgb(255,12,12)" stroke-width="0" font-weight="bold" font-size="16" >O</text>
<text x="137.922478" y="228.000092" fill="rgb(255,12,12)" stroke-width="0" font-weight="bold" font-size="16" >O</text>
<text x="22.000000" y="248.000103" fill="rgb(255,12,12)" stroke-width="0" font-weight="bold" font-size="16" >HO</text>
<text x="56.642442" y="308.000134" fill="rgb(255,12,12)" stroke-width="0" font-weight="bold" font-size="16" >HO</text>
<text x="137.922478" y="348.000154" fill="rgb(255,12,12)" stroke-width="0" font-weight="bold" font-size="16" >OH</text>
<text x="172.564920" y="368.000164" fill="rgb(255,12,12)" stroke-width="0" font-weight="bold" font-size="16" >O</text>
<text x="91.284884" y="408.000185" fill="rgb(255,12,12)" stroke-width="0" font-weight="bold" font-size="16" >HO</text>
<text x="207.207362" y="468.000216" fill="rgb(255,12,12)" stroke-width="0" font-weight="bold" font-size="16" >OH</text>
<text x="276.487397" y="428.000195" fill="rgb(255,12,12)" stroke-width="0" font-weight="bold" font-size="16" >OH</text>
<text x="276.487397" y="348.000154" fill="rgb(255,12,12)" stroke-width="0" font-weight="bold" font-size="16" >OH</text>
<text x="241.849804" y="48.000000" fill="rgb(255,12,12)" stroke-width="0" font-weight="bold" font-size="16" >O</text>
<text x="172.564920" y="48.000000" fill="rgb(255,12,12)" stroke-width="0" font-weight="bold" font-size="16" >O</text>
<text x="172.564920" y="168.000062" fill="rgb(255,12,12)" stroke-width="0" font-weight="bold" font-size="16" >O</text>
<text x="311.129839" y="248.000103" fill="rgb(255,12,12)" stroke-width="0" font-weight="bold" font-size="16" >OH</text>
<text x="278.487397" y="68.000010" fill="rgb(102,102,102)" stroke-width="0" font-weight="bold" font-size="16" >CH</text>
<text x="302.487397" y="71.680010" fill="rgb(102,102,102)" stroke-width="0" font-weight="bold" font-size="13" >3</text>
<text x="311.129839" y="168.000062" fill="rgb(255,12,12)" stroke-width="0" font-weight="bold" font-size="16" >O</text>
<text x="345.772281" y="108.000031" fill="rgb(255,12,12)" stroke-width="0" font-weight="bold" font-size="16" >O</text>
</svg>
</g>
<text font-size="18.000000" fill ="black" font-family="sans-serif"
x="10.000000" y="20.000000" ></text>
</svg>
