<?xml version="1.0"?>
<svg version="1.1" id="topsvg"
xmlns="http://www.w3.org/2000/svg" xmlns:xlink="http://www.w3.org/1999/xlink"
xmlns:cml="http://www.xml-cml.org/schema" x="0" y="0" width="200px" height="200px" viewBox="0 0 100 100">
<title> - Open Babel Depiction</title>
<rect x="0" y="0" width="100" height="100" fill="transparent"/>
<g transform="translate(0,0)">
<svg width="100" height="100" x="0" y="0" viewBox="0 0 993.513 667.879"
font-family="sans-serif" stroke="rgb(0,0,0)" stroke-width="2"  stroke-linecap="round">
<line x1="51.3" y1="621.4" x2="74.6" y2="607.9" opacity="1.0" stroke="rgb(0,0,0)"  stroke-width="2.0"/>
<line x1="76.1" y1="605.3" x2="99.5" y2="618.8" opacity="1.0" stroke="rgb(0,0,0)"  stroke-width="2.0"/>
<line x1="73.1" y1="610.5" x2="96.5" y2="624.0" opacity="1.0" stroke="rgb(0,0,0)"  stroke-width="2.0"/>
<line x1="74.6" y1="607.9" x2="74.6" y2="580.9" opacity="1.0" stroke="rgb(0,0,0)"  stroke-width="2.0"/>
<line x1="85.9" y1="561.4" x2="109.3" y2="547.9" opacity="1.0" stroke="rgb(0,0,0)"  stroke-width="2.0"/>
<line x1="178.6" y1="507.9" x2="213.2" y2="487.9" opacity="1.0" stroke="rgb(0,0,0)"  stroke-width="2.0"/>
<line x1="214.7" y1="485.3" x2="238.1" y2="498.8" opacity="1.0" stroke="rgb(0,0,0)"  stroke-width="2.0"/>
<line x1="211.7" y1="490.5" x2="235.1" y2="504.0" opacity="1.0" stroke="rgb(0,0,0)"  stroke-width="2.0"/>
<line x1="213.2" y1="487.9" x2="213.2" y2="460.9" opacity="1.0" stroke="rgb(0,0,0)"  stroke-width="2.0"/>
<line x1="224.5" y1="441.4" x2="247.8" y2="427.9" opacity="1.0" stroke="rgb(0,0,0)"  stroke-width="2.0"/>
<line x1="295.3" y1="340.0" x2="318.7" y2="326.5" opacity="1.0" stroke="rgb(0,0,0)"  stroke-width="2.0"/>
<line x1="330.0" y1="307.0" x2="330.0" y2="280.0" opacity="1.0" stroke="rgb(0,0,0)"  stroke-width="2.0"/>
<line x1="328.5" y1="282.6" x2="305.1" y2="269.1" opacity="1.0" stroke="rgb(0,0,0)"  stroke-width="2.0"/>
<line x1="331.5" y1="277.4" x2="308.1" y2="263.9" opacity="1.0" stroke="rgb(0,0,0)"  stroke-width="2.0"/>
<line x1="330.0" y1="280.0" x2="364.6" y2="260.0" opacity="1.0" stroke="rgb(0,0,0)"  stroke-width="2.0"/>
<line x1="433.9" y1="220.0" x2="457.3" y2="206.5" opacity="1.0" stroke="rgb(0,0,0)"  stroke-width="2.0"/>
<line x1="468.5" y1="187.0" x2="468.5" y2="160.0" opacity="1.0" stroke="rgb(0,0,0)"  stroke-width="2.0"/>
<line x1="467.0" y1="162.6" x2="443.7" y2="149.1" opacity="1.0" stroke="rgb(0,0,0)"  stroke-width="2.0"/>
<line x1="470.0" y1="157.4" x2="446.7" y2="143.9" opacity="1.0" stroke="rgb(0,0,0)"  stroke-width="2.0"/>
<line x1="468.5" y1="160.0" x2="503.2" y2="140.0" opacity="1.0" stroke="rgb(0,0,0)"  stroke-width="2.0"/>
<line x1="572.5" y1="100.0" x2="595.8" y2="86.5" opacity="1.0" stroke="rgb(0,0,0)"  stroke-width="2.0"/>
<line x1="618.4" y1="86.5" x2="641.7" y2="100.0" opacity="1.0" stroke="rgb(0,0,0)"  stroke-width="2.0"/>
<line x1="641.7" y1="100.0" x2="676.4" y2="80.0" opacity="1.0" stroke="rgb(0,0,0)"  stroke-width="2.0"/>
<line x1="676.4" y1="80.0" x2="711.0" y2="100.0" opacity="1.0" stroke="rgb(0,0,0)"  stroke-width="2.0"/>
<line x1="711.0" y1="100.0" x2="745.7" y2="80.0" opacity="1.0" stroke="rgb(0,0,0)"  stroke-width="2.0"/>
<line x1="745.7" y1="80.0" x2="780.3" y2="100.0" opacity="1.0" stroke="rgb(0,0,0)"  stroke-width="2.0"/>
<line x1="780.3" y1="100.0" x2="814.9" y2="80.0" opacity="1.0" stroke="rgb(0,0,0)"  stroke-width="2.0"/>
<line x1="814.9" y1="80.0" x2="838.3" y2="93.5" opacity="1.0" stroke="rgb(0,0,0)"  stroke-width="2.0"/>
<line x1="860.8" y1="93.5" x2="884.2" y2="80.0" opacity="1.0" stroke="rgb(0,0,0)"  stroke-width="2.0"/>
<line x1="881.2" y1="80.0" x2="881.2" y2="53.0" opacity="1.0" stroke="rgb(0,0,0)"  stroke-width="2.0"/>
<line x1="887.2" y1="80.0" x2="887.2" y2="53.0" opacity="1.0" stroke="rgb(0,0,0)"  stroke-width="2.0"/>
<line x1="884.2" y1="80.0" x2="918.9" y2="100.0" opacity="1.0" stroke="rgb(0,0,0)"  stroke-width="2.0"/>
<line x1="917.4" y1="97.4" x2="940.8" y2="83.9" opacity="1.0" stroke="rgb(0,0,0)"  stroke-width="2.0"/>
<line x1="920.4" y1="102.6" x2="943.8" y2="89.1" opacity="1.0" stroke="rgb(0,0,0)"  stroke-width="2.0"/>
<line x1="109.3" y1="507.9" x2="109.3" y2="547.9" opacity="1.0" stroke="rgb(0,0,0)"  stroke-width="2.0"/>
<line x1="116.5" y1="513.9" x2="116.5" y2="541.9" opacity="1.0" stroke="rgb(0,0,0)"  stroke-width="2.0"/>
<line x1="109.3" y1="547.9" x2="143.9" y2="567.9" opacity="1.0" stroke="rgb(0,0,0)"  stroke-width="2.0"/>
<line x1="143.9" y1="567.9" x2="178.6" y2="547.9" opacity="1.0" stroke="rgb(0,0,0)"  stroke-width="2.0"/>
<line x1="145.5" y1="558.6" x2="169.8" y2="544.6" opacity="1.0" stroke="rgb(0,0,0)"  stroke-width="2.0"/>
<line x1="178.6" y1="547.9" x2="178.6" y2="507.9" opacity="1.0" stroke="rgb(0,0,0)"  stroke-width="2.0"/>
<line x1="178.6" y1="507.9" x2="143.9" y2="487.9" opacity="1.0" stroke="rgb(0,0,0)"  stroke-width="2.0"/>
<line x1="169.8" y1="511.1" x2="145.5" y2="497.1" opacity="1.0" stroke="rgb(0,0,0)"  stroke-width="2.0"/>
<line x1="143.9" y1="487.9" x2="109.3" y2="507.9" opacity="1.0" stroke="rgb(0,0,0)"  stroke-width="2.0"/>
<line x1="364.6" y1="220.0" x2="364.6" y2="260.0" opacity="1.0" stroke="rgb(0,0,0)"  stroke-width="2.0"/>
<line x1="371.8" y1="226.0" x2="371.8" y2="254.0" opacity="1.0" stroke="rgb(0,0,0)"  stroke-width="2.0"/>
<line x1="364.6" y1="260.0" x2="399.3" y2="280.0" opacity="1.0" stroke="rgb(0,0,0)"  stroke-width="2.0"/>
<line x1="399.3" y1="280.0" x2="433.9" y2="260.0" opacity="1.0" stroke="rgb(0,0,0)"  stroke-width="2.0"/>
<line x1="400.8" y1="270.8" x2="425.1" y2="256.8" opacity="1.0" stroke="rgb(0,0,0)"  stroke-width="2.0"/>
<line x1="433.9" y1="260.0" x2="433.9" y2="220.0" opacity="1.0" stroke="rgb(0,0,0)"  stroke-width="2.0"/>
<line x1="433.9" y1="220.0" x2="399.3" y2="200.0" opacity="1.0" stroke="rgb(0,0,0)"  stroke-width="2.0"/>
<line x1="425.1" y1="223.2" x2="400.8" y2="209.2" opacity="1.0" stroke="rgb(0,0,0)"  stroke-width="2.0"/>
<line x1="399.3" y1="200.0" x2="364.6" y2="220.0" opacity="1.0" stroke="rgb(0,0,0)"  stroke-width="2.0"/>
<line x1="503.2" y1="100.0" x2="503.2" y2="140.0" opacity="1.0" stroke="rgb(0,0,0)"  stroke-width="2.0"/>
<line x1="510.4" y1="106.0" x2="510.4" y2="134.0" opacity="1.0" stroke="rgb(0,0,0)"  stroke-width="2.0"/>
<line x1="503.2" y1="140.0" x2="537.8" y2="160.0" opacity="1.0" stroke="rgb(0,0,0)"  stroke-width="2.0"/>
<line x1="537.8" y1="160.0" x2="572.5" y2="140.0" opacity="1.0" stroke="rgb(0,0,0)"  stroke-width="2.0"/>
<line x1="539.4" y1="150.8" x2="563.7" y2="136.8" opacity="1.0" stroke="rgb(0,0,0)"  stroke-width="2.0"/>
<line x1="572.5" y1="140.0" x2="572.5" y2="100.0" opacity="1.0" stroke="rgb(0,0,0)"  stroke-width="2.0"/>
<line x1="572.5" y1="100.0" x2="537.8" y2="80.0" opacity="1.0" stroke="rgb(0,0,0)"  stroke-width="2.0"/>
<line x1="563.7" y1="103.2" x2="539.4" y2="89.2" opacity="1.0" stroke="rgb(0,0,0)"  stroke-width="2.0"/>
<line x1="537.8" y1="80.0" x2="503.2" y2="100.0" opacity="1.0" stroke="rgb(0,0,0)"  stroke-width="2.0"/>
<line x1="284.4" y1="444.2" x2="247.8" y2="427.9" opacity="1.0" stroke="rgb(0,0,0)"  stroke-width="2.0"/>
<line x1="247.8" y1="427.9" x2="252.0" y2="388.1" opacity="1.0" stroke="rgb(0,0,0)"  stroke-width="2.0"/>
<line x1="252.0" y1="388.1" x2="291.2" y2="379.8" opacity="1.0" stroke="rgb(0,0,0)"  stroke-width="2.0"/>
<line x1="291.2" y1="379.8" x2="304.7" y2="403.2" opacity="1.0" stroke="rgb(0,0,0)"  stroke-width="2.0"/>
<line x1="302.5" y1="424.1" x2="284.4" y2="444.2" opacity="1.0" stroke="rgb(0,0,0)"  stroke-width="2.0"/>
<line x1="240.7" y1="343.8" x2="258.8" y2="323.7" opacity="1.0" stroke="rgb(0,0,0)"  stroke-width="2.0"/>
<line x1="258.8" y1="323.7" x2="295.3" y2="340.0" opacity="1.0" stroke="rgb(0,0,0)"  stroke-width="2.0"/>
<line x1="295.3" y1="340.0" x2="291.2" y2="379.8" opacity="1.0" stroke="rgb(0,0,0)"  stroke-width="2.0"/>
<line x1="252.0" y1="388.1" x2="238.5" y2="364.7" opacity="1.0" stroke="rgb(0,0,0)"  stroke-width="2.0"/>
<text x="462.538084" y="207.999963" fill="rgb(255,12,12)" stroke-width="0" font-weight="bold" font-size="16" >O</text>
<text x="427.895667" y="147.999977" fill="rgb(255,12,12)" stroke-width="0" font-weight="bold" font-size="16" >O</text>
<text x="601.102900" y="87.999991" fill="rgb(255,12,12)" stroke-width="0" font-weight="bold" font-size="16" >O</text>
<text x="843.590117" y="107.999986" fill="rgb(255,12,12)" stroke-width="0" font-weight="bold" font-size="16" >O</text>
<text x="878.227685" y="48.000000" fill="rgb(255,12,12)" stroke-width="0" font-weight="bold" font-size="16" >O</text>
<text x="949.512518" y="87.999991" fill="rgb(102,102,102)" stroke-width="0" font-weight="bold" font-size="16" >CH</text>
<text x="973.512518" y="91.679991" fill="rgb(102,102,102)" stroke-width="0" font-weight="bold" font-size="13" >2</text>
<text x="103.279984" y="635.878653" fill="rgb(255,12,12)" stroke-width="0" font-weight="bold" font-size="16" >O</text>
<text x="68.637568" y="575.878667" fill="rgb(255,12,12)" stroke-width="0" font-weight="bold" font-size="16" >O</text>
<text x="241.844801" y="515.878681" fill="rgb(255,12,12)" stroke-width="0" font-weight="bold" font-size="16" >O</text>
<text x="207.202385" y="455.878694" fill="rgb(255,12,12)" stroke-width="0" font-weight="bold" font-size="16" >O</text>
<text x="14.000000" y="635.878653" fill="rgb(102,102,102)" stroke-width="0" font-weight="bold" font-size="16" >H</text>
<text x="26.000000" y="639.558653" fill="rgb(102,102,102)" stroke-width="0" font-weight="bold" font-size="13" >3</text>
<text x="32.500000" y="635.878653" fill="rgb(102,102,102)" stroke-width="0" font-weight="bold" font-size="16" >C</text>
<text x="305.151453" y="422.424157" fill="rgb(255,12,12)" stroke-width="0" font-weight="bold" font-size="16" >O</text>
<text x="226.024198" y="361.459322" fill="rgb(255,12,12)" stroke-width="0" font-weight="bold" font-size="16" >O</text>
<text x="323.973267" y="327.999936" fill="rgb(255,12,12)" stroke-width="0" font-weight="bold" font-size="16" >O</text>
<text x="289.330851" y="267.999950" fill="rgb(255,12,12)" stroke-width="0" font-weight="bold" font-size="16" >O</text>
</svg>
</g>
<text font-size="18.000000" fill ="black" font-family="sans-serif"
x="10.000000" y="20.000000" ></text>
</svg>
