<?xml version="1.0"?>
<svg version="1.1" id="topsvg"
xmlns="http://www.w3.org/2000/svg" xmlns:xlink="http://www.w3.org/1999/xlink"
xmlns:cml="http://www.xml-cml.org/schema" x="0" y="0" width="200px" height="200px" viewBox="0 0 100 100">
<title> - Open Babel Depiction</title>
<rect x="0" y="0" width="100" height="100" fill="transparent"/>
<g transform="translate(0,0)">
<svg width="100" height="100" x="0" y="0" viewBox="0 0 358.86 370.404"
font-family="sans-serif" stroke="rgb(0,0,0)" stroke-width="2"  stroke-linecap="round">
<line x1="107.6" y1="142.8" x2="78.2" y2="169.8" opacity="1.0" stroke="rgb(0,0,0)"  stroke-width="2.0"/>
<line x1="78.2" y1="169.8" x2="52.4" y2="161.8" opacity="1.0" stroke="rgb(0,0,0)"  stroke-width="2.0"/>
<line x1="107.6" y1="142.8" x2="112.9" y2="169.2" opacity="1.0" stroke="rgb(0,0,0)"  stroke-width="2.0"/>
<line x1="84.1" y1="110.4" x2="57.1" y2="110.4" opacity="1.0" stroke="rgb(0,0,0)"  stroke-width="2.0"/>
<line x1="107.6" y1="78.0" x2="99.3" y2="52.4" opacity="1.0" stroke="rgb(0,0,0)"  stroke-width="2.0"/>
<line x1="180.3" y1="150.4" x2="180.3" y2="177.4" opacity="1.0" stroke="rgb(0,0,0)"  stroke-width="2.0"/>
<line x1="191.6" y1="196.9" x2="214.9" y2="210.4" opacity="1.0" stroke="rgb(0,0,0)"  stroke-width="2.0"/>
<line x1="249.6" y1="270.4" x2="249.6" y2="310.4" opacity="1.0" stroke="rgb(0,0,0)"  stroke-width="2.0"/>
<line x1="249.6" y1="310.4" x2="273.0" y2="323.9" opacity="1.0" stroke="rgb(0,0,0)"  stroke-width="2.0"/>
<line x1="284.2" y1="250.4" x2="307.6" y2="263.9" opacity="1.0" stroke="rgb(0,0,0)"  stroke-width="2.0"/>
<line x1="284.2" y1="210.4" x2="307.6" y2="196.9" opacity="1.0" stroke="rgb(0,0,0)"  stroke-width="2.0"/>
<line x1="249.6" y1="190.4" x2="249.6" y2="163.4" opacity="1.0" stroke="rgb(0,0,0)"  stroke-width="2.0"/>
<line x1="107.6" y1="78.0" x2="84.1" y2="110.4" opacity="1.0" stroke="rgb(0,0,0)"  stroke-width="2.0"/>
<line x1="84.1" y1="110.4" x2="107.6" y2="142.8" opacity="1.0" stroke="rgb(0,0,0)"  stroke-width="2.0"/>
<line x1="107.6" y1="142.8" x2="145.7" y2="130.4" opacity="1.0" stroke="rgb(0,0,0)"  stroke-width="2.0"/>
<line x1="145.7" y1="130.4" x2="145.7" y2="90.4" opacity="1.0" stroke="rgb(0,0,0)"  stroke-width="2.0"/>
<line x1="145.7" y1="90.4" x2="107.6" y2="78.0" opacity="1.0" stroke="rgb(0,0,0)"  stroke-width="2.0"/>
<line x1="214.9" y1="90.4" x2="180.3" y2="70.4" opacity="1.0" stroke="rgb(0,0,0)"  stroke-width="2.0"/>
<line x1="206.1" y1="93.6" x2="181.9" y2="79.6" opacity="1.0" stroke="rgb(0,0,0)"  stroke-width="2.0"/>
<line x1="180.3" y1="70.4" x2="145.7" y2="90.4" opacity="1.0" stroke="rgb(0,0,0)"  stroke-width="2.0"/>
<line x1="145.7" y1="130.4" x2="180.3" y2="150.4" opacity="1.0" stroke="rgb(0,0,0)"  stroke-width="2.0"/>
<line x1="180.3" y1="150.4" x2="203.7" y2="136.9" opacity="1.0" stroke="rgb(0,0,0)"  stroke-width="2.0"/>
<line x1="214.9" y1="117.4" x2="214.9" y2="90.4" opacity="1.0" stroke="rgb(0,0,0)"  stroke-width="2.0"/>
<line x1="249.6" y1="190.4" x2="214.9" y2="210.4" opacity="1.0" stroke="rgb(0,0,0)"  stroke-width="2.0"/>
<line x1="214.9" y1="210.4" x2="214.9" y2="237.4" opacity="1.0" stroke="rgb(0,0,0)"  stroke-width="2.0"/>
<line x1="226.2" y1="256.9" x2="249.6" y2="270.4" opacity="1.0" stroke="rgb(0,0,0)"  stroke-width="2.0"/>
<line x1="249.6" y1="270.4" x2="284.2" y2="250.4" opacity="1.0" stroke="rgb(0,0,0)"  stroke-width="2.0"/>
<line x1="284.2" y1="250.4" x2="284.2" y2="210.4" opacity="1.0" stroke="rgb(0,0,0)"  stroke-width="2.0"/>
<line x1="284.2" y1="210.4" x2="249.6" y2="190.4" opacity="1.0" stroke="rgb(0,0,0)"  stroke-width="2.0"/>
<text x="77.253124" y="48.000000" fill="rgb(255,12,12)" stroke-width="0" font-weight="bold" font-size="16" >HO</text>
<text x="243.579811" y="158.404429" fill="rgb(255,12,12)" stroke-width="0" font-weight="bold" font-size="16" >OH</text>
<text x="312.859548" y="198.404278" fill="rgb(255,12,12)" stroke-width="0" font-weight="bold" font-size="16" >OH</text>
<text x="312.859548" y="278.403974" fill="rgb(255,12,12)" stroke-width="0" font-weight="bold" font-size="16" >OH</text>
<text x="278.217255" y="338.403746" fill="rgb(255,12,12)" stroke-width="0" font-weight="bold" font-size="16" >OH</text>
<text x="208.937518" y="258.404050" fill="rgb(255,12,12)" stroke-width="0" font-weight="bold" font-size="16" >O</text>
<text x="174.295225" y="198.404278" fill="rgb(255,12,12)" stroke-width="0" font-weight="bold" font-size="16" >O</text>
<text x="26.101803" y="118.404581" fill="rgb(255,12,12)" stroke-width="0" font-weight="bold" font-size="16" >HO</text>
<text x="109.519713" y="189.977643" fill="rgb(255,12,12)" stroke-width="0" font-weight="bold" font-size="16" >OH</text>
<text x="22.000000" y="165.880765" fill="rgb(255,12,12)" stroke-width="0" font-weight="bold" font-size="16" >HO</text>
<text x="208.937518" y="138.404505" fill="rgb(255,12,12)" stroke-width="0" font-weight="bold" font-size="16" >O</text>
</svg>
</g>
<text font-size="18.000000" fill ="black" font-family="sans-serif"
x="10.000000" y="20.000000" ></text>
</svg>
