<?xml version="1.0"?>
<svg version="1.1" id="topsvg"
xmlns="http://www.w3.org/2000/svg" xmlns:xlink="http://www.w3.org/1999/xlink"
xmlns:cml="http://www.xml-cml.org/schema" x="0" y="0" width="200px" height="200px" viewBox="0 0 100 100">
<title> - Open Babel Depiction</title>
<rect x="0" y="0" width="100" height="100" fill="transparent"/>
<g transform="translate(0,0)">
<svg width="100" height="100" x="0" y="0" viewBox="0 0 413.968 530.807"
font-family="sans-serif" stroke="rgb(0,0,0)" stroke-width="2"  stroke-linecap="round">
<line x1="213.5" y1="262.8" x2="207.0" y2="274.8" opacity="1.0" stroke="rgb(0,0,0)"  stroke-width="2.0"/>
<line x1="207.7" y1="297.3" x2="221.6" y2="320.0" opacity="1.0" stroke="rgb(0,0,0)"  stroke-width="2.0"/>
<line x1="142.9" y1="455.6" x2="155.6" y2="432.2" opacity="1.0" stroke="rgb(0,0,0)"  stroke-width="2.0"/>
<line x1="148.1" y1="458.5" x2="160.8" y2="435.0" opacity="1.0" stroke="rgb(0,0,0)"  stroke-width="2.0"/>
<line x1="141.8" y1="319.8" x2="154.5" y2="296.4" opacity="1.0" stroke="rgb(0,0,0)"  stroke-width="2.0"/>
<line x1="153.9" y1="273.9" x2="140.0" y2="251.2" opacity="1.0" stroke="rgb(0,0,0)"  stroke-width="2.0"/>
<line x1="138.1" y1="182.6" x2="157.0" y2="147.7" opacity="1.0" stroke="rgb(0,0,0)"  stroke-width="2.0"/>
<line x1="157.0" y1="147.7" x2="183.6" y2="147.0" opacity="1.0" stroke="rgb(0,0,0)"  stroke-width="2.0"/>
<line x1="202.8" y1="135.2" x2="215.5" y2="111.8" opacity="1.0" stroke="rgb(0,0,0)"  stroke-width="2.0"/>
<line x1="212.9" y1="113.4" x2="199.0" y2="90.7" opacity="1.0" stroke="rgb(0,0,0)"  stroke-width="2.0"/>
<line x1="218.1" y1="110.2" x2="204.1" y2="87.5" opacity="1.0" stroke="rgb(0,0,0)"  stroke-width="2.0"/>
<line x1="215.5" y1="111.8" x2="255.1" y2="110.7" opacity="1.0" stroke="rgb(0,0,0)"  stroke-width="2.0"/>
<line x1="315.5" y1="143.5" x2="329.4" y2="166.2" opacity="1.0" stroke="rgb(0,0,0)"  stroke-width="2.0"/>
<line x1="334.4" y1="108.6" x2="361.0" y2="107.9" opacity="1.0" stroke="rgb(0,0,0)"  stroke-width="2.0"/>
<line x1="313.6" y1="74.8" x2="326.3" y2="51.4" opacity="1.0" stroke="rgb(0,0,0)"  stroke-width="2.0"/>
<line x1="98.5" y1="183.6" x2="84.6" y2="160.9" opacity="1.0" stroke="rgb(0,0,0)"  stroke-width="2.0"/>
<line x1="79.6" y1="218.5" x2="53.0" y2="219.2" opacity="1.0" stroke="rgb(0,0,0)"  stroke-width="2.0"/>
<line x1="100.3" y1="252.2" x2="87.7" y2="275.7" opacity="1.0" stroke="rgb(0,0,0)"  stroke-width="2.0"/>
<line x1="261.1" y1="317.2" x2="272.8" y2="293.2" opacity="1.0" stroke="rgb(0,0,0)"  stroke-width="2.0"/>
<line x1="271.2" y1="270.8" x2="263.6" y2="259.5" opacity="1.0" stroke="rgb(0,0,0)"  stroke-width="2.0"/>
<line x1="283.3" y1="350.0" x2="309.8" y2="347.0" opacity="1.0" stroke="rgb(0,0,0)"  stroke-width="2.0"/>
<line x1="143.7" y1="388.4" x2="104.0" y2="389.5" opacity="1.0" stroke="rgb(0,0,0)"  stroke-width="2.0"/>
<line x1="137.5" y1="381.4" x2="109.8" y2="382.1" opacity="1.0" stroke="rgb(0,0,0)"  stroke-width="2.0"/>
<line x1="104.0" y1="389.5" x2="83.3" y2="355.7" opacity="1.0" stroke="rgb(0,0,0)"  stroke-width="2.0"/>
<line x1="83.3" y1="355.7" x2="102.2" y2="320.9" opacity="1.0" stroke="rgb(0,0,0)"  stroke-width="2.0"/>
<line x1="92.5" y1="353.9" x2="105.7" y2="329.6" opacity="1.0" stroke="rgb(0,0,0)"  stroke-width="2.0"/>
<line x1="102.2" y1="320.9" x2="141.8" y2="319.8" opacity="1.0" stroke="rgb(0,0,0)"  stroke-width="2.0"/>
<line x1="141.8" y1="319.8" x2="162.5" y2="353.6" opacity="1.0" stroke="rgb(0,0,0)"  stroke-width="2.0"/>
<line x1="138.8" y1="328.7" x2="153.3" y2="352.2" opacity="1.0" stroke="rgb(0,0,0)"  stroke-width="2.0"/>
<line x1="162.5" y1="353.6" x2="143.7" y2="388.4" opacity="1.0" stroke="rgb(0,0,0)"  stroke-width="2.0"/>
<line x1="274.0" y1="75.9" x2="255.1" y2="110.7" opacity="1.0" stroke="rgb(0,0,0)"  stroke-width="2.0"/>
<line x1="277.5" y1="84.6" x2="264.3" y2="108.9" opacity="1.0" stroke="rgb(0,0,0)"  stroke-width="2.0"/>
<line x1="255.1" y1="110.7" x2="275.8" y2="144.5" opacity="1.0" stroke="rgb(0,0,0)"  stroke-width="2.0"/>
<line x1="275.8" y1="144.5" x2="315.5" y2="143.5" opacity="1.0" stroke="rgb(0,0,0)"  stroke-width="2.0"/>
<line x1="281.7" y1="137.2" x2="309.3" y2="136.4" opacity="1.0" stroke="rgb(0,0,0)"  stroke-width="2.0"/>
<line x1="315.5" y1="143.5" x2="334.4" y2="108.6" opacity="1.0" stroke="rgb(0,0,0)"  stroke-width="2.0"/>
<line x1="334.4" y1="108.6" x2="313.6" y2="74.8" opacity="1.0" stroke="rgb(0,0,0)"  stroke-width="2.0"/>
<line x1="325.1" y1="107.3" x2="310.6" y2="83.7" opacity="1.0" stroke="rgb(0,0,0)"  stroke-width="2.0"/>
<line x1="313.6" y1="74.8" x2="274.0" y2="75.9" opacity="1.0" stroke="rgb(0,0,0)"  stroke-width="2.0"/>
<line x1="202.2" y1="352.5" x2="221.6" y2="320.0" opacity="1.0" stroke="rgb(0,0,0)"  stroke-width="2.0"/>
<line x1="211.4" y1="351.0" x2="224.7" y2="328.8" opacity="1.0" stroke="rgb(0,0,0)"  stroke-width="2.0"/>
<line x1="221.6" y1="320.0" x2="261.1" y2="317.2" opacity="1.0" stroke="rgb(0,0,0)"  stroke-width="2.0"/>
<line x1="261.1" y1="317.2" x2="283.3" y2="350.0" opacity="1.0" stroke="rgb(0,0,0)"  stroke-width="2.0"/>
<line x1="258.5" y1="326.2" x2="274.0" y2="349.1" opacity="1.0" stroke="rgb(0,0,0)"  stroke-width="2.0"/>
<line x1="283.3" y1="350.0" x2="264.4" y2="399.7" opacity="1.0" stroke="rgb(0,0,0)"  stroke-width="2.0"/>
<line x1="264.4" y1="399.7" x2="226.4" y2="388.4" opacity="1.0" stroke="rgb(0,0,0)"  stroke-width="2.0"/>
<line x1="260.7" y1="391.1" x2="234.2" y2="383.2" opacity="1.0" stroke="rgb(0,0,0)"  stroke-width="2.0"/>
<line x1="226.4" y1="388.4" x2="202.2" y2="352.5" opacity="1.0" stroke="rgb(0,0,0)"  stroke-width="2.0"/>
<line x1="100.3" y1="252.2" x2="140.0" y2="251.2" opacity="1.0" stroke="rgb(0,0,0)"  stroke-width="2.0"/>
<line x1="140.0" y1="251.2" x2="152.7" y2="227.8" opacity="1.0" stroke="rgb(0,0,0)"  stroke-width="2.0"/>
<line x1="152.0" y1="205.3" x2="138.1" y2="182.6" opacity="1.0" stroke="rgb(0,0,0)"  stroke-width="2.0"/>
<line x1="138.1" y1="182.6" x2="98.5" y2="183.6" opacity="1.0" stroke="rgb(0,0,0)"  stroke-width="2.0"/>
<line x1="98.5" y1="183.6" x2="79.6" y2="218.5" opacity="1.0" stroke="rgb(0,0,0)"  stroke-width="2.0"/>
<line x1="79.6" y1="218.5" x2="100.3" y2="252.2" opacity="1.0" stroke="rgb(0,0,0)"  stroke-width="2.0"/>
<line x1="202.2" y1="352.5" x2="162.5" y2="353.6" opacity="1.0" stroke="rgb(0,0,0)"  stroke-width="2.0"/>
<line x1="104.0" y1="389.5" x2="85.2" y2="424.3" opacity="1.0" stroke="rgb(0,0,0)"  stroke-width="2.0"/>
<line x1="85.2" y1="424.3" x2="105.9" y2="458.1" opacity="1.0" stroke="rgb(0,0,0)"  stroke-width="2.0"/>
<line x1="105.9" y1="458.1" x2="145.5" y2="457.0" opacity="1.0" stroke="rgb(0,0,0)"  stroke-width="2.0"/>
<line x1="145.5" y1="457.0" x2="166.2" y2="490.8" opacity="1.0" stroke="rgb(0,0,0)"  stroke-width="2.0"/>
<line x1="166.2" y1="490.8" x2="205.9" y2="489.7" opacity="1.0" stroke="rgb(0,0,0)"  stroke-width="2.0"/>
<line x1="205.9" y1="489.7" x2="228.1" y2="452.5" opacity="1.0" stroke="rgb(0,0,0)"  stroke-width="2.0"/>
<line x1="228.1" y1="452.5" x2="265.5" y2="439.3" opacity="1.0" stroke="rgb(0,0,0)"  stroke-width="2.0"/>
<line x1="265.5" y1="439.3" x2="264.4" y2="399.7" opacity="1.0" stroke="rgb(0,0,0)"  stroke-width="2.0"/>
<text x="152.846805" y="224.341547" fill="rgb(255,12,12)" stroke-width="0" font-weight="bold" font-size="16" >O</text>
<text x="190.617810" y="154.655172" fill="rgb(255,12,12)" stroke-width="0" font-weight="bold" font-size="16" >O</text>
<text x="188.773213" y="86.040008" fill="rgb(255,12,12)" stroke-width="0" font-weight="bold" font-size="16" >O</text>
<text x="330.197116" y="185.235131" fill="rgb(255,12,12)" stroke-width="0" font-weight="bold" font-size="16" >OH</text>
<text x="367.968121" y="115.553560" fill="rgb(255,12,12)" stroke-width="0" font-weight="bold" font-size="16" >OH</text>
<text x="326.503118" y="48.000000" fill="rgb(255,12,12)" stroke-width="0" font-weight="bold" font-size="16" >OH</text>
<text x="59.771005" y="157.854395" fill="rgb(255,12,12)" stroke-width="0" font-weight="bold" font-size="16" >HO</text>
<text x="22.000000" y="227.535966" fill="rgb(255,12,12)" stroke-width="0" font-weight="bold" font-size="16" >HO</text>
<text x="63.465002" y="295.089526" fill="rgb(255,12,12)" stroke-width="0" font-weight="bold" font-size="16" >HO</text>
<text x="272.491014" y="289.560539" fill="rgb(255,12,12)" stroke-width="0" font-weight="bold" font-size="16" >O</text>
<text x="230.312618" y="256.718066" fill="rgb(102,102,102)" stroke-width="0" font-weight="bold" font-size="16" >H</text>
<text x="242.312618" y="260.398066" fill="rgb(102,102,102)" stroke-width="0" font-weight="bold" font-size="13" >3</text>
<text x="248.812618" y="256.718066" fill="rgb(102,102,102)" stroke-width="0" font-weight="bold" font-size="16" >C</text>
<text x="316.679679" y="353.477744" fill="rgb(255,12,12)" stroke-width="0" font-weight="bold" font-size="16" >OH</text>
<text x="194.849815" y="294.215264" fill="rgb(255,12,12)" stroke-width="0" font-weight="bold" font-size="16" >O</text>
<text x="158.385400" y="430.187038" fill="rgb(255,12,12)" stroke-width="0" font-weight="bold" font-size="16" >O</text>
<text x="215.708897" y="259.360067" fill="rgb(102,102,102)" stroke-width="0" font-weight="bold" font-size="16" >CH</text>
<text x="239.708897" y="263.040067" fill="rgb(102,102,102)" stroke-width="0" font-weight="bold" font-size="13" >3</text>
<text x="154.696206" y="292.956711" fill="rgb(255,12,12)" stroke-width="0" font-weight="bold" font-size="16" >O</text>
</svg>
</g>
<text font-size="18.000000" fill ="black" font-family="sans-serif"
x="10.000000" y="20.000000" ></text>
</svg>
